<?xml version="1.0" encoding="UTF-8" standalone="no"?>
<!DOCTYPE svg PUBLIC "-//W3C//DTD SVG 1.1//EN"
 "http://www.w3.org/Graphics/SVG/1.1/DTD/svg11.dtd">
<!-- Generated by graphviz version 2.43.0 (0)
 -->
<!-- Title: G Pages: 1 -->
<svg width="764pt" height="678pt"
 viewBox="0.00 0.00 764.30 678.30" xmlns="http://www.w3.org/2000/svg" xmlns:xlink="http://www.w3.org/1999/xlink">
<g id="graph0" class="graph" transform="scale(1 1) rotate(0) translate(14.4 663.9)">
<title>G</title>
<polygon fill="white" stroke="transparent" points="-14.4,14.4 -14.4,-663.9 749.9,-663.9 749.9,14.4 -14.4,14.4"/>
<g id="clust1" class="cluster">
<title>cluster_web</title>
<path fill="none" stroke="#00acf1" d="M20,-376.5C20,-376.5 560,-376.5 560,-376.5 566,-376.5 572,-382.5 572,-388.5 572,-388.5 572,-507.5 572,-507.5 572,-513.5 566,-519.5 560,-519.5 560,-519.5 20,-519.5 20,-519.5 14,-519.5 8,-513.5 8,-507.5 8,-507.5 8,-388.5 8,-388.5 8,-382.5 14,-376.5 20,-376.5"/>
<text text-anchor="middle" x="290" y="-506.7" font-family="Nunito" font-size="11.00" fill="#0065b3">Presentation tier: BrokerVerse SPA (React 18, PrimeReact, Redux Toolkit)</text>
</g>
<g id="clust2" class="cluster">
<title>cluster_api</title>
<path fill="none" stroke="#00acf1" d="M231,-91.5C231,-91.5 707,-91.5 707,-91.5 713,-91.5 719,-97.5 719,-103.5 719,-103.5 719,-338.5 719,-338.5 719,-344.5 713,-350.5 707,-350.5 707,-350.5 231,-350.5 231,-350.5 225,-350.5 219,-344.5 219,-338.5 219,-338.5 219,-103.5 219,-103.5 219,-97.5 225,-91.5 231,-91.5"/>
<text text-anchor="middle" x="469" y="-337.7" font-family="Nunito" font-size="11.00" fill="#0065b3">Application tier: BrokerVerse API (Node.js 22, Express 4), stateless</text>
</g>
<!-- user -->
<g id="node1" class="node">
<title>user</title>
<path fill="#ffffff" stroke="#0065b3" d="M455.5,-649.5C455.5,-649.5 242.5,-649.5 242.5,-649.5 236.5,-649.5 230.5,-643.5 230.5,-637.5 230.5,-637.5 230.5,-625.5 230.5,-625.5 230.5,-619.5 236.5,-613.5 242.5,-613.5 242.5,-613.5 455.5,-613.5 455.5,-613.5 461.5,-613.5 467.5,-619.5 467.5,-625.5 467.5,-625.5 467.5,-637.5 467.5,-637.5 467.5,-643.5 461.5,-649.5 455.5,-649.5"/>
<text text-anchor="middle" x="349" y="-629.1" font-family="Nunito" font-size="10.50">Users (browser): broker staff, agents, approvers</text>
</g>
<!-- cdn -->
<g id="node2" class="node">
<title>cdn</title>
<polygon fill="#ffffff" stroke="#0065b3" points="492.5,-577.5 209.5,-577.5 205.5,-573.5 205.5,-541.5 488.5,-541.5 492.5,-545.5 492.5,-577.5"/>
<polyline fill="none" stroke="#0065b3" points="488.5,-573.5 205.5,-573.5 "/>
<polyline fill="none" stroke="#0065b3" points="488.5,-573.5 488.5,-541.5 "/>
<polyline fill="none" stroke="#0065b3" points="488.5,-573.5 492.5,-577.5 "/>
<text text-anchor="middle" x="349" y="-557.1" font-family="Nunito" font-size="10.50">Static hosting: S3 + CloudFront (target) or nginx container</text>
</g>
<!-- user&#45;&gt;cdn -->
<g id="edge1" class="edge">
<title>user&#45;&gt;cdn</title>
<path fill="none" stroke="#5b6776" d="M349,-613.2C349,-604.64 349,-594.16 349,-584.8"/>
<polygon fill="#5b6776" stroke="#5b6776" points="351.45,-584.6 349,-577.6 346.55,-584.6 351.45,-584.6"/>
<text text-anchor="middle" x="385.5" y="-593.3" font-family="Nunito" font-size="9.00"> HTTPS: load SPA</text>
</g>
<!-- spa_fin -->
<g id="node5" class="node">
<title>spa_fin</title>
<path fill="#eaf6fd" stroke="#0065b3" d="M406,-491.5C406,-491.5 292,-491.5 292,-491.5 286,-491.5 280,-485.5 280,-479.5 280,-479.5 280,-459.5 280,-459.5 280,-453.5 286,-447.5 292,-447.5 292,-447.5 406,-447.5 406,-447.5 412,-447.5 418,-453.5 418,-459.5 418,-459.5 418,-479.5 418,-479.5 418,-485.5 412,-491.5 406,-491.5"/>
<text text-anchor="middle" x="349" y="-479.1" font-family="Nunito" font-size="10.50">Accounts / finance</text>
<text text-anchor="middle" x="349" y="-467.1" font-family="Nunito" font-size="10.50">receipts, JV, disbursement,</text>
<text text-anchor="middle" x="349" y="-455.1" font-family="Nunito" font-size="10.50">remittance, incentive</text>
</g>
<!-- cdn&#45;&gt;spa_fin -->
<g id="edge2" class="edge">
<title>cdn&#45;&gt;spa_fin</title>
<path fill="none" stroke="#5b6776" d="M349,-541.11C349,-536.75 349,-531.83 349,-526.66"/>
<polygon fill="#5b6776" stroke="#5b6776" points="351.45,-526.5 349,-519.5 346.55,-526.5 351.45,-526.5"/>
</g>
<!-- client -->
<g id="node3" class="node">
<title>client</title>
<path fill="#ffffff" stroke="#0065b3" d="M723.5,-420.5C723.5,-420.5 592.5,-420.5 592.5,-420.5 586.5,-420.5 580.5,-414.5 580.5,-408.5 580.5,-408.5 580.5,-396.5 580.5,-396.5 580.5,-390.5 586.5,-384.5 592.5,-384.5 592.5,-384.5 723.5,-384.5 723.5,-384.5 729.5,-384.5 735.5,-390.5 735.5,-396.5 735.5,-396.5 735.5,-408.5 735.5,-408.5 735.5,-414.5 729.5,-420.5 723.5,-420.5"/>
<text text-anchor="middle" x="658" y="-406.1" font-family="Nunito" font-size="10.50">Client / customer</text>
<text text-anchor="middle" x="658" y="-394.1" font-family="Nunito" font-size="10.50">(e&#45;mailed quote approval link)</text>
</g>
<!-- pipeline -->
<g id="node9" class="node">
<title>pipeline</title>
<path fill="#ffffff" stroke="#0065b3" d="M699,-322.5C699,-322.5 403,-322.5 403,-322.5 397,-322.5 391,-316.5 391,-310.5 391,-310.5 391,-298.5 391,-298.5 391,-292.5 397,-286.5 403,-286.5 403,-286.5 699,-286.5 699,-286.5 705,-286.5 711,-292.5 711,-298.5 711,-298.5 711,-310.5 711,-310.5 711,-316.5 705,-322.5 699,-322.5"/>
<text text-anchor="middle" x="551" y="-308.1" font-family="Nunito" font-size="10.50">HTTP pipeline: request id, helmet, CORS, pino&#45;http log, rate limit,</text>
<text text-anchor="middle" x="551" y="-296.1" font-family="Nunito" font-size="10.50">JSON limit, signed file links, error envelope</text>
</g>
<!-- client&#45;&gt;pipeline -->
<g id="edge8" class="edge">
<title>client&#45;&gt;pipeline</title>
<path fill="none" stroke="#5b6776" stroke-dasharray="5,2" d="M638.87,-384.34C621.07,-368.36 594.46,-344.49 575.19,-327.2"/>
<polygon fill="#5b6776" stroke="#5b6776" points="576.81,-325.37 569.96,-322.51 573.54,-329.01 576.81,-325.37"/>
<text text-anchor="middle" x="661.5" y="-361.3" font-family="Nunito" font-size="9.00"> public approval link</text>
</g>
<!-- spa_ops -->
<g id="node4" class="node">
<title>spa_ops</title>
<path fill="#eaf6fd" stroke="#0065b3" d="M551.5,-491.5C551.5,-491.5 448.5,-491.5 448.5,-491.5 442.5,-491.5 436.5,-485.5 436.5,-479.5 436.5,-479.5 436.5,-459.5 436.5,-459.5 436.5,-453.5 442.5,-447.5 448.5,-447.5 448.5,-447.5 551.5,-447.5 551.5,-447.5 557.5,-447.5 563.5,-453.5 563.5,-459.5 563.5,-459.5 563.5,-479.5 563.5,-479.5 563.5,-485.5 557.5,-491.5 551.5,-491.5"/>
<text text-anchor="middle" x="500" y="-479.1" font-family="Nunito" font-size="10.50">Operations</text>
<text text-anchor="middle" x="500" y="-467.1" font-family="Nunito" font-size="10.50">leads, clients, quotation,</text>
<text text-anchor="middle" x="500" y="-455.1" font-family="Nunito" font-size="10.50">policy, claims, renewals</text>
</g>
<!-- spa_core -->
<g id="node8" class="node">
<title>spa_core</title>
<path fill="#ffffff" stroke="#0065b3" d="M498,-420.5C498,-420.5 200,-420.5 200,-420.5 194,-420.5 188,-414.5 188,-408.5 188,-408.5 188,-396.5 188,-396.5 188,-390.5 194,-384.5 200,-384.5 200,-384.5 498,-384.5 498,-384.5 504,-384.5 510,-390.5 510,-396.5 510,-396.5 510,-408.5 510,-408.5 510,-414.5 504,-420.5 498,-420.5"/>
<text text-anchor="middle" x="349" y="-406.1" font-family="Nunito" font-size="10.50">Shared front&#45;end services: API client + token refresh, route guard,</text>
<text text-anchor="middle" x="349" y="-394.1" font-family="Nunito" font-size="10.50">system settings / branding, i18n, dialogs and toasts</text>
</g>
<!-- spa_ops&#45;&gt;spa_core -->
<!-- spa_fin&#45;&gt;spa_core -->
<!-- spa_cfg -->
<g id="node6" class="node">
<title>spa_cfg</title>
<path fill="#eaf6fd" stroke="#0065b3" d="M250,-491.5C250,-491.5 160,-491.5 160,-491.5 154,-491.5 148,-485.5 148,-479.5 148,-479.5 148,-459.5 148,-459.5 148,-453.5 154,-447.5 160,-447.5 160,-447.5 250,-447.5 250,-447.5 256,-447.5 262,-453.5 262,-459.5 262,-459.5 262,-479.5 262,-479.5 262,-485.5 256,-491.5 250,-491.5"/>
<text text-anchor="middle" x="205" y="-479.1" font-family="Nunito" font-size="10.50">Product configurator,</text>
<text text-anchor="middle" x="205" y="-467.1" font-family="Nunito" font-size="10.50">reinsurance, reports,</text>
<text text-anchor="middle" x="205" y="-455.1" font-family="Nunito" font-size="10.50">dashboards</text>
</g>
<!-- spa_cfg&#45;&gt;spa_core -->
<!-- spa_adm -->
<g id="node7" class="node">
<title>spa_adm</title>
<path fill="#eaf6fd" stroke="#0065b3" d="M118,-491.5C118,-491.5 28,-491.5 28,-491.5 22,-491.5 16,-485.5 16,-479.5 16,-479.5 16,-459.5 16,-459.5 16,-453.5 22,-447.5 28,-447.5 28,-447.5 118,-447.5 118,-447.5 124,-447.5 130,-453.5 130,-459.5 130,-459.5 130,-479.5 130,-479.5 130,-485.5 124,-491.5 118,-491.5"/>
<text text-anchor="middle" x="73" y="-479.1" font-family="Nunito" font-size="10.50">Master / admin</text>
<text text-anchor="middle" x="73" y="-467.1" font-family="Nunito" font-size="10.50">users, roles, settings,</text>
<text text-anchor="middle" x="73" y="-455.1" font-family="Nunito" font-size="10.50">schedules, audit trail</text>
</g>
<!-- spa_adm&#45;&gt;spa_core -->
<!-- spa_core&#45;&gt;pipeline -->
<g id="edge7" class="edge">
<title>spa_core&#45;&gt;pipeline</title>
<path fill="none" stroke="#5b6776" d="M385.11,-384.34C403.39,-375.65 426.58,-364.63 449.78,-353.6"/>
<polygon fill="#5b6776" stroke="#5b6776" points="451.05,-355.71 456.32,-350.5 448.95,-351.29 451.05,-355.71"/>
<text text-anchor="middle" x="486.5" y="-361.3" font-family="Nunito" font-size="9.00"> HTTPS /api, JWT bearer</text>
</g>
<!-- modules -->
<g id="node10" class="node">
<title>modules</title>
<path fill="#eaf6fd" stroke="#0065b3" d="M648,-250.5C648,-250.5 288,-250.5 288,-250.5 282,-250.5 276,-244.5 276,-238.5 276,-238.5 276,-194.5 276,-194.5 276,-188.5 282,-182.5 288,-182.5 288,-182.5 648,-182.5 648,-182.5 654,-182.5 660,-188.5 660,-194.5 660,-194.5 660,-238.5 660,-238.5 660,-244.5 654,-250.5 648,-250.5"/>
<text text-anchor="middle" x="468" y="-238.1" font-family="Nunito" font-size="10.50">32 business modules (src/modules, 568 routes)</text>
<text text-anchor="middle" x="468" y="-226.1" font-family="Nunito" font-size="10.50">auth, users, leads, clients, quotations, policies, endorsements, claims, renewals,</text>
<text text-anchor="middle" x="468" y="-214.1" font-family="Nunito" font-size="10.50">receipts, collections, accounting, journal&#45;vouchers, disbursements, payments,</text>
<text text-anchor="middle" x="468" y="-202.1" font-family="Nunito" font-size="10.50">commission, remittance, reinsurance, incentive, product&#45;configurator, masters,</text>
<text text-anchor="middle" x="468" y="-190.1" font-family="Nunito" font-size="10.50">reports, dashboard, documents, uploads, notifications, schedules, ...</text>
</g>
<!-- pipeline&#45;&gt;modules -->
<g id="edge9" class="edge">
<title>pipeline&#45;&gt;modules</title>
<path fill="none" stroke="#5b6776" d="M534.2,-286.1C525.74,-277.32 515.11,-266.32 504.87,-255.7"/>
<polygon fill="#5b6776" stroke="#5b6776" points="506.51,-253.87 499.88,-250.53 502.98,-257.27 506.51,-253.87"/>
</g>
<!-- shared -->
<g id="node12" class="node">
<title>shared</title>
<path fill="#ffffff" stroke="#0065b3" d="M484,-155.5C484,-155.5 302,-155.5 302,-155.5 296,-155.5 290,-149.5 290,-143.5 290,-143.5 290,-111.5 290,-111.5 290,-105.5 296,-99.5 302,-99.5 302,-99.5 484,-99.5 484,-99.5 490,-99.5 496,-105.5 496,-111.5 496,-111.5 496,-143.5 496,-143.5 496,-149.5 490,-155.5 484,-155.5"/>
<text text-anchor="middle" x="393" y="-143.1" font-family="Nunito" font-size="10.50">Shared services (src/lib)</text>
<text text-anchor="middle" x="393" y="-131.1" font-family="Nunito" font-size="10.50">auth, permissions, record scope, registry,</text>
<text text-anchor="middle" x="393" y="-119.1" font-family="Nunito" font-size="10.50">settings cache, audit, numbering, outbox,</text>
<text text-anchor="middle" x="393" y="-107.1" font-family="Nunito" font-size="10.50">secrets, dates / money, validation</text>
</g>
<!-- modules&#45;&gt;shared -->
<g id="edge11" class="edge">
<title>modules&#45;&gt;shared</title>
<path fill="none" stroke="#5b6776" d="M439.22,-182.11C433.34,-175.3 427.17,-168.14 421.31,-161.34"/>
<polygon fill="#5b6776" stroke="#5b6776" points="422.91,-159.44 416.48,-155.74 419.19,-162.64 422.91,-159.44"/>
</g>
<!-- docs -->
<g id="node13" class="node">
<title>docs</title>
<path fill="#eaf6fd" stroke="#0065b3" d="M636,-149.5C636,-149.5 526,-149.5 526,-149.5 520,-149.5 514,-143.5 514,-137.5 514,-137.5 514,-117.5 514,-117.5 514,-111.5 520,-105.5 526,-105.5 526,-105.5 636,-105.5 636,-105.5 642,-105.5 648,-111.5 648,-117.5 648,-117.5 648,-137.5 648,-137.5 648,-143.5 642,-149.5 636,-149.5"/>
<text text-anchor="middle" x="581" y="-137.1" font-family="Nunito" font-size="10.50">Document engines</text>
<text text-anchor="middle" x="581" y="-125.1" font-family="Nunito" font-size="10.50">PDF / XLSX / CSV writers</text>
<text text-anchor="middle" x="581" y="-113.1" font-family="Nunito" font-size="10.50">(no external libraries)</text>
</g>
<!-- modules&#45;&gt;docs -->
<g id="edge12" class="edge">
<title>modules&#45;&gt;docs</title>
<path fill="none" stroke="#5b6776" d="M511.04,-182.36C523.15,-173.04 536.14,-163.04 547.59,-154.22"/>
<polygon fill="#5b6776" stroke="#5b6776" points="549.38,-155.94 553.43,-149.73 546.39,-152.05 549.38,-155.94"/>
</g>
<!-- sched -->
<g id="node11" class="node">
<title>sched</title>
<path fill="#eaf6fd" stroke="#0065b3" d="M361,-322.5C361,-322.5 239,-322.5 239,-322.5 233,-322.5 227,-316.5 227,-310.5 227,-310.5 227,-298.5 227,-298.5 227,-292.5 233,-286.5 239,-286.5 239,-286.5 361,-286.5 361,-286.5 367,-286.5 373,-292.5 373,-298.5 373,-298.5 373,-310.5 373,-310.5 373,-316.5 367,-322.5 361,-322.5"/>
<text text-anchor="middle" x="300" y="-308.1" font-family="Nunito" font-size="10.50">Scheduler (node&#45;cron)</text>
<text text-anchor="middle" x="300" y="-296.1" font-family="Nunito" font-size="10.50">9 jobs, advisory lock per run</text>
</g>
<!-- sched&#45;&gt;modules -->
<g id="edge10" class="edge">
<title>sched&#45;&gt;modules</title>
<path fill="none" stroke="#5b6776" d="M333.59,-286.3C351.81,-276.98 375.04,-265.09 397.05,-253.82"/>
<polygon fill="#5b6776" stroke="#5b6776" points="398.41,-255.88 403.52,-250.51 396.18,-251.51 398.41,-255.88"/>
<text text-anchor="middle" x="400" y="-266.3" font-family="Nunito" font-size="9.00"> job handlers</text>
</g>
<!-- db -->
<g id="node14" class="node">
<title>db</title>
<path fill="#ffffff" stroke="#0065b3" d="M370,-55.21C370,-58.27 339.97,-60.75 303,-60.75 266.03,-60.75 236,-58.27 236,-55.21 236,-55.21 236,-5.29 236,-5.29 236,-2.23 266.03,0.25 303,0.25 339.97,0.25 370,-2.23 370,-5.29 370,-5.29 370,-55.21 370,-55.21"/>
<path fill="none" stroke="#0065b3" d="M370,-55.21C370,-52.15 339.97,-49.66 303,-49.66 266.03,-49.66 236,-52.15 236,-55.21"/>
<text text-anchor="middle" x="303" y="-39.85" font-family="Nunito" font-size="10.50">PostgreSQL 16</text>
<text text-anchor="middle" x="303" y="-27.85" font-family="Nunito" font-size="10.50">102 tables, 32 migrations</text>
<text text-anchor="middle" x="303" y="-15.85" font-family="Nunito" font-size="10.50">(RDS Multi&#45;AZ target)</text>
</g>
<!-- shared&#45;&gt;db -->
<g id="edge13" class="edge">
<title>shared&#45;&gt;db</title>
<path fill="none" stroke="#5b6776" d="M366.94,-99.24C361.97,-94.02 356.82,-88.6 352,-83.5 346.64,-77.83 340.96,-71.79 335.44,-65.92"/>
<polygon fill="#5b6776" stroke="#5b6776" points="337.01,-64.01 330.43,-60.58 333.43,-67.36 337.01,-64.01"/>
<text text-anchor="middle" x="378.5" y="-76.3" font-family="Nunito" font-size="9.00"> pg pool (10)</text>
</g>
<!-- smtp -->
<g id="node16" class="node">
<title>smtp</title>
<polygon fill="#ffffff" stroke="#0065b3" points="463.5,-48.25 388.5,-48.25 388.5,-44.25 384.5,-44.25 384.5,-40.25 388.5,-40.25 388.5,-20.25 384.5,-20.25 384.5,-16.25 388.5,-16.25 388.5,-12.25 463.5,-12.25 463.5,-48.25"/>
<polyline fill="none" stroke="#0065b3" points="388.5,-44.25 392.5,-44.25 392.5,-40.25 388.5,-40.25 "/>
<polyline fill="none" stroke="#0065b3" points="388.5,-20.25 392.5,-20.25 392.5,-16.25 388.5,-16.25 "/>
<text text-anchor="middle" x="426" y="-33.85" font-family="Nunito" font-size="10.50">SMTP server</text>
<text text-anchor="middle" x="426" y="-21.85" font-family="Nunito" font-size="10.50">(SMTP_URL)</text>
</g>
<!-- shared&#45;&gt;smtp -->
<g id="edge15" class="edge">
<title>shared&#45;&gt;smtp</title>
<path fill="none" stroke="#5b6776" stroke-dasharray="5,2" d="M402.37,-99.46C407.2,-85.5 413.05,-68.62 417.72,-55.15"/>
<polygon fill="#5b6776" stroke="#5b6776" points="420.07,-55.86 420.04,-48.45 415.44,-54.26 420.07,-55.86"/>
<text text-anchor="middle" x="434" y="-76.3" font-family="Nunito" font-size="9.00"> outbox job</text>
</g>
<!-- files -->
<g id="node15" class="node">
<title>files</title>
<polygon fill="#ffffff" stroke="#0065b3" points="647,-52.25 644,-56.25 623,-56.25 620,-52.25 515,-52.25 515,-8.25 647,-8.25 647,-52.25"/>
<text text-anchor="middle" x="581" y="-39.85" font-family="Nunito" font-size="10.50">File store (UPLOAD_DIR)</text>
<text text-anchor="middle" x="581" y="-27.85" font-family="Nunito" font-size="10.50">uploads, photos, reports</text>
<text text-anchor="middle" x="581" y="-15.85" font-family="Nunito" font-size="10.50">(EFS target)</text>
</g>
<!-- docs&#45;&gt;files -->
<g id="edge14" class="edge">
<title>docs&#45;&gt;files</title>
<path fill="none" stroke="#5b6776" d="M581,-105.36C581,-91.92 581,-74.35 581,-59.69"/>
<polygon fill="#5b6776" stroke="#5b6776" points="583.45,-59.33 581,-52.33 578.55,-59.33 583.45,-59.33"/>
</g>
</g>
</svg>
