<?xml version="1.0" encoding="UTF-8" standalone="no"?>
<!DOCTYPE svg PUBLIC "-//W3C//DTD SVG 1.1//EN"
 "http://www.w3.org/Graphics/SVG/1.1/DTD/svg11.dtd">
<!-- Generated by graphviz version 2.43.0 (0)
 -->
<!-- Title: G Pages: 1 -->
<svg width="358pt" height="569pt"
 viewBox="0.00 0.00 357.80 568.80" xmlns="http://www.w3.org/2000/svg" xmlns:xlink="http://www.w3.org/1999/xlink">
<g id="graph0" class="graph" transform="scale(1 1) rotate(0) translate(14.4 554.4)">
<title>G</title>
<polygon fill="white" stroke="transparent" points="-14.4,14.4 -14.4,-554.4 343.4,-554.4 343.4,14.4 -14.4,14.4"/>
<!-- a -->
<g id="node1" class="node">
<title>a</title>
<path fill="#eaf6fd" stroke="#0065b3" d="M311.5,-540C311.5,-540 17.5,-540 17.5,-540 11.5,-540 5.5,-534 5.5,-528 5.5,-528 5.5,-516 5.5,-516 5.5,-510 11.5,-504 17.5,-504 17.5,-504 311.5,-504 311.5,-504 317.5,-504 323.5,-510 323.5,-516 323.5,-516 323.5,-528 323.5,-528 323.5,-534 317.5,-540 311.5,-540"/>
<text text-anchor="middle" x="164.5" y="-519.5" font-family="Nunito" font-size="10.00">1. requestId: x&#45;request&#45;id (caller&#39;s or UUID), echoed on the response</text>
</g>
<!-- b -->
<g id="node2" class="node">
<title>b</title>
<path fill="#eaf6fd" stroke="#0065b3" d="M275,-484C275,-484 54,-484 54,-484 48,-484 42,-478 42,-472 42,-472 42,-460 42,-460 42,-454 48,-448 54,-448 54,-448 275,-448 275,-448 281,-448 287,-454 287,-460 287,-460 287,-472 287,-472 287,-478 281,-484 275,-484"/>
<text text-anchor="middle" x="164.5" y="-463.5" font-family="Nunito" font-size="10.00">2. helmet security headers; CORS (CORS_ORIGINS)</text>
</g>
<!-- a&#45;&gt;b -->
<g id="edge1" class="edge">
<title>a&#45;&gt;b</title>
<path fill="none" stroke="#5b6776" d="M164.5,-503.91C164.5,-499.58 164.5,-494.85 164.5,-490.27"/>
<polygon fill="#5b6776" stroke="#5b6776" points="166.6,-490.16 164.5,-484.16 162.4,-490.16 166.6,-490.16"/>
</g>
<!-- c -->
<g id="node3" class="node">
<title>c</title>
<path fill="#eaf6fd" stroke="#0065b3" d="M270,-428C270,-428 59,-428 59,-428 53,-428 47,-422 47,-416 47,-416 47,-404 47,-404 47,-398 53,-392 59,-392 59,-392 270,-392 270,-392 276,-392 282,-398 282,-404 282,-404 282,-416 282,-416 282,-422 276,-428 270,-428"/>
<text text-anchor="middle" x="164.5" y="-413" font-family="Nunito" font-size="10.00">3. pino&#45;http access log (redacted: Authorization,</text>
<text text-anchor="middle" x="164.5" y="-402" font-family="Nunito" font-size="10.00">cookies, passwords, token / sig query parameters)</text>
</g>
<!-- b&#45;&gt;c -->
<g id="edge2" class="edge">
<title>b&#45;&gt;c</title>
<path fill="none" stroke="#5b6776" d="M164.5,-447.91C164.5,-443.58 164.5,-438.85 164.5,-434.27"/>
<polygon fill="#5b6776" stroke="#5b6776" points="166.6,-434.16 164.5,-428.16 162.4,-434.16 166.6,-434.16"/>
</g>
<!-- d -->
<g id="node4" class="node">
<title>d</title>
<path fill="#eaf6fd" stroke="#0065b3" d="M279.5,-372C279.5,-372 49.5,-372 49.5,-372 43.5,-372 37.5,-366 37.5,-360 37.5,-360 37.5,-348 37.5,-348 37.5,-342 43.5,-336 49.5,-336 49.5,-336 279.5,-336 279.5,-336 285.5,-336 291.5,-342 291.5,-348 291.5,-348 291.5,-360 291.5,-360 291.5,-366 285.5,-372 279.5,-372"/>
<text text-anchor="middle" x="164.5" y="-357" font-family="Nunito" font-size="10.00">4. Global rate limit: per user (valid bearer) or per IP,</text>
<text text-anchor="middle" x="164.5" y="-346" font-family="Nunito" font-size="10.00">security.api_rate_limit = 600 / 60 s, 429 + Retry&#45;After</text>
</g>
<!-- c&#45;&gt;d -->
<g id="edge3" class="edge">
<title>c&#45;&gt;d</title>
<path fill="none" stroke="#5b6776" d="M164.5,-391.91C164.5,-387.58 164.5,-382.85 164.5,-378.27"/>
<polygon fill="#5b6776" stroke="#5b6776" points="166.6,-378.16 164.5,-372.16 162.4,-378.16 166.6,-378.16"/>
</g>
<!-- e -->
<g id="node5" class="node">
<title>e</title>
<path fill="#eaf6fd" stroke="#0065b3" d="M315.5,-316C315.5,-316 13.5,-316 13.5,-316 7.5,-316 1.5,-310 1.5,-304 1.5,-304 1.5,-292 1.5,-292 1.5,-286 7.5,-280 13.5,-280 13.5,-280 315.5,-280 315.5,-280 321.5,-280 327.5,-286 327.5,-292 327.5,-292 327.5,-304 327.5,-304 327.5,-310 321.5,-316 315.5,-316"/>
<text text-anchor="middle" x="164.5" y="-301" font-family="Nunito" font-size="10.00">5. express.json (JSON_BODY_LIMIT 2 MB);</text>
<text text-anchor="middle" x="164.5" y="-290" font-family="Nunito" font-size="10.00">signFileLinks: HMAC&#45;sign every /api/s3/object URL in JSON responses</text>
</g>
<!-- d&#45;&gt;e -->
<g id="edge4" class="edge">
<title>d&#45;&gt;e</title>
<path fill="none" stroke="#5b6776" d="M164.5,-335.91C164.5,-331.58 164.5,-326.85 164.5,-322.27"/>
<polygon fill="#5b6776" stroke="#5b6776" points="166.6,-322.16 164.5,-316.16 162.4,-322.16 166.6,-322.16"/>
</g>
<!-- f -->
<g id="node6" class="node">
<title>f</title>
<path fill="#eaf6fd" stroke="#0065b3" d="M299.5,-260C299.5,-260 29.5,-260 29.5,-260 23.5,-260 17.5,-254 17.5,-248 17.5,-248 17.5,-236 17.5,-236 17.5,-230 23.5,-224 29.5,-224 29.5,-224 299.5,-224 299.5,-224 305.5,-224 311.5,-230 311.5,-236 311.5,-236 311.5,-248 311.5,-248 311.5,-254 305.5,-260 299.5,-260"/>
<text text-anchor="middle" x="164.5" y="-239.5" font-family="Nunito" font-size="10.00">6. /api/health, /api/health/live (no auth, not logged, not limited)</text>
</g>
<!-- e&#45;&gt;f -->
<g id="edge5" class="edge">
<title>e&#45;&gt;f</title>
<path fill="none" stroke="#5b6776" d="M164.5,-279.91C164.5,-275.58 164.5,-270.85 164.5,-266.27"/>
<polygon fill="#5b6776" stroke="#5b6776" points="166.6,-266.16 164.5,-260.16 162.4,-266.16 166.6,-266.16"/>
</g>
<!-- g -->
<g id="node7" class="node">
<title>g</title>
<path fill="#eaf6fd" stroke="#0065b3" d="M296,-204C296,-204 33,-204 33,-204 27,-204 21,-198 21,-192 21,-192 21,-180 21,-180 21,-174 27,-168 33,-168 33,-168 296,-168 296,-168 302,-168 308,-174 308,-180 308,-180 308,-192 308,-192 308,-198 302,-204 296,-204"/>
<text text-anchor="middle" x="164.5" y="-189" font-family="Nunito" font-size="10.00">7. Module router (define()): requireAuth first unless auth:false</text>
<text text-anchor="middle" x="164.5" y="-178" font-family="Nunito" font-size="10.00">HS256 JWT, type=access, user active, token_version matches</text>
</g>
<!-- f&#45;&gt;g -->
<g id="edge6" class="edge">
<title>f&#45;&gt;g</title>
<path fill="none" stroke="#5b6776" d="M164.5,-223.91C164.5,-219.58 164.5,-214.85 164.5,-210.27"/>
<polygon fill="#5b6776" stroke="#5b6776" points="166.6,-210.16 164.5,-204.16 162.4,-210.16 166.6,-210.16"/>
</g>
<!-- h -->
<g id="node8" class="node">
<title>h</title>
<path fill="#eaf6fd" stroke="#0065b3" d="M311,-148C311,-148 18,-148 18,-148 12,-148 6,-142 6,-136 6,-136 6,-124 6,-124 6,-118 12,-112 18,-112 18,-112 311,-112 311,-112 317,-112 323,-118 323,-124 323,-124 323,-136 323,-136 323,-142 317,-148 311,-148"/>
<text text-anchor="middle" x="164.5" y="-133" font-family="Nunito" font-size="10.00">8. requirePermission / requireRole (admins it&#45;admin, ba pass)</text>
<text text-anchor="middle" x="164.5" y="-122" font-family="Nunito" font-size="10.00">ownRecord / scope: agents see only their own book (404 otherwise)</text>
</g>
<!-- g&#45;&gt;h -->
<g id="edge7" class="edge">
<title>g&#45;&gt;h</title>
<path fill="none" stroke="#5b6776" d="M164.5,-167.91C164.5,-163.58 164.5,-158.85 164.5,-154.27"/>
<polygon fill="#5b6776" stroke="#5b6776" points="166.6,-154.16 164.5,-148.16 162.4,-154.16 166.6,-154.16"/>
</g>
<!-- i -->
<g id="node9" class="node">
<title>i</title>
<path fill="#eaf6fd" stroke="#0065b3" d="M288,-92C288,-92 41,-92 41,-92 35,-92 29,-86 29,-80 29,-80 29,-68 29,-68 29,-62 35,-56 41,-56 41,-56 288,-56 288,-56 294,-56 300,-62 300,-68 300,-68 300,-80 300,-80 300,-86 294,-92 288,-92"/>
<text text-anchor="middle" x="164.5" y="-77" font-family="Nunito" font-size="10.00">9. multer memory upload limits; zod validate(); handler</text>
<text text-anchor="middle" x="164.5" y="-66" font-family="Nunito" font-size="10.00">(service + withTransaction), audit(req, ...) on every change</text>
</g>
<!-- h&#45;&gt;i -->
<g id="edge8" class="edge">
<title>h&#45;&gt;i</title>
<path fill="none" stroke="#5b6776" d="M164.5,-111.91C164.5,-107.58 164.5,-102.85 164.5,-98.27"/>
<polygon fill="#5b6776" stroke="#5b6776" points="166.6,-98.16 164.5,-92.16 162.4,-98.16 166.6,-98.16"/>
</g>
<!-- j -->
<g id="node10" class="node">
<title>j</title>
<path fill="#eaf6fd" stroke="#0065b3" d="M317,-36C317,-36 12,-36 12,-36 6,-36 0,-30 0,-24 0,-24 0,-12 0,-12 0,-6 6,0 12,0 12,0 317,0 317,0 323,0 329,-6 329,-12 329,-12 329,-24 329,-24 329,-30 323,-36 317,-36"/>
<text text-anchor="middle" x="164.5" y="-21" font-family="Nunito" font-size="10.00">10. Response envelope { success, message, data } or errorHandler:</text>
<text text-anchor="middle" x="164.5" y="-10" font-family="Nunito" font-size="10.00">4xx message kept; 5xx generic message + requestId (detail only in log)</text>
</g>
<!-- i&#45;&gt;j -->
<g id="edge9" class="edge">
<title>i&#45;&gt;j</title>
<path fill="none" stroke="#5b6776" d="M164.5,-55.91C164.5,-51.58 164.5,-46.85 164.5,-42.27"/>
<polygon fill="#5b6776" stroke="#5b6776" points="166.6,-42.16 164.5,-36.16 162.4,-42.16 166.6,-42.16"/>
</g>
</g>
</svg>
