<?xml version="1.0" encoding="UTF-8" standalone="no"?>
<!DOCTYPE svg PUBLIC "-//W3C//DTD SVG 1.1//EN"
 "http://www.w3.org/Graphics/SVG/1.1/DTD/svg11.dtd">
<!-- Generated by graphviz version 2.43.0 (0)
 -->
<!-- Title: ER Pages: 1 -->
<svg width="1016pt" height="307pt"
 viewBox="0.00 0.00 1015.80 306.80" xmlns="http://www.w3.org/2000/svg" xmlns:xlink="http://www.w3.org/1999/xlink">
<g id="graph0" class="graph" transform="scale(1 1) rotate(0) translate(14.4 292.4)">
<title>ER</title>
<polygon fill="white" stroke="transparent" points="-14.4,14.4 -14.4,-292.4 1001.4,-292.4 1001.4,14.4 -14.4,14.4"/>
<!-- commissions -->
<g id="node1" class="node">
<title>commissions</title>
<polygon fill="#0065b3" stroke="transparent" points="351,-154 351,-171 478,-171 478,-154 351,-154"/>
<text text-anchor="start" x="384" y="-161" font-family="Nunito" font-weight="bold" font-size="10.00" fill="white">commissions</text>
<text text-anchor="start" x="354" y="-144" font-family="Nunito" font-weight="bold" font-size="10.00">PK</text>
<text text-anchor="start" x="374" y="-143" font-family="Nunito" font-size="10.00">id</text>
<text text-anchor="start" x="354" y="-126" font-family="Nunito" font-size="10.00" fill="#0065b3">FK</text>
<text text-anchor="start" x="374" y="-127" font-family="Nunito" font-size="10.00">accrual_jv_id</text>
<text text-anchor="start" x="432" y="-127" font-family="Nunito" font-size="10.00" fill="#c0392b">*</text>
<text text-anchor="start" x="354" y="-109" font-family="Nunito" font-size="10.00" fill="#0065b3">FK</text>
<text text-anchor="start" x="374" y="-110" font-family="Nunito" font-size="10.00">agent_user_id</text>
<text text-anchor="start" x="438" y="-110" font-family="Nunito" font-size="10.00" fill="#c0392b">*</text>
<text text-anchor="start" x="443" y="-110" font-family="Nunito" font-size="10.00"> </text>
<text text-anchor="start" x="446" y="-110" font-family="Nunito" font-size="8.00" fill="#5b6776">→ users</text>
<text text-anchor="start" x="354" y="-92" font-family="Nunito" font-size="10.00" fill="#0065b3">FK</text>
<text text-anchor="start" x="374" y="-93" font-family="Nunito" font-size="10.00">disbursement_id</text>
<text text-anchor="start" x="449" y="-93" font-family="Nunito" font-size="10.00" fill="#c0392b">*</text>
<text text-anchor="start" x="354" y="-75" font-family="Nunito" font-size="10.00" fill="#0065b3">FK</text>
<text text-anchor="start" x="374" y="-76" font-family="Nunito" font-size="10.00">endorsement_id</text>
<text text-anchor="start" x="447" y="-76" font-family="Nunito" font-size="10.00" fill="#c0392b">*</text>
<text text-anchor="start" x="354" y="-58" font-family="Nunito" font-size="10.00" fill="#0065b3">FK</text>
<text text-anchor="start" x="374" y="-59" font-family="Nunito" font-size="10.00">payment_jv_id</text>
<text text-anchor="start" x="440" y="-59" font-family="Nunito" font-size="10.00" fill="#c0392b">*</text>
<text text-anchor="start" x="354" y="-41" font-family="Nunito" font-size="10.00" fill="#0065b3">FK</text>
<text text-anchor="start" x="374" y="-41" font-family="Nunito" font-size="10.00">policy_id</text>
<text text-anchor="start" x="354" y="-24" font-family="Nunito" font-size="10.00" fill="#0065b3">FK</text>
<text text-anchor="start" x="374" y="-25" font-family="Nunito" font-size="10.00">quote_id</text>
<text text-anchor="start" x="414" y="-25" font-family="Nunito" font-size="10.00" fill="#c0392b">*</text>
<text text-anchor="start" x="354" y="-7" font-family="Nunito" font-size="10.00" fill="#0065b3">FK</text>
<text text-anchor="start" x="374" y="-7" font-family="Nunito" font-size="10.00">referrer_id</text>
<polygon fill="none" stroke="#0065b3" points="349.5,0 349.5,-172 478.5,-172 478.5,0 349.5,0"/>
</g>
<!-- commission_referrers -->
<g id="node2" class="node">
<title>commission_referrers</title>
<polygon fill="#0065b3" stroke="transparent" points="1,-260 1,-277 203,-277 203,-260 1,-260"/>
<text text-anchor="start" x="51.5" y="-267" font-family="Nunito" font-weight="bold" font-size="10.00" fill="white">commission_referrers</text>
<text text-anchor="start" x="4" y="-250" font-family="Nunito" font-weight="bold" font-size="10.00">PK</text>
<text text-anchor="start" x="24" y="-249" font-family="Nunito" font-size="10.00">id</text>
<text text-anchor="start" x="4" y="-232" font-family="Nunito" font-size="10.00" fill="#0065b3">FK</text>
<text text-anchor="start" x="24" y="-233" font-family="Nunito" font-size="10.00">parent_referrer_id</text>
<text text-anchor="start" x="106" y="-233" font-family="Nunito" font-size="10.00" fill="#c0392b">*</text>
<text text-anchor="start" x="111" y="-233" font-family="Nunito" font-size="10.00"> </text>
<text text-anchor="start" x="114" y="-233" font-family="Nunito" font-size="8.00" fill="#5b6776">→ commission_referrers</text>
<text text-anchor="start" x="4" y="-215" font-family="Nunito" font-size="10.00" fill="#0065b3">FK</text>
<text text-anchor="start" x="24" y="-216" font-family="Nunito" font-size="10.00">user_id</text>
<text text-anchor="start" x="56" y="-216" font-family="Nunito" font-size="10.00" fill="#c0392b">*</text>
<text text-anchor="start" x="61" y="-216" font-family="Nunito" font-size="10.00"> </text>
<text text-anchor="start" x="64" y="-216" font-family="Nunito" font-size="8.00" fill="#5b6776">→ users</text>
<polygon fill="none" stroke="#0065b3" points="0,-208 0,-278 204,-278 204,-208 0,-208"/>
</g>
<!-- commission_referrers&#45;&gt;commissions -->
<g id="edge1" class="edge">
<title>commission_referrers&#45;&gt;commissions</title>
<path fill="none" stroke="#9fb3c8" stroke-width="1.1" d="M170.47,-207.98C221.56,-182.6 291.17,-148.02 342.89,-122.33"/>
<polygon fill="#9fb3c8" stroke="#9fb3c8" stroke-width="1.1" points="343.15,-122.2 350.82,-121.9 346.29,-120.64 349.42,-119.08 349.42,-119.08 349.42,-119.08 346.29,-120.64 348.02,-116.26 343.15,-122.2 343.15,-122.2"/>
</g>
<!-- incentive_programs -->
<g id="node3" class="node">
<title>incentive_programs</title>
<polygon fill="#0065b3" stroke="transparent" points="665,-216.5 665,-233.5 842,-233.5 842,-216.5 665,-216.5"/>
<text text-anchor="start" x="708" y="-223.5" font-family="Nunito" font-weight="bold" font-size="10.00" fill="white">incentive_programs</text>
<text text-anchor="start" x="668" y="-206.5" font-family="Nunito" font-weight="bold" font-size="10.00">PK</text>
<text text-anchor="start" x="688" y="-205.5" font-family="Nunito" font-size="10.00">id</text>
<text text-anchor="start" x="668" y="-188.5" font-family="Nunito" font-size="10.00" fill="#5b6776">{ }</text>
<text text-anchor="start" x="688" y="-188.5" font-family="Nunito" font-size="10.00" fill="#5b6776">applicable_to, structure, eligibility</text>
<polygon fill="none" stroke="#0065b3" points="663.5,-182 663.5,-235 842.5,-235 842.5,-182 663.5,-182"/>
</g>
<!-- incentive_results -->
<g id="node5" class="node">
<title>incentive_results</title>
<polygon fill="#0065b3" stroke="transparent" points="749,-94 749,-111 928,-111 928,-94 749,-94"/>
<text text-anchor="start" x="799" y="-101" font-family="Nunito" font-weight="bold" font-size="10.00" fill="white">incentive_results</text>
<text text-anchor="start" x="752" y="-84" font-family="Nunito" font-weight="bold" font-size="10.00">PK</text>
<text text-anchor="start" x="772" y="-83" font-family="Nunito" font-size="10.00">id</text>
<text text-anchor="start" x="752" y="-66" font-family="Nunito" font-size="10.00" fill="#5b6776">UK</text>
<text text-anchor="start" x="772" y="-66" font-family="Nunito" font-size="10.00">program_id, agent_user_id, period</text>
<text text-anchor="start" x="752" y="-49" font-family="Nunito" font-size="10.00" fill="#0065b3">FK</text>
<text text-anchor="start" x="772" y="-50" font-family="Nunito" font-size="10.00">agent_user_id </text>
<text text-anchor="start" x="838" y="-50" font-family="Nunito" font-size="8.00" fill="#5b6776">→ users</text>
<text text-anchor="start" x="752" y="-32" font-family="Nunito" font-size="10.00" fill="#0065b3">FK</text>
<text text-anchor="start" x="772" y="-33" font-family="Nunito" font-size="10.00">calculation_id</text>
<text text-anchor="start" x="834" y="-33" font-family="Nunito" font-size="10.00" fill="#c0392b">*</text>
<text text-anchor="start" x="752" y="-15" font-family="Nunito" font-size="10.00" fill="#0065b3">FK</text>
<text text-anchor="start" x="772" y="-15" font-family="Nunito" font-size="10.00">program_id</text>
<polygon fill="none" stroke="#0065b3" points="747.5,-8 747.5,-112 928.5,-112 928.5,-8 747.5,-8"/>
</g>
<!-- incentive_programs&#45;&gt;incentive_results -->
<g id="edge5" class="edge">
<title>incentive_programs&#45;&gt;incentive_results</title>
<path fill="none" stroke="#9fb3c8" stroke-width="1.1" d="M767.81,-181.98C778.02,-164.37 792.02,-140.24 804.83,-118.17"/>
<polygon fill="#9fb3c8" stroke="#9fb3c8" stroke-width="1.1" points="804.9,-118.06 811.13,-113.58 806.65,-115.03 808.41,-112 808.41,-112 808.41,-112 806.65,-115.03 805.68,-110.42 804.9,-118.06 804.9,-118.06"/>
</g>
<!-- incentive_calculations -->
<g id="node4" class="node">
<title>incentive_calculations</title>
<polygon fill="#0065b3" stroke="transparent" points="862,-250.5 862,-267.5 986,-267.5 986,-250.5 862,-250.5"/>
<text text-anchor="start" x="874" y="-257.5" font-family="Nunito" font-weight="bold" font-size="10.00" fill="white">incentive_calculations</text>
<text text-anchor="start" x="865" y="-240.5" font-family="Nunito" font-weight="bold" font-size="10.00">PK</text>
<text text-anchor="start" x="885" y="-239.5" font-family="Nunito" font-size="10.00">batch_id</text>
<text text-anchor="start" x="865" y="-222.5" font-family="Nunito" font-size="10.00" fill="#0065b3">FK</text>
<text text-anchor="start" x="885" y="-223.5" font-family="Nunito" font-size="10.00">approved_by</text>
<text text-anchor="start" x="945" y="-223.5" font-family="Nunito" font-size="10.00" fill="#c0392b">*</text>
<text text-anchor="start" x="950" y="-223.5" font-family="Nunito" font-size="10.00"> </text>
<text text-anchor="start" x="953" y="-223.5" font-family="Nunito" font-size="8.00" fill="#5b6776">→ users</text>
<text text-anchor="start" x="865" y="-205.5" font-family="Nunito" font-size="10.00" fill="#0065b3">FK</text>
<text text-anchor="start" x="885" y="-206.5" font-family="Nunito" font-size="10.00">created_by</text>
<text text-anchor="start" x="936" y="-206.5" font-family="Nunito" font-size="10.00" fill="#c0392b">*</text>
<text text-anchor="start" x="941" y="-206.5" font-family="Nunito" font-size="10.00"> </text>
<text text-anchor="start" x="944" y="-206.5" font-family="Nunito" font-size="8.00" fill="#5b6776">→ users</text>
<text text-anchor="start" x="865" y="-188.5" font-family="Nunito" font-size="10.00" fill="#0065b3">FK</text>
<text text-anchor="start" x="885" y="-189.5" font-family="Nunito" font-size="10.00">rejected_by</text>
<text text-anchor="start" x="938" y="-189.5" font-family="Nunito" font-size="10.00" fill="#c0392b">*</text>
<text text-anchor="start" x="943" y="-189.5" font-family="Nunito" font-size="10.00"> </text>
<text text-anchor="start" x="946" y="-189.5" font-family="Nunito" font-size="8.00" fill="#5b6776">→ users</text>
<text text-anchor="start" x="865" y="-171.5" font-family="Nunito" font-size="10.00" fill="#0065b3">FK</text>
<text text-anchor="start" x="885" y="-172.5" font-family="Nunito" font-size="10.00">submitted_by</text>
<text text-anchor="start" x="946" y="-172.5" font-family="Nunito" font-size="10.00" fill="#c0392b">*</text>
<text text-anchor="start" x="951" y="-172.5" font-family="Nunito" font-size="10.00"> </text>
<text text-anchor="start" x="954" y="-172.5" font-family="Nunito" font-size="8.00" fill="#5b6776">→ users</text>
<text text-anchor="start" x="865" y="-154.5" font-family="Nunito" font-size="10.00" fill="#5b6776">{ }</text>
<text text-anchor="start" x="885" y="-154.5" font-family="Nunito" font-size="10.00" fill="#5b6776">programs_included</text>
<polygon fill="none" stroke="#0065b3" points="861,-148 861,-269 987,-269 987,-148 861,-148"/>
</g>
<!-- incentive_calculations&#45;&gt;incentive_results -->
<g id="edge4" class="edge">
<title>incentive_calculations&#45;&gt;incentive_results</title>
<path fill="none" stroke="#9fb3c8" stroke-width="1.1" d="M889.02,-147.91C883.3,-138.17 877.38,-128.08 871.69,-118.39"/>
<polygon fill="#9fb3c8" stroke="#9fb3c8" stroke-width="1.1" points="871.53,-118.12 870.7,-110.49 869.76,-115.1 867.99,-112.08 867.99,-112.08 867.99,-112.08 869.76,-115.1 865.27,-113.68 871.53,-118.12 871.53,-118.12"/>
</g>
<!-- disbursements -->
<g id="node6" class="node">
<title>disbursements</title>
<path fill="none" stroke="#5b6776" stroke-dasharray="5,2" d="M292,-261C292,-261 234,-261 234,-261 228,-261 222,-255 222,-249 222,-249 222,-237 222,-237 222,-231 228,-225 234,-225 234,-225 292,-225 292,-225 298,-225 304,-231 304,-237 304,-237 304,-249 304,-249 304,-255 298,-261 292,-261"/>
<text text-anchor="middle" x="263" y="-240.5" font-family="Nunito" font-size="10.00" fill="#5b6776">disbursements</text>
</g>
<!-- disbursements&#45;&gt;commissions -->
<g id="edge2" class="edge">
<title>disbursements&#45;&gt;commissions</title>
<path fill="none" stroke="#9fb3c8" stroke-width="1.1" d="M279.74,-224.82C295.51,-208.63 320.23,-183.25 344.19,-158.66"/>
<polygon fill="#9fb3c8" stroke="#9fb3c8" stroke-width="1.1" points="344.4,-158.44 351.54,-155.63 346.84,-155.94 349.28,-153.43 349.28,-153.43 349.28,-153.43 346.84,-155.94 347.03,-151.23 344.4,-158.44 344.4,-158.44"/>
</g>
<!-- endorsements -->
<g id="node7" class="node">
<title>endorsements</title>
<path fill="none" stroke="#5b6776" stroke-dasharray="5,2" d="M390,-261C390,-261 334,-261 334,-261 328,-261 322,-255 322,-249 322,-249 322,-237 322,-237 322,-231 328,-225 334,-225 334,-225 390,-225 390,-225 396,-225 402,-231 402,-237 402,-237 402,-249 402,-249 402,-255 396,-261 390,-261"/>
<text text-anchor="middle" x="362" y="-240.5" font-family="Nunito" font-size="10.00" fill="#5b6776">endorsements</text>
</g>
<!-- endorsements&#45;&gt;commissions -->
<g id="edge3" class="edge">
<title>endorsements&#45;&gt;commissions</title>
<path fill="none" stroke="#9fb3c8" stroke-width="1.1" d="M367.76,-224.82C371.69,-213.13 377.21,-196.65 383.09,-179.13"/>
<polygon fill="#9fb3c8" stroke="#9fb3c8" stroke-width="1.1" points="383.22,-178.75 388.43,-173.11 384.33,-175.43 385.45,-172.11 385.45,-172.11 385.45,-172.11 384.33,-175.43 382.46,-171.11 383.22,-178.75 383.22,-178.75"/>
</g>
<!-- journal_vouchers -->
<g id="node8" class="node">
<title>journal_vouchers</title>
<path fill="none" stroke="#5b6776" stroke-dasharray="5,2" d="M500,-261C500,-261 432,-261 432,-261 426,-261 420,-255 420,-249 420,-249 420,-237 420,-237 420,-231 426,-225 432,-225 432,-225 500,-225 500,-225 506,-225 512,-231 512,-237 512,-237 512,-249 512,-249 512,-255 506,-261 500,-261"/>
<text text-anchor="middle" x="466" y="-240.5" font-family="Nunito" font-size="10.00" fill="#5b6776">journal_vouchers</text>
</g>
<!-- journal_vouchers&#45;&gt;commissions -->
<g id="edge6" class="edge">
<title>journal_vouchers&#45;&gt;commissions</title>
<path fill="none" stroke="#9fb3c8" stroke-width="1.1" d="M460.24,-224.82C456.31,-213.13 450.79,-196.65 444.91,-179.13"/>
<polygon fill="#9fb3c8" stroke="#9fb3c8" stroke-width="1.1" points="444.78,-178.75 445.54,-171.11 443.67,-175.43 442.55,-172.11 442.55,-172.11 442.55,-172.11 443.67,-175.43 439.57,-173.11 444.78,-178.75 444.78,-178.75"/>
</g>
<!-- policies -->
<g id="node9" class="node">
<title>policies</title>
<path fill="none" stroke="#5b6776" stroke-dasharray="5,2" d="M572,-261C572,-261 542,-261 542,-261 536,-261 530,-255 530,-249 530,-249 530,-237 530,-237 530,-231 536,-225 542,-225 542,-225 572,-225 572,-225 578,-225 584,-231 584,-237 584,-237 584,-249 584,-249 584,-255 578,-261 572,-261"/>
<text text-anchor="middle" x="557" y="-240.5" font-family="Nunito" font-size="10.00" fill="#5b6776">policies</text>
</g>
<!-- policies&#45;&gt;commissions -->
<g id="edge7" class="edge">
<title>policies&#45;&gt;commissions</title>
<path fill="none" stroke="#9fb3c8" stroke-width="1.1" d="M541.15,-224.82C526.95,-209.43 505.1,-185.74 483.48,-162.31"/>
<polygon fill="#9fb3c8" stroke="#9fb3c8" stroke-width="1.1" points="483.33,-162.15 480.9,-154.87 480.96,-159.58 478.59,-157.01 478.59,-157.01 478.59,-157.01 480.96,-159.58 476.27,-159.14 483.33,-162.15 483.33,-162.15"/>
</g>
<!-- quotes -->
<g id="node10" class="node">
<title>quotes</title>
<path fill="none" stroke="#5b6776" stroke-dasharray="5,2" d="M644,-261C644,-261 614,-261 614,-261 608,-261 602,-255 602,-249 602,-249 602,-237 602,-237 602,-231 608,-225 614,-225 614,-225 644,-225 644,-225 650,-225 656,-231 656,-237 656,-237 656,-249 656,-249 656,-255 650,-261 644,-261"/>
<text text-anchor="middle" x="629" y="-240.5" font-family="Nunito" font-size="10.00" fill="#5b6776">quotes</text>
</g>
<!-- quotes&#45;&gt;commissions -->
<g id="edge8" class="edge">
<title>quotes&#45;&gt;commissions</title>
<path fill="none" stroke="#9fb3c8" stroke-width="1.1" d="M611.94,-224.81C606.11,-219.23 599.44,-213.16 593,-208 558.83,-180.62 518.61,-153.05 484.95,-131.15"/>
<polygon fill="#9fb3c8" stroke="#9fb3c8" stroke-width="1.1" points="484.62,-130.94 480.46,-124.49 481.68,-129.04 478.74,-127.13 478.74,-127.13 478.74,-127.13 481.68,-129.04 477.03,-129.78 484.62,-130.94 484.62,-130.94"/>
</g>
</g>
</svg>
