<?xml version="1.0" encoding="UTF-8" standalone="no"?>
<!DOCTYPE svg PUBLIC "-//W3C//DTD SVG 1.1//EN"
 "http://www.w3.org/Graphics/SVG/1.1/DTD/svg11.dtd">
<!-- Generated by graphviz version 2.43.0 (0)
 -->
<!-- Title: ER Pages: 1 -->
<svg width="746pt" height="423pt"
 viewBox="0.00 0.00 746.30 422.80" xmlns="http://www.w3.org/2000/svg" xmlns:xlink="http://www.w3.org/1999/xlink">
<g id="graph0" class="graph" transform="scale(1 1) rotate(0) translate(14.4 408.4)">
<title>ER</title>
<polygon fill="white" stroke="transparent" points="-14.4,14.4 -14.4,-408.4 731.9,-408.4 731.9,14.4 -14.4,14.4"/>
<!-- fiscal_years -->
<g id="node1" class="node">
<title>fiscal_years</title>
<polygon fill="#0065b3" stroke="transparent" points="14.5,-278.5 14.5,-295.5 74.5,-295.5 74.5,-278.5 14.5,-278.5"/>
<text text-anchor="start" x="17.5" y="-285.5" font-family="Nunito" font-weight="bold" font-size="10.00" fill="white">fiscal_years</text>
<text text-anchor="start" x="17.5" y="-268.5" font-family="Nunito" font-weight="bold" font-size="10.00">PK</text>
<text text-anchor="start" x="43.5" y="-267.5" font-family="Nunito" font-size="10.00">code</text>
<polygon fill="none" stroke="#0065b3" points="13.5,-260.5 13.5,-296.5 75.5,-296.5 75.5,-260.5 13.5,-260.5"/>
</g>
<!-- year_end_runs -->
<g id="node9" class="node">
<title>year_end_runs</title>
<polygon fill="#0065b3" stroke="transparent" points="1.5,-180.5 1.5,-197.5 88.5,-197.5 88.5,-180.5 1.5,-180.5"/>
<text text-anchor="start" x="11" y="-187.5" font-family="Nunito" font-weight="bold" font-size="10.00" fill="white">year_end_runs</text>
<text text-anchor="start" x="4.5" y="-170.5" font-family="Nunito" font-weight="bold" font-size="10.00">PK</text>
<text text-anchor="start" x="24.5" y="-169.5" font-family="Nunito" font-size="10.00">id</text>
<text text-anchor="start" x="4.5" y="-152.5" font-family="Nunito" font-size="10.00" fill="#5b6776">UK</text>
<text text-anchor="start" x="24.5" y="-152.5" font-family="Nunito" font-size="10.00">run_number</text>
<text text-anchor="start" x="4.5" y="-135.5" font-family="Nunito" font-size="10.00" fill="#0065b3">FK</text>
<text text-anchor="start" x="24.5" y="-135.5" font-family="Nunito" font-size="10.00">closing_jv_id</text>
<text text-anchor="start" x="4.5" y="-118.5" font-family="Nunito" font-size="10.00" fill="#0065b3">FK</text>
<text text-anchor="start" x="24.5" y="-118.5" font-family="Nunito" font-size="10.00">fiscal_year</text>
<text text-anchor="start" x="4.5" y="-101.5" font-family="Nunito" font-size="10.00" fill="#0065b3">FK</text>
<text text-anchor="start" x="24.5" y="-101.5" font-family="Nunito" font-size="10.00">transfer_jv_id</text>
<text text-anchor="start" x="4.5" y="-84.5" font-family="Nunito" font-size="10.00" fill="#5b6776">{ }</text>
<text text-anchor="start" x="24.5" y="-84.5" font-family="Nunito" font-size="10.00" fill="#5b6776">checks</text>
<polygon fill="none" stroke="#0065b3" points="0,-78 0,-199 89,-199 89,-78 0,-78"/>
</g>
<!-- fiscal_years&#45;&gt;year_end_runs -->
<g id="edge2" class="edge">
<title>fiscal_years&#45;&gt;year_end_runs</title>
<path fill="none" stroke="#9fb3c8" stroke-width="1.1" d="M44.5,-260.3C44.5,-246.53 44.5,-226.28 44.5,-206.28"/>
<polygon fill="#9fb3c8" stroke="#9fb3c8" stroke-width="1.1" points="44.5,-206.23 47.65,-199.23 44.5,-202.73 44.5,-199.23 44.5,-199.23 44.5,-199.23 44.5,-202.73 41.35,-199.23 44.5,-206.23 44.5,-206.23"/>
</g>
<!-- period_status_history -->
<g id="node2" class="node">
<title>period_status_history</title>
<polygon fill="#0065b3" stroke="transparent" points="492.5,-235 492.5,-252 598.5,-252 598.5,-235 492.5,-235"/>
<text text-anchor="start" x="495.5" y="-242" font-family="Nunito" font-weight="bold" font-size="10.00" fill="white">period_status_history</text>
<text text-anchor="start" x="495.5" y="-225" font-family="Nunito" font-weight="bold" font-size="10.00">PK</text>
<text text-anchor="start" x="550.5" y="-224" font-family="Nunito" font-size="10.00">id</text>
<polygon fill="none" stroke="#0065b3" points="491.5,-217 491.5,-253 599.5,-253 599.5,-217 491.5,-217"/>
</g>
<!-- period_close_checklist -->
<g id="node3" class="node">
<title>period_close_checklist</title>
<polygon fill="#0065b3" stroke="transparent" points="608.5,-235 608.5,-252 716.5,-252 716.5,-235 608.5,-235"/>
<text text-anchor="start" x="611.5" y="-242" font-family="Nunito" font-weight="bold" font-size="10.00" fill="white">period_close_checklist</text>
<text text-anchor="start" x="611.5" y="-225" font-family="Nunito" font-weight="bold" font-size="10.00">PK</text>
<text text-anchor="start" x="661.5" y="-224" font-family="Nunito" font-size="10.00">code</text>
<polygon fill="none" stroke="#0065b3" points="607.5,-217 607.5,-253 717.5,-253 717.5,-217 607.5,-217"/>
</g>
<!-- period_close_runs -->
<g id="node4" class="node">
<title>period_close_runs</title>
<polygon fill="#0065b3" stroke="transparent" points="352.5,-303.5 352.5,-320.5 443.5,-320.5 443.5,-303.5 352.5,-303.5"/>
<text text-anchor="start" x="355.5" y="-310.5" font-family="Nunito" font-weight="bold" font-size="10.00" fill="white">period_close_runs</text>
<text text-anchor="start" x="355.5" y="-293.5" font-family="Nunito" font-weight="bold" font-size="10.00">PK</text>
<text text-anchor="start" x="380.5" y="-292.5" font-family="Nunito" font-size="10.00">id</text>
<text text-anchor="start" x="355.5" y="-275.5" font-family="Nunito" font-size="10.00" fill="#5b6776">UK</text>
<text text-anchor="start" x="380.5" y="-275.5" font-family="Nunito" font-size="10.00">run_number</text>
<text text-anchor="start" x="355.5" y="-258.5" font-family="Nunito" font-size="10.00" fill="#0065b3">FK</text>
<text text-anchor="start" x="380.5" y="-258.5" font-family="Nunito" font-size="10.00">period</text>
<text text-anchor="start" x="355.5" y="-241.5" font-family="Nunito" font-size="10.00" fill="#5b6776">{ }</text>
<text text-anchor="start" x="380.5" y="-241.5" font-family="Nunito" font-size="10.00" fill="#5b6776">steps</text>
<polygon fill="none" stroke="#0065b3" points="351,-235 351,-322 444,-322 444,-235 351,-235"/>
</g>
<!-- period_close_run_checks -->
<g id="node5" class="node">
<title>period_close_run_checks</title>
<polygon fill="#0065b3" stroke="transparent" points="361.5,-163.5 361.5,-180.5 482.5,-180.5 482.5,-163.5 361.5,-163.5"/>
<text text-anchor="start" x="364.5" y="-170.5" font-family="Nunito" font-weight="bold" font-size="10.00" fill="white">period_close_run_checks</text>
<text text-anchor="start" x="364.5" y="-153.5" font-family="Nunito" font-weight="bold" font-size="10.00">PK</text>
<text text-anchor="start" x="404.5" y="-152.5" font-family="Nunito" font-size="10.00">id</text>
<text text-anchor="start" x="364.5" y="-135.5" font-family="Nunito" font-size="10.00" fill="#5b6776">UK</text>
<text text-anchor="start" x="404.5" y="-135.5" font-family="Nunito" font-size="10.00">run_id, code</text>
<text text-anchor="start" x="364.5" y="-118.5" font-family="Nunito" font-size="10.00" fill="#0065b3">FK</text>
<text text-anchor="start" x="404.5" y="-118.5" font-family="Nunito" font-size="10.00">run_id</text>
<text text-anchor="start" x="364.5" y="-101.5" font-family="Nunito" font-size="10.00" fill="#5b6776">{ }</text>
<text text-anchor="start" x="404.5" y="-101.5" font-family="Nunito" font-size="10.00" fill="#5b6776">detail</text>
<polygon fill="none" stroke="#0065b3" points="360,-95 360,-182 483,-182 483,-95 360,-95"/>
</g>
<!-- period_close_runs&#45;&gt;period_close_run_checks -->
<g id="edge7" class="edge">
<title>period_close_runs&#45;&gt;period_close_run_checks</title>
<path fill="none" stroke="#9fb3c8" stroke-width="1.1" d="M404.9,-234.97C407.41,-220.54 410.23,-204.29 412.83,-189.35"/>
<polygon fill="#9fb3c8" stroke="#9fb3c8" stroke-width="1.1" points="412.89,-189.02 417.19,-182.67 413.49,-185.58 414.09,-182.13 414.09,-182.13 414.09,-182.13 413.49,-185.58 410.98,-181.59 412.89,-189.02 412.89,-189.02"/>
</g>
<!-- period_close_entries -->
<g id="node6" class="node">
<title>period_close_entries</title>
<polygon fill="#0065b3" stroke="transparent" points="240.5,-163.5 240.5,-180.5 340.5,-180.5 340.5,-163.5 240.5,-163.5"/>
<text text-anchor="start" x="243.5" y="-170.5" font-family="Nunito" font-weight="bold" font-size="10.00" fill="white">period_close_entries</text>
<text text-anchor="start" x="243.5" y="-153.5" font-family="Nunito" font-weight="bold" font-size="10.00">PK</text>
<text text-anchor="start" x="269.5" y="-152.5" font-family="Nunito" font-size="10.00">id</text>
<text text-anchor="start" x="243.5" y="-135.5" font-family="Nunito" font-size="10.00" fill="#0065b3">FK</text>
<text text-anchor="start" x="269.5" y="-135.5" font-family="Nunito" font-size="10.00">jv_id</text>
<text text-anchor="start" x="243.5" y="-118.5" font-family="Nunito" font-size="10.00" fill="#0065b3">FK</text>
<text text-anchor="start" x="269.5" y="-118.5" font-family="Nunito" font-size="10.00">reversal_jv_id</text>
<text text-anchor="start" x="243.5" y="-101.5" font-family="Nunito" font-size="10.00" fill="#0065b3">FK</text>
<text text-anchor="start" x="269.5" y="-101.5" font-family="Nunito" font-size="10.00">run_id</text>
<polygon fill="none" stroke="#0065b3" points="239.5,-95 239.5,-182 341.5,-182 341.5,-95 239.5,-95"/>
</g>
<!-- period_close_runs&#45;&gt;period_close_entries -->
<g id="edge6" class="edge">
<title>period_close_runs&#45;&gt;period_close_entries</title>
<path fill="none" stroke="#9fb3c8" stroke-width="1.1" d="M364.52,-234.97C352.93,-220.02 339.82,-203.11 327.89,-187.72"/>
<polygon fill="#9fb3c8" stroke="#9fb3c8" stroke-width="1.1" points="327.84,-187.66 326.04,-180.2 325.7,-184.89 323.55,-182.13 323.55,-182.13 323.55,-182.13 325.7,-184.89 321.06,-184.06 327.84,-187.66 327.84,-187.66"/>
</g>
<!-- recurring_journals -->
<g id="node7" class="node">
<title>recurring_journals</title>
<polygon fill="#0065b3" stroke="transparent" points="107.5,-295.5 107.5,-312.5 198.5,-312.5 198.5,-295.5 107.5,-295.5"/>
<text text-anchor="start" x="110.5" y="-302.5" font-family="Nunito" font-weight="bold" font-size="10.00" fill="white">recurring_journals</text>
<text text-anchor="start" x="110.5" y="-285.5" font-family="Nunito" font-weight="bold" font-size="10.00">PK</text>
<text text-anchor="start" x="151.5" y="-284.5" font-family="Nunito" font-size="10.00">id</text>
<text text-anchor="start" x="110.5" y="-267.5" font-family="Nunito" font-size="10.00" fill="#5b6776">UK</text>
<text text-anchor="start" x="151.5" y="-267.5" font-family="Nunito" font-size="10.00">code</text>
<text text-anchor="start" x="110.5" y="-250.5" font-family="Nunito" font-size="10.00" fill="#5b6776">{ }</text>
<text text-anchor="start" x="151.5" y="-250.5" font-family="Nunito" font-size="10.00" fill="#5b6776">lines</text>
<polygon fill="none" stroke="#0065b3" points="106,-243.5 106,-313.5 199,-313.5 199,-243.5 106,-243.5"/>
</g>
<!-- recurring_journal_runs -->
<g id="node8" class="node">
<title>recurring_journal_runs</title>
<polygon fill="#0065b3" stroke="transparent" points="108.5,-155.5 108.5,-172.5 220.5,-172.5 220.5,-155.5 108.5,-155.5"/>
<text text-anchor="start" x="111.5" y="-162.5" font-family="Nunito" font-weight="bold" font-size="10.00" fill="white">recurring_journal_runs</text>
<text text-anchor="start" x="111.5" y="-145.5" font-family="Nunito" font-weight="bold" font-size="10.00">PK</text>
<text text-anchor="start" x="146.5" y="-144.5" font-family="Nunito" font-size="10.00">id</text>
<text text-anchor="start" x="111.5" y="-127.5" font-family="Nunito" font-size="10.00" fill="#0065b3">FK</text>
<text text-anchor="start" x="146.5" y="-127.5" font-family="Nunito" font-size="10.00">jv_id</text>
<text text-anchor="start" x="111.5" y="-110.5" font-family="Nunito" font-size="10.00" fill="#0065b3">FK</text>
<text text-anchor="start" x="146.5" y="-110.5" font-family="Nunito" font-size="10.00">recurring_id</text>
<polygon fill="none" stroke="#0065b3" points="107.5,-103.5 107.5,-173.5 221.5,-173.5 221.5,-103.5 107.5,-103.5"/>
</g>
<!-- recurring_journals&#45;&gt;recurring_journal_runs -->
<g id="edge8" class="edge">
<title>recurring_journals&#45;&gt;recurring_journal_runs</title>
<path fill="none" stroke="#9fb3c8" stroke-width="1.1" d="M155.47,-243.39C157.11,-224.48 159.17,-200.83 160.9,-180.87"/>
<polygon fill="#9fb3c8" stroke="#9fb3c8" stroke-width="1.1" points="160.92,-180.67 164.66,-173.97 161.22,-177.19 161.53,-173.7 161.53,-173.7 161.53,-173.7 161.22,-177.19 158.39,-173.43 160.92,-180.67 160.92,-180.67"/>
</g>
<!-- opening_balances -->
<g id="node10" class="node">
<title>opening_balances</title>
<polygon fill="#0065b3" stroke="transparent" points="196.5,-42.5 196.5,-59.5 286.5,-59.5 286.5,-42.5 196.5,-42.5"/>
<text text-anchor="start" x="199.5" y="-49.5" font-family="Nunito" font-weight="bold" font-size="10.00" fill="white">opening_balances</text>
<text text-anchor="start" x="199.5" y="-32.5" font-family="Nunito" font-weight="bold" font-size="10.00">PK</text>
<text text-anchor="start" x="220.5" y="-31.5" font-family="Nunito" font-size="10.00">fiscal_year</text>
<text text-anchor="start" x="199.5" y="-15.5" font-family="Nunito" font-weight="bold" font-size="10.00">PK</text>
<text text-anchor="start" x="220.5" y="-14.5" font-family="Nunito" font-size="10.00">account_code</text>
<polygon fill="none" stroke="#0065b3" points="195.5,-8 195.5,-61 287.5,-61 287.5,-8 195.5,-8"/>
</g>
<!-- tax_codes -->
<g id="node11" class="node">
<title>tax_codes</title>
<polygon fill="#0065b3" stroke="transparent" points="519.5,-35 519.5,-52 571.5,-52 571.5,-35 519.5,-35"/>
<text text-anchor="start" x="522.5" y="-42" font-family="Nunito" font-weight="bold" font-size="10.00" fill="white">tax_codes</text>
<text text-anchor="start" x="522.5" y="-25" font-family="Nunito" font-weight="bold" font-size="10.00">PK</text>
<text text-anchor="start" x="544.5" y="-24" font-family="Nunito" font-size="10.00">code</text>
<polygon fill="none" stroke="#0065b3" points="518.5,-17 518.5,-53 572.5,-53 572.5,-17 518.5,-17"/>
</g>
<!-- bir_2307_certificates -->
<g id="node12" class="node">
<title>bir_2307_certificates</title>
<polygon fill="#0065b3" stroke="transparent" points="611.5,-52 611.5,-69 714.5,-69 714.5,-52 611.5,-52"/>
<text text-anchor="start" x="614.5" y="-59" font-family="Nunito" font-weight="bold" font-size="10.00" fill="white">bir_2307_certificates</text>
<text text-anchor="start" x="614.5" y="-42" font-family="Nunito" font-weight="bold" font-size="10.00">PK</text>
<text text-anchor="start" x="643.5" y="-41" font-family="Nunito" font-size="10.00">id</text>
<text text-anchor="start" x="614.5" y="-24" font-family="Nunito" font-size="10.00" fill="#5b6776">UK</text>
<text text-anchor="start" x="643.5" y="-24" font-family="Nunito" font-size="10.00">cert_number</text>
<text text-anchor="start" x="614.5" y="-7" font-family="Nunito" font-size="10.00" fill="#5b6776">{ }</text>
<text text-anchor="start" x="643.5" y="-7" font-family="Nunito" font-size="10.00" fill="#5b6776">lines</text>
<polygon fill="none" stroke="#0065b3" points="610,0 610,-70 715,-70 715,0 610,0"/>
</g>
<!-- accounting_periods -->
<g id="node13" class="node">
<title>accounting_periods</title>
<path fill="none" stroke="#5b6776" stroke-dasharray="5,2" d="M437.5,-394C437.5,-394 357.5,-394 357.5,-394 351.5,-394 345.5,-388 345.5,-382 345.5,-382 345.5,-370 345.5,-370 345.5,-364 351.5,-358 357.5,-358 357.5,-358 437.5,-358 437.5,-358 443.5,-358 449.5,-364 449.5,-370 449.5,-370 449.5,-382 449.5,-382 449.5,-388 443.5,-394 437.5,-394"/>
<text text-anchor="middle" x="397.5" y="-373.5" font-family="Nunito" font-size="10.00" fill="#5b6776">accounting_periods</text>
</g>
<!-- accounting_periods&#45;&gt;period_close_runs -->
<g id="edge1" class="edge">
<title>accounting_periods&#45;&gt;period_close_runs</title>
<path fill="none" stroke="#9fb3c8" stroke-width="1.1" d="M397.5,-357.93C397.5,-349.82 397.5,-339.66 397.5,-329.38"/>
<polygon fill="#9fb3c8" stroke="#9fb3c8" stroke-width="1.1" points="397.5,-329.26 400.65,-322.26 397.5,-325.76 397.5,-322.26 397.5,-322.26 397.5,-322.26 397.5,-325.76 394.35,-322.26 397.5,-329.26 397.5,-329.26"/>
</g>
<!-- journal_vouchers -->
<g id="node14" class="node">
<title>journal_vouchers</title>
<path fill="none" stroke="#5b6776" stroke-dasharray="5,2" d="M297.5,-296.5C297.5,-296.5 229.5,-296.5 229.5,-296.5 223.5,-296.5 217.5,-290.5 217.5,-284.5 217.5,-284.5 217.5,-272.5 217.5,-272.5 217.5,-266.5 223.5,-260.5 229.5,-260.5 229.5,-260.5 297.5,-260.5 297.5,-260.5 303.5,-260.5 309.5,-266.5 309.5,-272.5 309.5,-272.5 309.5,-284.5 309.5,-284.5 309.5,-290.5 303.5,-296.5 297.5,-296.5"/>
<text text-anchor="middle" x="263.5" y="-276" font-family="Nunito" font-size="10.00" fill="#5b6776">journal_vouchers</text>
</g>
<!-- journal_vouchers&#45;&gt;period_close_entries -->
<g id="edge3" class="edge">
<title>journal_vouchers&#45;&gt;period_close_entries</title>
<path fill="none" stroke="#9fb3c8" stroke-width="1.1" d="M266.86,-260.3C270.34,-242.54 275.93,-213.97 280.8,-189.08"/>
<polygon fill="#9fb3c8" stroke="#9fb3c8" stroke-width="1.1" points="280.81,-189.04 285.24,-182.77 281.48,-185.6 282.15,-182.17 282.15,-182.17 282.15,-182.17 281.48,-185.6 279.06,-181.56 280.81,-189.04 280.81,-189.04"/>
</g>
<!-- journal_vouchers&#45;&gt;recurring_journal_runs -->
<g id="edge4" class="edge">
<title>journal_vouchers&#45;&gt;recurring_journal_runs</title>
<path fill="none" stroke="#9fb3c8" stroke-width="1.1" d="M251.16,-260.3C236.75,-240.22 212.45,-206.33 193.23,-179.55"/>
<polygon fill="#9fb3c8" stroke="#9fb3c8" stroke-width="1.1" points="193.05,-179.3 191.53,-171.77 191.01,-176.45 188.97,-173.61 188.97,-173.61 188.97,-173.61 191.01,-176.45 186.41,-175.45 193.05,-179.3 193.05,-179.3"/>
</g>
<!-- journal_vouchers&#45;&gt;year_end_runs -->
<g id="edge5" class="edge">
<title>journal_vouchers&#45;&gt;year_end_runs</title>
<path fill="none" stroke="#9fb3c8" stroke-width="1.1" d="M244.37,-260.45C234.02,-251.91 220.68,-241.93 207.5,-235 162.34,-211.26 141.28,-226.81 98.5,-199 97.32,-198.23 96.14,-197.43 94.98,-196.6"/>
<polygon fill="#9fb3c8" stroke="#9fb3c8" stroke-width="1.1" points="94.81,-196.47 91.15,-189.72 92.03,-194.35 89.24,-192.23 89.24,-192.23 89.24,-192.23 92.03,-194.35 87.33,-194.73 94.81,-196.47 94.81,-196.47"/>
</g>
</g>
</svg>
