<?xml version="1.0" encoding="UTF-8" standalone="no"?>
<!DOCTYPE svg PUBLIC "-//W3C//DTD SVG 1.1//EN"
 "http://www.w3.org/Graphics/SVG/1.1/DTD/svg11.dtd">
<!-- Generated by graphviz version 2.43.0 (0)
 -->
<!-- Title: ER Pages: 1 -->
<svg width="1737pt" height="502pt"
 viewBox="0.00 0.00 1737.30 501.80" xmlns="http://www.w3.org/2000/svg" xmlns:xlink="http://www.w3.org/1999/xlink">
<g id="graph0" class="graph" transform="scale(1 1) rotate(0) translate(14.4 487.4)">
<title>ER</title>
<polygon fill="white" stroke="transparent" points="-14.4,14.4 -14.4,-487.4 1722.9,-487.4 1722.9,14.4 -14.4,14.4"/>
<!-- remittances -->
<g id="node1" class="node">
<title>remittances</title>
<polygon fill="#0065b3" stroke="transparent" points="291.5,-383 291.5,-400 418.5,-400 418.5,-383 291.5,-383"/>
<text text-anchor="start" x="327.5" y="-390" font-family="Nunito" font-weight="bold" font-size="10.00" fill="white">remittances</text>
<text text-anchor="start" x="294.5" y="-373" font-family="Nunito" font-weight="bold" font-size="10.00">PK</text>
<text text-anchor="start" x="314.5" y="-372" font-family="Nunito" font-size="10.00">id</text>
<text text-anchor="start" x="294.5" y="-355" font-family="Nunito" font-size="10.00" fill="#5b6776">UK</text>
<text text-anchor="start" x="314.5" y="-355" font-family="Nunito" font-size="10.00">remittance_number</text>
<text text-anchor="start" x="294.5" y="-338" font-family="Nunito" font-size="10.00" fill="#0065b3">FK</text>
<text text-anchor="start" x="314.5" y="-339" font-family="Nunito" font-size="10.00">agent_user_id </text>
<text text-anchor="start" x="380.5" y="-339" font-family="Nunito" font-size="8.00" fill="#5b6776">→ users</text>
<text text-anchor="start" x="294.5" y="-321" font-family="Nunito" font-size="10.00" fill="#0065b3">FK</text>
<text text-anchor="start" x="314.5" y="-321" font-family="Nunito" font-size="10.00">insurance_company_id</text>
<text text-anchor="start" x="294.5" y="-304" font-family="Nunito" font-size="10.00" fill="#5b6776">{ }</text>
<text text-anchor="start" x="314.5" y="-304" font-family="Nunito" font-size="10.00" fill="#5b6776">delivery_method, data</text>
<polygon fill="none" stroke="#0065b3" points="290,-297 290,-401 419,-401 419,-297 290,-297"/>
</g>
<!-- remittance_lines -->
<g id="node2" class="node">
<title>remittance_lines</title>
<polygon fill="#0065b3" stroke="transparent" points="228.5,-217 228.5,-234 355.5,-234 355.5,-217 228.5,-217"/>
<text text-anchor="start" x="254" y="-224" font-family="Nunito" font-weight="bold" font-size="10.00" fill="white">remittance_lines</text>
<text text-anchor="start" x="231.5" y="-207" font-family="Nunito" font-weight="bold" font-size="10.00">PK</text>
<text text-anchor="start" x="251.5" y="-206" font-family="Nunito" font-size="10.00">id</text>
<text text-anchor="start" x="231.5" y="-189" font-family="Nunito" font-size="10.00" fill="#0065b3">FK</text>
<text text-anchor="start" x="251.5" y="-189" font-family="Nunito" font-size="10.00">insurance_company_id</text>
<text text-anchor="start" x="231.5" y="-172" font-family="Nunito" font-size="10.00" fill="#0065b3">FK</text>
<text text-anchor="start" x="251.5" y="-172" font-family="Nunito" font-size="10.00">policy_id</text>
<text text-anchor="start" x="231.5" y="-155" font-family="Nunito" font-size="10.00" fill="#0065b3">FK</text>
<text text-anchor="start" x="251.5" y="-155" font-family="Nunito" font-size="10.00">remittance_id</text>
<polygon fill="none" stroke="#0065b3" points="227,-148.5 227,-235.5 356,-235.5 356,-148.5 227,-148.5"/>
</g>
<!-- remittances&#45;&gt;remittance_lines -->
<g id="edge32" class="edge">
<title>remittances&#45;&gt;remittance_lines</title>
<path fill="none" stroke="#9fb3c8" stroke-width="1.1" d="M333.7,-296.82C326.58,-279.3 318.63,-259.75 311.57,-242.38"/>
<polygon fill="#9fb3c8" stroke="#9fb3c8" stroke-width="1.1" points="311.45,-242.07 311.73,-234.4 310.13,-238.83 308.81,-235.59 308.81,-235.59 308.81,-235.59 310.13,-238.83 305.89,-236.78 311.45,-242.07 311.45,-242.07"/>
</g>
<!-- remittance_items -->
<g id="node3" class="node">
<title>remittance_items</title>
<polygon fill="#0065b3" stroke="transparent" points="375.5,-234 375.5,-251 502.5,-251 502.5,-234 375.5,-234"/>
<text text-anchor="start" x="399" y="-241" font-family="Nunito" font-weight="bold" font-size="10.00" fill="white">remittance_items</text>
<text text-anchor="start" x="378.5" y="-224" font-family="Nunito" font-weight="bold" font-size="10.00">PK</text>
<text text-anchor="start" x="398.5" y="-223" font-family="Nunito" font-size="10.00">id</text>
<text text-anchor="start" x="378.5" y="-206" font-family="Nunito" font-size="10.00" fill="#5b6776">UK</text>
<text text-anchor="start" x="398.5" y="-206" font-family="Nunito" font-size="10.00">reference_no</text>
<text text-anchor="start" x="378.5" y="-189" font-family="Nunito" font-size="10.00" fill="#0065b3">FK</text>
<text text-anchor="start" x="398.5" y="-190" font-family="Nunito" font-size="10.00">created_by</text>
<text text-anchor="start" x="449.5" y="-190" font-family="Nunito" font-size="10.00" fill="#c0392b">*</text>
<text text-anchor="start" x="454.5" y="-190" font-family="Nunito" font-size="10.00"> </text>
<text text-anchor="start" x="457.5" y="-190" font-family="Nunito" font-size="8.00" fill="#5b6776">→ users</text>
<text text-anchor="start" x="378.5" y="-172" font-family="Nunito" font-size="10.00" fill="#0065b3">FK</text>
<text text-anchor="start" x="398.5" y="-172" font-family="Nunito" font-size="10.00">insurance_company_id</text>
<text text-anchor="start" x="378.5" y="-155" font-family="Nunito" font-size="10.00" fill="#0065b3">FK</text>
<text text-anchor="start" x="398.5" y="-155" font-family="Nunito" font-size="10.00">remittance_id</text>
<text text-anchor="start" x="378.5" y="-138" font-family="Nunito" font-size="10.00" fill="#5b6776">{ }</text>
<text text-anchor="start" x="398.5" y="-138" font-family="Nunito" font-size="10.00" fill="#5b6776">data</text>
<polygon fill="none" stroke="#0065b3" points="374,-131.5 374,-252.5 503,-252.5 503,-131.5 374,-131.5"/>
</g>
<!-- remittances&#45;&gt;remittance_items -->
<g id="edge31" class="edge">
<title>remittances&#45;&gt;remittance_items</title>
<path fill="none" stroke="#9fb3c8" stroke-width="1.1" d="M382.24,-296.82C388.81,-284.69 395.91,-271.59 402.78,-258.92"/>
<polygon fill="#9fb3c8" stroke="#9fb3c8" stroke-width="1.1" points="402.79,-258.89 408.9,-254.23 404.46,-255.81 406.13,-252.73 406.13,-252.73 406.13,-252.73 404.46,-255.81 403.36,-251.23 402.79,-258.89 402.79,-258.89"/>
</g>
<!-- remittance_approvals -->
<g id="node4" class="node">
<title>remittance_approvals</title>
<polygon fill="#0065b3" stroke="transparent" points="1454.5,-270 1454.5,-287 1577.5,-287 1577.5,-270 1454.5,-270"/>
<text text-anchor="start" x="1466" y="-277" font-family="Nunito" font-weight="bold" font-size="10.00" fill="white">remittance_approvals</text>
<text text-anchor="start" x="1457.5" y="-260" font-family="Nunito" font-weight="bold" font-size="10.00">PK</text>
<text text-anchor="start" x="1477.5" y="-259" font-family="Nunito" font-size="10.00">id</text>
<text text-anchor="start" x="1457.5" y="-242" font-family="Nunito" font-size="10.00" fill="#0065b3">FK</text>
<text text-anchor="start" x="1477.5" y="-243" font-family="Nunito" font-size="10.00">action_by</text>
<text text-anchor="start" x="1521.5" y="-243" font-family="Nunito" font-size="10.00" fill="#c0392b">*</text>
<text text-anchor="start" x="1526.5" y="-243" font-family="Nunito" font-size="10.00"> </text>
<text text-anchor="start" x="1529.5" y="-243" font-family="Nunito" font-size="8.00" fill="#5b6776">→ users</text>
<text text-anchor="start" x="1457.5" y="-225" font-family="Nunito" font-size="10.00" fill="#0065b3">FK</text>
<text text-anchor="start" x="1477.5" y="-226" font-family="Nunito" font-size="10.00">delegated_to</text>
<text text-anchor="start" x="1537.5" y="-226" font-family="Nunito" font-size="10.00" fill="#c0392b">*</text>
<text text-anchor="start" x="1542.5" y="-226" font-family="Nunito" font-size="10.00"> </text>
<text text-anchor="start" x="1545.5" y="-226" font-family="Nunito" font-size="8.00" fill="#5b6776">→ users</text>
<text text-anchor="start" x="1457.5" y="-208" font-family="Nunito" font-size="10.00" fill="#0065b3">FK</text>
<text text-anchor="start" x="1477.5" y="-209" font-family="Nunito" font-size="10.00">initiator_id </text>
<text text-anchor="start" x="1527.5" y="-209" font-family="Nunito" font-size="8.00" fill="#5b6776">→ users</text>
<text text-anchor="start" x="1457.5" y="-191" font-family="Nunito" font-size="10.00" fill="#5b6776">{ }</text>
<text text-anchor="start" x="1477.5" y="-191" font-family="Nunito" font-size="10.00" fill="#5b6776">history</text>
<polygon fill="none" stroke="#0065b3" points="1453,-184 1453,-288 1578,-288 1578,-184 1453,-184"/>
</g>
<!-- remittance_delegations -->
<g id="node5" class="node">
<title>remittance_delegations</title>
<polygon fill="#0065b3" stroke="transparent" points="1587.5,-260.5 1587.5,-277.5 1707.5,-277.5 1707.5,-260.5 1587.5,-260.5"/>
<text text-anchor="start" x="1593.5" y="-267.5" font-family="Nunito" font-weight="bold" font-size="10.00" fill="white">remittance_delegations</text>
<text text-anchor="start" x="1590.5" y="-250.5" font-family="Nunito" font-weight="bold" font-size="10.00">PK</text>
<text text-anchor="start" x="1610.5" y="-249.5" font-family="Nunito" font-size="10.00">id</text>
<text text-anchor="start" x="1590.5" y="-232.5" font-family="Nunito" font-size="10.00" fill="#0065b3">FK</text>
<text text-anchor="start" x="1610.5" y="-233.5" font-family="Nunito" font-size="10.00">delegate_id</text>
<text text-anchor="start" x="1664.5" y="-233.5" font-family="Nunito" font-size="10.00" fill="#c0392b">*</text>
<text text-anchor="start" x="1669.5" y="-233.5" font-family="Nunito" font-size="10.00"> </text>
<text text-anchor="start" x="1672.5" y="-233.5" font-family="Nunito" font-size="8.00" fill="#5b6776">→ users</text>
<text text-anchor="start" x="1590.5" y="-215.5" font-family="Nunito" font-size="10.00" fill="#0065b3">FK</text>
<text text-anchor="start" x="1610.5" y="-216.5" font-family="Nunito" font-size="10.00">delegator_id</text>
<text text-anchor="start" x="1667.5" y="-216.5" font-family="Nunito" font-size="10.00" fill="#c0392b">*</text>
<text text-anchor="start" x="1672.5" y="-216.5" font-family="Nunito" font-size="10.00"> </text>
<text text-anchor="start" x="1675.5" y="-216.5" font-family="Nunito" font-size="8.00" fill="#5b6776">→ users</text>
<text text-anchor="start" x="1590.5" y="-198.5" font-family="Nunito" font-size="10.00" fill="#5b6776">{ }</text>
<text text-anchor="start" x="1610.5" y="-198.5" font-family="Nunito" font-size="10.00" fill="#5b6776">trans_types</text>
<polygon fill="none" stroke="#0065b3" points="1586.5,-192 1586.5,-279 1708.5,-279 1708.5,-192 1586.5,-192"/>
</g>
<!-- remittance_allocations -->
<g id="node6" class="node">
<title>remittance_allocations</title>
<polygon fill="#0065b3" stroke="transparent" points="1.5,-383 1.5,-400 232.5,-400 232.5,-383 1.5,-383"/>
<text text-anchor="start" x="64.5" y="-390" font-family="Nunito" font-weight="bold" font-size="10.00" fill="white">remittance_allocations</text>
<text text-anchor="start" x="4.5" y="-373" font-family="Nunito" font-weight="bold" font-size="10.00">PK</text>
<text text-anchor="start" x="24.5" y="-372" font-family="Nunito" font-size="10.00">id</text>
<text text-anchor="start" x="4.5" y="-355" font-family="Nunito" font-size="10.00" fill="#5b6776">UK</text>
<text text-anchor="start" x="24.5" y="-355" font-family="Nunito" font-size="10.00">receipt_application_id, insurance_company_id</text>
<text text-anchor="start" x="4.5" y="-338" font-family="Nunito" font-size="10.00" fill="#0065b3">FK</text>
<text text-anchor="start" x="24.5" y="-338" font-family="Nunito" font-size="10.00">insurance_company_id</text>
<text text-anchor="start" x="4.5" y="-321" font-family="Nunito" font-size="10.00" fill="#0065b3">FK</text>
<text text-anchor="start" x="24.5" y="-321" font-family="Nunito" font-size="10.00">invoice_list_id</text>
<text text-anchor="start" x="4.5" y="-304" font-family="Nunito" font-size="10.00" fill="#0065b3">FK</text>
<text text-anchor="start" x="24.5" y="-304" font-family="Nunito" font-size="10.00">receipt_application_id</text>
<polygon fill="none" stroke="#0065b3" points="0,-297 0,-401 233,-401 233,-297 0,-297"/>
</g>
<!-- insurer_refund_credits -->
<g id="node7" class="node">
<title>insurer_refund_credits</title>
<polygon fill="#0065b3" stroke="transparent" points="895.5,-226 895.5,-243 1022.5,-243 1022.5,-226 895.5,-226"/>
<text text-anchor="start" x="907" y="-233" font-family="Nunito" font-weight="bold" font-size="10.00" fill="white">insurer_refund_credits</text>
<text text-anchor="start" x="898.5" y="-216" font-family="Nunito" font-weight="bold" font-size="10.00">PK</text>
<text text-anchor="start" x="918.5" y="-215" font-family="Nunito" font-size="10.00">id</text>
<text text-anchor="start" x="898.5" y="-198" font-family="Nunito" font-size="10.00" fill="#0065b3">FK</text>
<text text-anchor="start" x="918.5" y="-198" font-family="Nunito" font-size="10.00">insurance_company_id</text>
<text text-anchor="start" x="898.5" y="-181" font-family="Nunito" font-size="10.00" fill="#0065b3">FK</text>
<text text-anchor="start" x="918.5" y="-181" font-family="Nunito" font-size="10.00">journal_id</text>
<text text-anchor="start" x="898.5" y="-164" font-family="Nunito" font-size="10.00" fill="#0065b3">FK</text>
<text text-anchor="start" x="918.5" y="-164" font-family="Nunito" font-size="10.00">policy_id</text>
<text text-anchor="start" x="898.5" y="-147" font-family="Nunito" font-size="10.00" fill="#5b6776">{ }</text>
<text text-anchor="start" x="918.5" y="-147" font-family="Nunito" font-size="10.00" fill="#5b6776">split, applications</text>
<polygon fill="none" stroke="#0065b3" points="894,-140 894,-244 1023,-244 1023,-140 894,-140"/>
</g>
<!-- commission_debit_notes -->
<g id="node8" class="node">
<title>commission_debit_notes</title>
<polygon fill="#0065b3" stroke="transparent" points="1246.5,-366 1246.5,-383 1373.5,-383 1373.5,-366 1246.5,-366"/>
<text text-anchor="start" x="1252.5" y="-373" font-family="Nunito" font-weight="bold" font-size="10.00" fill="white">commission_debit_notes</text>
<text text-anchor="start" x="1249.5" y="-356" font-family="Nunito" font-weight="bold" font-size="10.00">PK</text>
<text text-anchor="start" x="1269.5" y="-355" font-family="Nunito" font-size="10.00">id</text>
<text text-anchor="start" x="1249.5" y="-338" font-family="Nunito" font-size="10.00" fill="#5b6776">UK</text>
<text text-anchor="start" x="1269.5" y="-338" font-family="Nunito" font-size="10.00">dn_number</text>
<text text-anchor="start" x="1249.5" y="-321" font-family="Nunito" font-size="10.00" fill="#0065b3">FK</text>
<text text-anchor="start" x="1269.5" y="-321" font-family="Nunito" font-size="10.00">insurance_company_id</text>
<polygon fill="none" stroke="#0065b3" points="1245,-314 1245,-384 1374,-384 1374,-314 1245,-314"/>
</g>
<!-- commission_debit_note_lines -->
<g id="node9" class="node">
<title>commission_debit_note_lines</title>
<polygon fill="#0065b3" stroke="transparent" points="1073.5,-68.5 1073.5,-85.5 1216.5,-85.5 1216.5,-68.5 1073.5,-68.5"/>
<text text-anchor="start" x="1076.5" y="-75.5" font-family="Nunito" font-weight="bold" font-size="10.00" fill="white">commission_debit_note_lines</text>
<text text-anchor="start" x="1076.5" y="-58.5" font-family="Nunito" font-weight="bold" font-size="10.00">PK</text>
<text text-anchor="start" x="1123.5" y="-57.5" font-family="Nunito" font-size="10.00">id</text>
<text text-anchor="start" x="1076.5" y="-40.5" font-family="Nunito" font-size="10.00" fill="#0065b3">FK</text>
<text text-anchor="start" x="1123.5" y="-40.5" font-family="Nunito" font-size="10.00">debit_note_id</text>
<text text-anchor="start" x="1076.5" y="-23.5" font-family="Nunito" font-size="10.00" fill="#0065b3">FK</text>
<text text-anchor="start" x="1123.5" y="-23.5" font-family="Nunito" font-size="10.00">item_id</text>
<text text-anchor="start" x="1076.5" y="-6.5" font-family="Nunito" font-size="10.00" fill="#0065b3">FK</text>
<text text-anchor="start" x="1123.5" y="-6.5" font-family="Nunito" font-size="10.00">policy_id</text>
<polygon fill="none" stroke="#0065b3" points="1072,0 1072,-87 1217,-87 1217,0 1072,0"/>
</g>
<!-- commission_debit_notes&#45;&gt;commission_debit_note_lines -->
<g id="edge2" class="edge">
<title>commission_debit_notes&#45;&gt;commission_debit_note_lines</title>
<path fill="none" stroke="#9fb3c8" stroke-width="1.1" d="M1364.21,-313.89C1381.73,-299.86 1399.02,-281.95 1408.5,-261 1433.78,-205.12 1445.17,-172.16 1408.5,-123 1386.25,-93.17 1293.46,-70.59 1224.13,-57.48"/>
<polygon fill="#9fb3c8" stroke="#9fb3c8" stroke-width="1.1" points="1223.96,-57.45 1217.65,-53.06 1220.52,-56.8 1217.08,-56.16 1217.08,-56.16 1217.08,-56.16 1220.52,-56.8 1216.5,-59.26 1223.96,-57.45 1223.96,-57.45"/>
</g>
<!-- commission_debit_note_collections -->
<g id="node10" class="node">
<title>commission_debit_note_collections</title>
<polygon fill="#0065b3" stroke="transparent" points="1228.5,-217 1228.5,-234 1398.5,-234 1398.5,-217 1228.5,-217"/>
<text text-anchor="start" x="1231.5" y="-224" font-family="Nunito" font-weight="bold" font-size="10.00" fill="white">commission_debit_note_collections</text>
<text text-anchor="start" x="1231.5" y="-207" font-family="Nunito" font-weight="bold" font-size="10.00">PK</text>
<text text-anchor="start" x="1281.5" y="-206" font-family="Nunito" font-size="10.00">id</text>
<text text-anchor="start" x="1231.5" y="-189" font-family="Nunito" font-size="10.00" fill="#5b6776">UK</text>
<text text-anchor="start" x="1281.5" y="-189" font-family="Nunito" font-size="10.00">collection_number</text>
<text text-anchor="start" x="1231.5" y="-172" font-family="Nunito" font-size="10.00" fill="#0065b3">FK</text>
<text text-anchor="start" x="1281.5" y="-172" font-family="Nunito" font-size="10.00">debit_note_id</text>
<text text-anchor="start" x="1231.5" y="-155" font-family="Nunito" font-size="10.00" fill="#0065b3">FK</text>
<text text-anchor="start" x="1281.5" y="-155" font-family="Nunito" font-size="10.00">journal_id</text>
<polygon fill="none" stroke="#0065b3" points="1227.5,-148.5 1227.5,-235.5 1399.5,-235.5 1399.5,-148.5 1227.5,-148.5"/>
</g>
<!-- commission_debit_notes&#45;&gt;commission_debit_note_collections -->
<g id="edge1" class="edge">
<title>commission_debit_notes&#45;&gt;commission_debit_note_collections</title>
<path fill="none" stroke="#9fb3c8" stroke-width="1.1" d="M1310.38,-313.98C1310.92,-293.07 1311.62,-265.9 1312.22,-242.61"/>
<polygon fill="#9fb3c8" stroke="#9fb3c8" stroke-width="1.1" points="1312.22,-242.52 1315.55,-235.6 1312.31,-239.02 1312.4,-235.52 1312.4,-235.52 1312.4,-235.52 1312.31,-239.02 1309.25,-235.44 1312.22,-242.52 1312.22,-242.52"/>
</g>
<!-- direct_bill_items -->
<g id="node11" class="node">
<title>direct_bill_items</title>
<polygon fill="#0065b3" stroke="transparent" points="1081.5,-243 1081.5,-260 1208.5,-260 1208.5,-243 1081.5,-243"/>
<text text-anchor="start" x="1107" y="-250" font-family="Nunito" font-weight="bold" font-size="10.00" fill="white">direct_bill_items</text>
<text text-anchor="start" x="1084.5" y="-233" font-family="Nunito" font-weight="bold" font-size="10.00">PK</text>
<text text-anchor="start" x="1104.5" y="-232" font-family="Nunito" font-size="10.00">id</text>
<text text-anchor="start" x="1084.5" y="-215" font-family="Nunito" font-size="10.00" fill="#0065b3">FK</text>
<text text-anchor="start" x="1104.5" y="-215" font-family="Nunito" font-size="10.00">booking_jv_id</text>
<text text-anchor="start" x="1084.5" y="-198" font-family="Nunito" font-size="10.00" fill="#0065b3">FK</text>
<text text-anchor="start" x="1104.5" y="-198" font-family="Nunito" font-size="10.00">debit_note_id</text>
<text text-anchor="start" x="1084.5" y="-181" font-family="Nunito" font-size="10.00" fill="#0065b3">FK</text>
<text text-anchor="start" x="1104.5" y="-181" font-family="Nunito" font-size="10.00">endorsement_id</text>
<text text-anchor="start" x="1084.5" y="-164" font-family="Nunito" font-size="10.00" fill="#0065b3">FK</text>
<text text-anchor="start" x="1104.5" y="-164" font-family="Nunito" font-size="10.00">insurance_company_id</text>
<text text-anchor="start" x="1084.5" y="-147" font-family="Nunito" font-size="10.00" fill="#0065b3">FK</text>
<text text-anchor="start" x="1104.5" y="-147" font-family="Nunito" font-size="10.00">policy_id</text>
<text text-anchor="start" x="1084.5" y="-130" font-family="Nunito" font-size="10.00" fill="#0065b3">FK</text>
<text text-anchor="start" x="1104.5" y="-130" font-family="Nunito" font-size="10.00">reversal_jv_id</text>
<polygon fill="none" stroke="#0065b3" points="1080,-123 1080,-261 1209,-261 1209,-123 1080,-123"/>
</g>
<!-- commission_debit_notes&#45;&gt;direct_bill_items -->
<g id="edge3" class="edge">
<title>commission_debit_notes&#45;&gt;direct_bill_items</title>
<path fill="none" stroke="#9fb3c8" stroke-width="1.1" d="M1273.29,-313.98C1255.97,-297.72 1234.64,-277.67 1214.34,-258.61"/>
<polygon fill="#9fb3c8" stroke="#9fb3c8" stroke-width="1.1" points="1214.31,-258.58 1211.37,-251.49 1211.76,-256.19 1209.21,-253.79 1209.21,-253.79 1209.21,-253.79 1211.76,-256.19 1207.05,-256.09 1214.31,-258.58 1214.31,-258.58"/>
</g>
<!-- direct_bill_items&#45;&gt;commission_debit_note_lines -->
<g id="edge4" class="edge">
<title>direct_bill_items&#45;&gt;commission_debit_note_lines</title>
<path fill="none" stroke="#9fb3c8" stroke-width="1.1" d="M1144.5,-122.9C1144.5,-113.35 1144.5,-103.68 1144.5,-94.54"/>
<polygon fill="#9fb3c8" stroke="#9fb3c8" stroke-width="1.1" points="1144.5,-94.35 1147.65,-87.35 1144.5,-90.85 1144.5,-87.35 1144.5,-87.35 1144.5,-87.35 1144.5,-90.85 1141.35,-87.35 1144.5,-94.35 1144.5,-94.35"/>
</g>
<!-- direct_bill_client_payments -->
<g id="node12" class="node">
<title>direct_bill_client_payments</title>
<polygon fill="#0065b3" stroke="transparent" points="704.5,-209 704.5,-226 836.5,-226 836.5,-209 704.5,-209"/>
<text text-anchor="start" x="707.5" y="-216" font-family="Nunito" font-weight="bold" font-size="10.00" fill="white">direct_bill_client_payments</text>
<text text-anchor="start" x="707.5" y="-199" font-family="Nunito" font-weight="bold" font-size="10.00">PK</text>
<text text-anchor="start" x="729.5" y="-198" font-family="Nunito" font-size="10.00">id</text>
<text text-anchor="start" x="707.5" y="-181" font-family="Nunito" font-size="10.00" fill="#0065b3">FK</text>
<text text-anchor="start" x="729.5" y="-181" font-family="Nunito" font-size="10.00">insurance_company_id</text>
<text text-anchor="start" x="707.5" y="-164" font-family="Nunito" font-size="10.00" fill="#0065b3">FK</text>
<text text-anchor="start" x="729.5" y="-164" font-family="Nunito" font-size="10.00">policy_id</text>
<polygon fill="none" stroke="#0065b3" points="703.5,-157 703.5,-227 837.5,-227 837.5,-157 703.5,-157"/>
</g>
<!-- insurer_statement_formats -->
<g id="node13" class="node">
<title>insurer_statement_formats</title>
<polygon fill="#0065b3" stroke="transparent" points="476.5,-366 476.5,-383 608.5,-383 608.5,-366 476.5,-366"/>
<text text-anchor="start" x="479.5" y="-373" font-family="Nunito" font-weight="bold" font-size="10.00" fill="white">insurer_statement_formats</text>
<text text-anchor="start" x="479.5" y="-356" font-family="Nunito" font-weight="bold" font-size="10.00">PK</text>
<text text-anchor="start" x="501.5" y="-355" font-family="Nunito" font-size="10.00">code</text>
<text text-anchor="start" x="479.5" y="-338" font-family="Nunito" font-size="10.00" fill="#0065b3">FK</text>
<text text-anchor="start" x="501.5" y="-338" font-family="Nunito" font-size="10.00">insurance_company_id</text>
<text text-anchor="start" x="479.5" y="-321" font-family="Nunito" font-size="10.00" fill="#5b6776">{ }</text>
<text text-anchor="start" x="501.5" y="-321" font-family="Nunito" font-size="10.00" fill="#5b6776">columns</text>
<polygon fill="none" stroke="#0065b3" points="475.5,-314 475.5,-384 609.5,-384 609.5,-314 475.5,-314"/>
</g>
<!-- insurer_statements -->
<g id="node14" class="node">
<title>insurer_statements</title>
<polygon fill="#0065b3" stroke="transparent" points="629.5,-366 629.5,-383 756.5,-383 756.5,-366 629.5,-366"/>
<text text-anchor="start" x="648" y="-373" font-family="Nunito" font-weight="bold" font-size="10.00" fill="white">insurer_statements</text>
<text text-anchor="start" x="632.5" y="-356" font-family="Nunito" font-weight="bold" font-size="10.00">PK</text>
<text text-anchor="start" x="652.5" y="-355" font-family="Nunito" font-size="10.00">id</text>
<text text-anchor="start" x="632.5" y="-338" font-family="Nunito" font-size="10.00" fill="#5b6776">UK</text>
<text text-anchor="start" x="652.5" y="-338" font-family="Nunito" font-size="10.00">statement_number</text>
<text text-anchor="start" x="632.5" y="-321" font-family="Nunito" font-size="10.00" fill="#0065b3">FK</text>
<text text-anchor="start" x="652.5" y="-321" font-family="Nunito" font-size="10.00">insurance_company_id</text>
<polygon fill="none" stroke="#0065b3" points="628,-314 628,-384 757,-384 757,-314 628,-314"/>
</g>
<!-- insurer_statement_lines -->
<g id="node15" class="node">
<title>insurer_statement_lines</title>
<polygon fill="#0065b3" stroke="transparent" points="561.5,-217 561.5,-234 684.5,-234 684.5,-217 561.5,-217"/>
<text text-anchor="start" x="567" y="-224" font-family="Nunito" font-weight="bold" font-size="10.00" fill="white">insurer_statement_lines</text>
<text text-anchor="start" x="564.5" y="-207" font-family="Nunito" font-weight="bold" font-size="10.00">PK</text>
<text text-anchor="start" x="584.5" y="-206" font-family="Nunito" font-size="10.00">id</text>
<text text-anchor="start" x="564.5" y="-189" font-family="Nunito" font-size="10.00" fill="#5b6776">UK</text>
<text text-anchor="start" x="584.5" y="-189" font-family="Nunito" font-size="10.00">statement_id, line_no</text>
<text text-anchor="start" x="564.5" y="-172" font-family="Nunito" font-size="10.00" fill="#0065b3">FK</text>
<text text-anchor="start" x="584.5" y="-172" font-family="Nunito" font-size="10.00">policy_id</text>
<text text-anchor="start" x="564.5" y="-155" font-family="Nunito" font-size="10.00" fill="#0065b3">FK</text>
<text text-anchor="start" x="584.5" y="-155" font-family="Nunito" font-size="10.00">statement_id</text>
<polygon fill="none" stroke="#0065b3" points="560,-148.5 560,-235.5 685,-235.5 685,-148.5 560,-148.5"/>
</g>
<!-- insurer_statements&#45;&gt;insurer_statement_lines -->
<g id="edge17" class="edge">
<title>insurer_statements&#45;&gt;insurer_statement_lines</title>
<path fill="none" stroke="#9fb3c8" stroke-width="1.1" d="M677.14,-313.98C667.61,-292.89 655.21,-265.43 644.63,-242.01"/>
<polygon fill="#9fb3c8" stroke="#9fb3c8" stroke-width="1.1" points="644.58,-241.9 644.57,-234.23 643.14,-238.71 641.7,-235.52 641.7,-235.52 641.7,-235.52 643.14,-238.71 638.83,-236.82 644.58,-241.9 644.58,-241.9"/>
</g>
<!-- insurer_statement_resolutions -->
<g id="node16" class="node">
<title>insurer_statement_resolutions</title>
<polygon fill="#0065b3" stroke="transparent" points="548.5,-68.5 548.5,-85.5 696.5,-85.5 696.5,-68.5 548.5,-68.5"/>
<text text-anchor="start" x="551.5" y="-75.5" font-family="Nunito" font-weight="bold" font-size="10.00" fill="white">insurer_statement_resolutions</text>
<text text-anchor="start" x="551.5" y="-58.5" font-family="Nunito" font-weight="bold" font-size="10.00">PK</text>
<text text-anchor="start" x="602.5" y="-57.5" font-family="Nunito" font-size="10.00">id</text>
<text text-anchor="start" x="551.5" y="-40.5" font-family="Nunito" font-size="10.00" fill="#0065b3">FK</text>
<text text-anchor="start" x="602.5" y="-40.5" font-family="Nunito" font-size="10.00">journal_id</text>
<text text-anchor="start" x="551.5" y="-23.5" font-family="Nunito" font-size="10.00" fill="#0065b3">FK</text>
<text text-anchor="start" x="602.5" y="-23.5" font-family="Nunito" font-size="10.00">line_id</text>
<text text-anchor="start" x="551.5" y="-6.5" font-family="Nunito" font-size="10.00" fill="#0065b3">FK</text>
<text text-anchor="start" x="602.5" y="-6.5" font-family="Nunito" font-size="10.00">statement_id</text>
<polygon fill="none" stroke="#0065b3" points="547.5,0 547.5,-87 697.5,-87 697.5,0 547.5,0"/>
</g>
<!-- insurer_statements&#45;&gt;insurer_statement_resolutions -->
<g id="edge18" class="edge">
<title>insurer_statements&#45;&gt;insurer_statement_resolutions</title>
<path fill="none" stroke="#9fb3c8" stroke-width="1.1" d="M644.87,-313.98C636.21,-308.14 627.17,-302.26 618.5,-297 589.26,-279.27 568.14,-290.3 550.5,-261 518.86,-208.46 528.26,-180.16 550.5,-123 554.67,-112.3 561.05,-102.17 568.33,-92.96"/>
<polygon fill="#9fb3c8" stroke="#9fb3c8" stroke-width="1.1" points="568.5,-92.75 575.39,-89.36 570.73,-90.05 572.96,-87.35 572.96,-87.35 572.96,-87.35 570.73,-90.05 570.53,-85.34 568.5,-92.75 568.5,-92.75"/>
</g>
<!-- insurer_statement_lines&#45;&gt;insurer_statement_resolutions -->
<g id="edge16" class="edge">
<title>insurer_statement_lines&#45;&gt;insurer_statement_resolutions</title>
<path fill="none" stroke="#9fb3c8" stroke-width="1.1" d="M622.5,-148.23C622.5,-131.38 622.5,-111.92 622.5,-94.43"/>
<polygon fill="#9fb3c8" stroke="#9fb3c8" stroke-width="1.1" points="622.5,-94.07 625.65,-87.07 622.5,-90.57 622.5,-87.07 622.5,-87.07 622.5,-87.07 622.5,-90.57 619.35,-87.07 622.5,-94.07 622.5,-94.07"/>
</g>
<!-- endorsements -->
<g id="node17" class="node">
<title>endorsements</title>
<path fill="none" stroke="#5b6776" stroke-dasharray="5,2" d="M1172.5,-367C1172.5,-367 1116.5,-367 1116.5,-367 1110.5,-367 1104.5,-361 1104.5,-355 1104.5,-355 1104.5,-343 1104.5,-343 1104.5,-337 1110.5,-331 1116.5,-331 1116.5,-331 1172.5,-331 1172.5,-331 1178.5,-331 1184.5,-337 1184.5,-343 1184.5,-343 1184.5,-355 1184.5,-355 1184.5,-361 1178.5,-367 1172.5,-367"/>
<text text-anchor="middle" x="1144.5" y="-346.5" font-family="Nunito" font-size="10.00" fill="#5b6776">endorsements</text>
</g>
<!-- endorsements&#45;&gt;direct_bill_items -->
<g id="edge5" class="edge">
<title>endorsements&#45;&gt;direct_bill_items</title>
<path fill="none" stroke="#9fb3c8" stroke-width="1.1" d="M1144.5,-330.82C1144.5,-315.46 1144.5,-291.83 1144.5,-268.45"/>
<polygon fill="#9fb3c8" stroke="#9fb3c8" stroke-width="1.1" points="1144.5,-268.22 1147.65,-261.22 1144.5,-264.72 1144.5,-261.22 1144.5,-261.22 1144.5,-261.22 1144.5,-264.72 1141.35,-261.22 1144.5,-268.22 1144.5,-268.22"/>
</g>
<!-- insurance_companies -->
<g id="node18" class="node">
<title>insurance_companies</title>
<path fill="none" stroke="#5b6776" stroke-dasharray="5,2" d="M661,-473C661,-473 574,-473 574,-473 568,-473 562,-467 562,-461 562,-461 562,-449 562,-449 562,-443 568,-437 574,-437 574,-437 661,-437 661,-437 667,-437 673,-443 673,-449 673,-449 673,-461 673,-461 673,-467 667,-473 661,-473"/>
<text text-anchor="middle" x="617.5" y="-452.5" font-family="Nunito" font-size="10.00" fill="#5b6776">insurance_companies</text>
</g>
<!-- insurance_companies&#45;&gt;remittances -->
<g id="edge15" class="edge">
<title>insurance_companies&#45;&gt;remittances</title>
<path fill="none" stroke="#9fb3c8" stroke-width="1.1" d="M561.65,-442.42C524.37,-433.61 474.81,-419.79 433.5,-401 430.83,-399.78 428.14,-398.49 425.45,-397.12"/>
<polygon fill="#9fb3c8" stroke="#9fb3c8" stroke-width="1.1" points="425.38,-397.09 420.65,-391.05 422.28,-395.47 419.18,-393.84 419.18,-393.84 419.18,-393.84 422.28,-395.47 417.72,-396.63 425.38,-397.09 425.38,-397.09"/>
</g>
<!-- insurance_companies&#45;&gt;remittance_lines -->
<g id="edge14" class="edge">
<title>insurance_companies&#45;&gt;remittance_lines</title>
<path fill="none" stroke="#9fb3c8" stroke-width="1.1" d="M561.98,-453.63C475.81,-451.75 316.05,-442.58 280.5,-401 243.43,-357.65 256.22,-288.75 271.5,-242.24"/>
<polygon fill="#9fb3c8" stroke="#9fb3c8" stroke-width="1.1" points="271.52,-242.18 276.75,-236.56 272.64,-238.87 273.77,-235.55 273.77,-235.55 273.77,-235.55 272.64,-238.87 270.78,-234.54 271.52,-242.18 271.52,-242.18"/>
</g>
<!-- insurance_companies&#45;&gt;remittance_items -->
<g id="edge13" class="edge">
<title>insurance_companies&#45;&gt;remittance_items</title>
<path fill="none" stroke="#9fb3c8" stroke-width="1.1" d="M561.84,-448.76C529.08,-442.64 489.66,-429.44 466.5,-401 434.72,-361.98 429.08,-304.52 430.63,-259.88"/>
<polygon fill="#9fb3c8" stroke="#9fb3c8" stroke-width="1.1" points="430.63,-259.82 434.08,-252.97 430.78,-256.33 430.93,-252.83 430.93,-252.83 430.93,-252.83 430.78,-256.33 427.79,-252.69 430.63,-259.82 430.63,-259.82"/>
</g>
<!-- insurance_companies&#45;&gt;remittance_allocations -->
<g id="edge12" class="edge">
<title>insurance_companies&#45;&gt;remittance_allocations</title>
<path fill="none" stroke="#9fb3c8" stroke-width="1.1" d="M561.86,-450.02C488.77,-443.9 356.87,-429.72 247.5,-401 244.99,-400.34 242.47,-399.65 239.93,-398.93"/>
<polygon fill="#9fb3c8" stroke="#9fb3c8" stroke-width="1.1" points="239.91,-398.92 234.08,-393.93 236.55,-397.94 233.19,-396.95 233.19,-396.95 233.19,-396.95 236.55,-397.94 232.3,-399.98 239.91,-398.92 239.91,-398.92"/>
</g>
<!-- insurance_companies&#45;&gt;insurer_refund_credits -->
<g id="edge9" class="edge">
<title>insurance_companies&#45;&gt;insurer_refund_credits</title>
<path fill="none" stroke="#9fb3c8" stroke-width="1.1" d="M673.04,-450.01C744.04,-443.8 861.61,-429.47 893.5,-401 935.78,-363.25 950.84,-298.45 956.05,-251.19"/>
<polygon fill="#9fb3c8" stroke="#9fb3c8" stroke-width="1.1" points="956.07,-251.02 959.91,-244.38 956.42,-247.54 956.78,-244.06 956.78,-244.06 956.78,-244.06 956.42,-247.54 953.64,-243.74 956.07,-251.02 956.07,-251.02"/>
</g>
<!-- insurance_companies&#45;&gt;commission_debit_notes -->
<g id="edge6" class="edge">
<title>insurance_companies&#45;&gt;commission_debit_notes</title>
<path fill="none" stroke="#9fb3c8" stroke-width="1.1" d="M673.29,-452.42C803.59,-448.21 1124.59,-434.65 1226.5,-401 1236.51,-397.69 1246.57,-392.97 1256.06,-387.72"/>
<polygon fill="#9fb3c8" stroke="#9fb3c8" stroke-width="1.1" points="1256.13,-387.68 1263.77,-386.94 1259.17,-385.95 1262.2,-384.21 1262.2,-384.21 1262.2,-384.21 1259.17,-385.95 1260.64,-381.47 1256.13,-387.68 1256.13,-387.68"/>
</g>
<!-- insurance_companies&#45;&gt;direct_bill_items -->
<g id="edge8" class="edge">
<title>insurance_companies&#45;&gt;direct_bill_items</title>
<path fill="none" stroke="#9fb3c8" stroke-width="1.1" d="M673.09,-453.05C810.74,-450.12 1158.84,-439 1193.5,-401 1226.27,-365.08 1212.64,-311.43 1191.54,-267.61"/>
<polygon fill="#9fb3c8" stroke="#9fb3c8" stroke-width="1.1" points="1191.48,-267.49 1191.2,-259.82 1189.93,-264.35 1188.38,-261.22 1188.38,-261.22 1188.38,-261.22 1189.93,-264.35 1185.55,-262.62 1191.48,-267.49 1191.48,-267.49"/>
</g>
<!-- insurance_companies&#45;&gt;direct_bill_client_payments -->
<g id="edge7" class="edge">
<title>insurance_companies&#45;&gt;direct_bill_client_payments</title>
<path fill="none" stroke="#9fb3c8" stroke-width="1.1" d="M673.23,-449.51C706.07,-443.68 745.24,-430.52 766.5,-401 801.46,-352.45 792.86,-279.65 782.42,-234.3"/>
<polygon fill="#9fb3c8" stroke="#9fb3c8" stroke-width="1.1" points="782.37,-234.08 783.8,-226.54 781.56,-230.67 780.74,-227.27 780.74,-227.27 780.74,-227.27 781.56,-230.67 777.68,-228 782.37,-234.08 782.37,-234.08"/>
</g>
<!-- insurance_companies&#45;&gt;insurer_statement_formats -->
<g id="edge10" class="edge">
<title>insurance_companies&#45;&gt;insurer_statement_formats</title>
<path fill="none" stroke="#9fb3c8" stroke-width="1.1" d="M605.12,-436.83C595.93,-424.08 583.01,-406.18 571.3,-389.93"/>
<polygon fill="#9fb3c8" stroke="#9fb3c8" stroke-width="1.1" points="571.14,-389.71 569.6,-382.19 569.09,-386.87 567.04,-384.04 567.04,-384.04 567.04,-384.04 569.09,-386.87 564.49,-385.88 571.14,-389.71 571.14,-389.71"/>
</g>
<!-- insurance_companies&#45;&gt;insurer_statements -->
<g id="edge11" class="edge">
<title>insurance_companies&#45;&gt;insurer_statements</title>
<path fill="none" stroke="#9fb3c8" stroke-width="1.1" d="M629.88,-436.83C639.07,-424.08 651.99,-406.18 663.7,-389.93"/>
<polygon fill="#9fb3c8" stroke="#9fb3c8" stroke-width="1.1" points="663.86,-389.71 670.51,-385.88 665.91,-386.87 667.96,-384.04 667.96,-384.04 667.96,-384.04 665.91,-386.87 665.4,-382.19 663.86,-389.71 663.86,-389.71"/>
</g>
<!-- invoice_lists -->
<g id="node19" class="node">
<title>invoice_lists</title>
<path fill="none" stroke="#5b6776" stroke-dasharray="5,2" d="M194,-473C194,-473 147,-473 147,-473 141,-473 135,-467 135,-461 135,-461 135,-449 135,-449 135,-443 141,-437 147,-437 147,-437 194,-437 194,-437 200,-437 206,-443 206,-449 206,-449 206,-461 206,-461 206,-467 200,-473 194,-473"/>
<text text-anchor="middle" x="170.5" y="-452.5" font-family="Nunito" font-size="10.00" fill="#5b6776">invoice_lists</text>
</g>
<!-- invoice_lists&#45;&gt;remittance_allocations -->
<g id="edge19" class="edge">
<title>invoice_lists&#45;&gt;remittance_allocations</title>
<path fill="none" stroke="#9fb3c8" stroke-width="1.1" d="M161.58,-436.83C157.33,-428.63 151.96,-418.29 146.43,-407.64"/>
<polygon fill="#9fb3c8" stroke="#9fb3c8" stroke-width="1.1" points="146.38,-407.55 145.95,-399.89 144.77,-404.44 143.16,-401.34 143.16,-401.34 143.16,-401.34 144.77,-404.44 140.36,-402.79 146.38,-407.55 146.38,-407.55"/>
</g>
<!-- journal_vouchers -->
<g id="node20" class="node">
<title>journal_vouchers</title>
<path fill="none" stroke="#5b6776" stroke-dasharray="5,2" d="M1074.5,-367C1074.5,-367 1006.5,-367 1006.5,-367 1000.5,-367 994.5,-361 994.5,-355 994.5,-355 994.5,-343 994.5,-343 994.5,-337 1000.5,-331 1006.5,-331 1006.5,-331 1074.5,-331 1074.5,-331 1080.5,-331 1086.5,-337 1086.5,-343 1086.5,-343 1086.5,-355 1086.5,-355 1086.5,-361 1080.5,-367 1074.5,-367"/>
<text text-anchor="middle" x="1040.5" y="-346.5" font-family="Nunito" font-size="10.00" fill="#5b6776">journal_vouchers</text>
</g>
<!-- journal_vouchers&#45;&gt;insurer_refund_credits -->
<g id="edge22" class="edge">
<title>journal_vouchers&#45;&gt;insurer_refund_credits</title>
<path fill="none" stroke="#9fb3c8" stroke-width="1.1" d="M1031.41,-330.82C1021.18,-311.47 1004,-279.01 988.89,-250.44"/>
<polygon fill="#9fb3c8" stroke="#9fb3c8" stroke-width="1.1" points="988.77,-250.22 988.28,-242.56 987.14,-247.13 985.5,-244.03 985.5,-244.03 985.5,-244.03 987.14,-247.13 982.71,-245.51 988.77,-250.22 988.77,-250.22"/>
</g>
<!-- journal_vouchers&#45;&gt;commission_debit_note_collections -->
<g id="edge20" class="edge">
<title>journal_vouchers&#45;&gt;commission_debit_note_collections</title>
<path fill="none" stroke="#9fb3c8" stroke-width="1.1" d="M1055.27,-330.65C1065.54,-319.59 1080.1,-305.74 1095.5,-297 1145.04,-268.89 1167.28,-285.93 1218.5,-261 1230.77,-255.03 1243.15,-247.5 1254.74,-239.64"/>
<polygon fill="#9fb3c8" stroke="#9fb3c8" stroke-width="1.1" points="1254.96,-239.49 1262.51,-238.1 1257.84,-237.5 1260.72,-235.51 1260.72,-235.51 1260.72,-235.51 1257.84,-237.5 1258.93,-232.92 1254.96,-239.49 1254.96,-239.49"/>
</g>
<!-- journal_vouchers&#45;&gt;direct_bill_items -->
<g id="edge21" class="edge">
<title>journal_vouchers&#45;&gt;direct_bill_items</title>
<path fill="none" stroke="#9fb3c8" stroke-width="1.1" d="M1052.03,-330.82C1062.51,-315.2 1078.73,-291.02 1094.68,-267.25"/>
<polygon fill="#9fb3c8" stroke="#9fb3c8" stroke-width="1.1" points="1094.83,-267.03 1101.34,-262.97 1096.78,-264.12 1098.73,-261.22 1098.73,-261.22 1098.73,-261.22 1096.78,-264.12 1096.11,-259.46 1094.83,-267.03 1094.83,-267.03"/>
</g>
<!-- journal_vouchers&#45;&gt;insurer_statement_resolutions -->
<g id="edge23" class="edge">
<title>journal_vouchers&#45;&gt;insurer_statement_resolutions</title>
<path fill="none" stroke="#9fb3c8" stroke-width="1.1" d="M1046.25,-330.81C1058.91,-289.43 1084.14,-183.25 1032.5,-123 990.95,-74.52 812.36,-55.59 705.07,-48.5"/>
<polygon fill="#9fb3c8" stroke="#9fb3c8" stroke-width="1.1" points="704.77,-48.48 697.99,-44.88 701.28,-48.25 697.78,-48.03 697.78,-48.03 697.78,-48.03 701.28,-48.25 697.58,-51.17 704.77,-48.48 704.77,-48.48"/>
</g>
<!-- policies -->
<g id="node21" class="node">
<title>policies</title>
<path fill="none" stroke="#5b6776" stroke-dasharray="5,2" d="M872.5,-367C872.5,-367 842.5,-367 842.5,-367 836.5,-367 830.5,-361 830.5,-355 830.5,-355 830.5,-343 830.5,-343 830.5,-337 836.5,-331 842.5,-331 842.5,-331 872.5,-331 872.5,-331 878.5,-331 884.5,-337 884.5,-343 884.5,-343 884.5,-355 884.5,-355 884.5,-361 878.5,-367 872.5,-367"/>
<text text-anchor="middle" x="857.5" y="-346.5" font-family="Nunito" font-size="10.00" fill="#5b6776">policies</text>
</g>
<!-- policies&#45;&gt;remittance_lines -->
<g id="edge29" class="edge">
<title>policies&#45;&gt;remittance_lines</title>
<path fill="none" stroke="#9fb3c8" stroke-width="1.1" d="M833.68,-330.94C816.02,-319.25 790.89,-304.55 766.5,-297 595.13,-243.98 528.32,-334.08 364.5,-261 353.39,-256.04 342.89,-248.69 333.49,-240.63"/>
<polygon fill="#9fb3c8" stroke="#9fb3c8" stroke-width="1.1" points="333.31,-240.47 330.18,-233.46 330.7,-238.14 328.09,-235.81 328.09,-235.81 328.09,-235.81 330.7,-238.14 325.99,-238.16 333.31,-240.47 333.31,-240.47"/>
</g>
<!-- policies&#45;&gt;insurer_refund_credits -->
<g id="edge27" class="edge">
<title>policies&#45;&gt;insurer_refund_credits</title>
<path fill="none" stroke="#9fb3c8" stroke-width="1.1" d="M868.69,-330.82C881.35,-311.39 902.64,-278.73 921.3,-250.08"/>
<polygon fill="#9fb3c8" stroke="#9fb3c8" stroke-width="1.1" points="921.42,-249.9 927.88,-245.75 923.33,-246.97 925.25,-244.03 925.25,-244.03 925.25,-244.03 923.33,-246.97 922.61,-242.31 921.42,-249.9 921.42,-249.9"/>
</g>
<!-- policies&#45;&gt;commission_debit_note_lines -->
<g id="edge24" class="edge">
<title>policies&#45;&gt;commission_debit_note_lines</title>
<path fill="none" stroke="#9fb3c8" stroke-width="1.1" d="M853.98,-330.92C846.57,-289.78 834.01,-184.11 885.5,-123 929.21,-71.12 1006,-52.79 1064.65,-46.67"/>
<polygon fill="#9fb3c8" stroke="#9fb3c8" stroke-width="1.1" points="1064.74,-46.66 1072.02,-49.12 1068.23,-46.32 1071.71,-45.98 1071.71,-45.98 1071.71,-45.98 1068.23,-46.32 1071.41,-42.85 1064.74,-46.66 1064.74,-46.66"/>
</g>
<!-- policies&#45;&gt;direct_bill_items -->
<g id="edge26" class="edge">
<title>policies&#45;&gt;direct_bill_items</title>
<path fill="none" stroke="#9fb3c8" stroke-width="1.1" d="M884.55,-335.43C919.24,-319.1 981.09,-289.32 1032.5,-261 1045.98,-253.58 1060.15,-245.33 1073.71,-237.21"/>
<polygon fill="#9fb3c8" stroke="#9fb3c8" stroke-width="1.1" points="1073.9,-237.1 1081.52,-236.19 1076.9,-235.3 1079.9,-233.49 1079.9,-233.49 1079.9,-233.49 1076.9,-235.3 1078.27,-230.79 1073.9,-237.1 1073.9,-237.1"/>
</g>
<!-- policies&#45;&gt;direct_bill_client_payments -->
<g id="edge25" class="edge">
<title>policies&#45;&gt;direct_bill_client_payments</title>
<path fill="none" stroke="#9fb3c8" stroke-width="1.1" d="M847.86,-330.82C834.75,-307.47 810.91,-265 793.15,-233.35"/>
<polygon fill="#9fb3c8" stroke="#9fb3c8" stroke-width="1.1" points="793.11,-233.28 792.43,-225.64 791.4,-230.23 789.68,-227.18 789.68,-227.18 789.68,-227.18 791.4,-230.23 786.94,-228.72 793.11,-233.28 793.11,-233.28"/>
</g>
<!-- policies&#45;&gt;insurer_statement_lines -->
<g id="edge28" class="edge">
<title>policies&#45;&gt;insurer_statement_lines</title>
<path fill="none" stroke="#9fb3c8" stroke-width="1.1" d="M830.21,-332.26C812.23,-322 788.1,-308.45 766.5,-297 734.89,-280.25 723.82,-281.5 694.5,-261 685.91,-255 677.34,-248 669.25,-240.82"/>
<polygon fill="#9fb3c8" stroke="#9fb3c8" stroke-width="1.1" points="668.92,-240.52 665.85,-233.49 666.33,-238.18 663.73,-235.83 663.73,-235.83 663.73,-235.83 666.33,-238.18 661.62,-238.16 668.92,-240.52 668.92,-240.52"/>
</g>
<!-- receipt_applications -->
<g id="node22" class="node">
<title>receipt_applications</title>
<path fill="none" stroke="#5b6776" stroke-dasharray="5,2" d="M105,-473C105,-473 22,-473 22,-473 16,-473 10,-467 10,-461 10,-461 10,-449 10,-449 10,-443 16,-437 22,-437 22,-437 105,-437 105,-437 111,-437 117,-443 117,-449 117,-449 117,-461 117,-461 117,-467 111,-473 105,-473"/>
<text text-anchor="middle" x="63.5" y="-452.5" font-family="Nunito" font-size="10.00" fill="#5b6776">receipt_applications</text>
</g>
<!-- receipt_applications&#45;&gt;remittance_allocations -->
<g id="edge30" class="edge">
<title>receipt_applications&#45;&gt;remittance_allocations</title>
<path fill="none" stroke="#9fb3c8" stroke-width="1.1" d="M72.25,-436.83C76.43,-428.63 81.7,-418.29 87.13,-407.64"/>
<polygon fill="#9fb3c8" stroke="#9fb3c8" stroke-width="1.1" points="87.16,-407.58 93.14,-402.77 88.75,-404.46 90.34,-401.34 90.34,-401.34 90.34,-401.34 88.75,-404.46 87.53,-399.91 87.16,-407.58 87.16,-407.58"/>
</g>
</g>
</svg>
