<?xml version="1.0" encoding="UTF-8" standalone="no"?>
<!DOCTYPE svg PUBLIC "-//W3C//DTD SVG 1.1//EN"
 "http://www.w3.org/Graphics/SVG/1.1/DTD/svg11.dtd">
<!-- Generated by graphviz version 2.43.0 (0)
 -->
<!-- Title: ER Pages: 1 -->
<svg width="980pt" height="502pt"
 viewBox="0.00 0.00 979.82 501.80" xmlns="http://www.w3.org/2000/svg" xmlns:xlink="http://www.w3.org/1999/xlink">
<g id="graph0" class="graph" transform="scale(1 1) rotate(0) translate(14.4 487.4)">
<title>ER</title>
<polygon fill="white" stroke="transparent" points="-14.4,14.4 -14.4,-487.4 965.42,-487.4 965.42,14.4 -14.4,14.4"/>
<!-- remittances -->
<g id="node1" class="node">
<title>remittances</title>
<polygon fill="#0065b3" stroke="transparent" points="91.02,-383 91.02,-400 223.02,-400 223.02,-383 91.02,-383"/>
<text text-anchor="start" x="129.52" y="-390" font-family="Nunito" font-weight="bold" font-size="10.00" fill="white">remittances</text>
<text text-anchor="start" x="94.02" y="-373" font-family="Nunito" font-weight="bold" font-size="10.00">PK</text>
<text text-anchor="start" x="114.02" y="-372" font-family="Nunito" font-size="10.00">id</text>
<text text-anchor="start" x="94.02" y="-355" font-family="Nunito" font-size="10.00" fill="#5b6776">UK</text>
<text text-anchor="start" x="114.02" y="-355" font-family="Nunito" font-size="10.00">remittance_number</text>
<text text-anchor="start" x="94.02" y="-338" font-family="Nunito" font-size="10.00" fill="#0065b3">FK</text>
<text text-anchor="start" x="114.02" y="-339" font-family="Nunito" font-size="10.00">agent_user_id</text>
<text text-anchor="start" x="178.02" y="-339" font-family="Nunito" font-size="10.00" fill="#c0392b">*</text>
<text text-anchor="start" x="183.02" y="-339" font-family="Nunito" font-size="10.00"> </text>
<text text-anchor="start" x="186.02" y="-339" font-family="Nunito" font-size="8.00" fill="#5b6776">→ users</text>
<text text-anchor="start" x="94.02" y="-321" font-family="Nunito" font-size="10.00" fill="#0065b3">FK</text>
<text text-anchor="start" x="114.02" y="-322" font-family="Nunito" font-size="10.00">insurance_company_id</text>
<text text-anchor="start" x="215.02" y="-322" font-family="Nunito" font-size="10.00" fill="#c0392b">*</text>
<text text-anchor="start" x="94.02" y="-304" font-family="Nunito" font-size="10.00" fill="#5b6776">{ }</text>
<text text-anchor="start" x="114.02" y="-304" font-family="Nunito" font-size="10.00" fill="#5b6776">delivery_method, data</text>
<polygon fill="none" stroke="#0065b3" points="90.02,-297 90.02,-401 224.02,-401 224.02,-297 90.02,-297"/>
</g>
<!-- remittance_lines -->
<g id="node2" class="node">
<title>remittance_lines</title>
<polygon fill="#0065b3" stroke="transparent" points="60.02,-209 60.02,-226 152.02,-226 152.02,-209 60.02,-209"/>
<text text-anchor="start" x="68.02" y="-216" font-family="Nunito" font-weight="bold" font-size="10.00" fill="white">remittance_lines</text>
<text text-anchor="start" x="63.02" y="-199" font-family="Nunito" font-weight="bold" font-size="10.00">PK</text>
<text text-anchor="start" x="83.02" y="-198" font-family="Nunito" font-size="10.00">id</text>
<text text-anchor="start" x="63.02" y="-181" font-family="Nunito" font-size="10.00" fill="#0065b3">FK</text>
<text text-anchor="start" x="83.02" y="-182" font-family="Nunito" font-size="10.00">policy_id</text>
<text text-anchor="start" x="123.02" y="-182" font-family="Nunito" font-size="10.00" fill="#c0392b">*</text>
<text text-anchor="start" x="63.02" y="-164" font-family="Nunito" font-size="10.00" fill="#0065b3">FK</text>
<text text-anchor="start" x="83.02" y="-165" font-family="Nunito" font-size="10.00">remittance_id</text>
<text text-anchor="start" x="144.02" y="-165" font-family="Nunito" font-size="10.00" fill="#c0392b">*</text>
<polygon fill="none" stroke="#0065b3" points="59.02,-157 59.02,-227 153.02,-227 153.02,-157 59.02,-157"/>
</g>
<!-- remittances&#45;&gt;remittance_lines -->
<g id="edge16" class="edge">
<title>remittances&#45;&gt;remittance_lines</title>
<path fill="none" stroke="#9fb3c8" stroke-width="1.1" d="M140.18,-296.82C133.43,-276.31 125.77,-253.01 119.41,-233.69"/>
<polygon fill="#9fb3c8" stroke="#9fb3c8" stroke-width="1.1" points="119.41,-233.68 120.21,-226.05 118.31,-230.36 117.22,-227.03 117.22,-227.03 117.22,-227.03 118.31,-230.36 114.23,-228.01 119.41,-233.68 119.41,-233.68"/>
</g>
<!-- remittance_items -->
<g id="node3" class="node">
<title>remittance_items</title>
<polygon fill="#0065b3" stroke="transparent" points="172.02,-234 172.02,-251 304.02,-251 304.02,-234 172.02,-234"/>
<text text-anchor="start" x="198.02" y="-241" font-family="Nunito" font-weight="bold" font-size="10.00" fill="white">remittance_items</text>
<text text-anchor="start" x="175.02" y="-224" font-family="Nunito" font-weight="bold" font-size="10.00">PK</text>
<text text-anchor="start" x="195.02" y="-223" font-family="Nunito" font-size="10.00">id</text>
<text text-anchor="start" x="175.02" y="-206" font-family="Nunito" font-size="10.00" fill="#5b6776">UK</text>
<text text-anchor="start" x="195.02" y="-206" font-family="Nunito" font-size="10.00">reference_no</text>
<text text-anchor="start" x="175.02" y="-189" font-family="Nunito" font-size="10.00" fill="#0065b3">FK</text>
<text text-anchor="start" x="195.02" y="-190" font-family="Nunito" font-size="10.00">created_by</text>
<text text-anchor="start" x="246.02" y="-190" font-family="Nunito" font-size="10.00" fill="#c0392b">*</text>
<text text-anchor="start" x="251.02" y="-190" font-family="Nunito" font-size="10.00"> </text>
<text text-anchor="start" x="254.02" y="-190" font-family="Nunito" font-size="8.00" fill="#5b6776">→ users</text>
<text text-anchor="start" x="175.02" y="-172" font-family="Nunito" font-size="10.00" fill="#0065b3">FK</text>
<text text-anchor="start" x="195.02" y="-173" font-family="Nunito" font-size="10.00">insurance_company_id</text>
<text text-anchor="start" x="296.02" y="-173" font-family="Nunito" font-size="10.00" fill="#c0392b">*</text>
<text text-anchor="start" x="175.02" y="-155" font-family="Nunito" font-size="10.00" fill="#0065b3">FK</text>
<text text-anchor="start" x="195.02" y="-156" font-family="Nunito" font-size="10.00">remittance_id</text>
<text text-anchor="start" x="256.02" y="-156" font-family="Nunito" font-size="10.00" fill="#c0392b">*</text>
<text text-anchor="start" x="175.02" y="-138" font-family="Nunito" font-size="10.00" fill="#5b6776">{ }</text>
<text text-anchor="start" x="195.02" y="-138" font-family="Nunito" font-size="10.00" fill="#5b6776">data</text>
<polygon fill="none" stroke="#0065b3" points="171.02,-131.5 171.02,-252.5 305.02,-252.5 305.02,-131.5 171.02,-131.5"/>
</g>
<!-- remittances&#45;&gt;remittance_items -->
<g id="edge15" class="edge">
<title>remittances&#45;&gt;remittance_items</title>
<path fill="none" stroke="#9fb3c8" stroke-width="1.1" d="M183.77,-296.82C190.05,-284.8 196.83,-271.83 203.39,-259.26"/>
<polygon fill="#9fb3c8" stroke="#9fb3c8" stroke-width="1.1" points="203.56,-258.94 209.6,-254.19 205.19,-255.84 206.81,-252.73 206.81,-252.73 206.81,-252.73 205.19,-255.84 204.01,-251.27 203.56,-258.94 203.56,-258.94"/>
</g>
<!-- remittance_approvals -->
<g id="node4" class="node">
<title>remittance_approvals</title>
<polygon fill="#0065b3" stroke="transparent" points="698.02,-270 698.02,-287 821.02,-287 821.02,-270 698.02,-270"/>
<text text-anchor="start" x="709.52" y="-277" font-family="Nunito" font-weight="bold" font-size="10.00" fill="white">remittance_approvals</text>
<text text-anchor="start" x="701.02" y="-260" font-family="Nunito" font-weight="bold" font-size="10.00">PK</text>
<text text-anchor="start" x="721.02" y="-259" font-family="Nunito" font-size="10.00">id</text>
<text text-anchor="start" x="701.02" y="-242" font-family="Nunito" font-size="10.00" fill="#0065b3">FK</text>
<text text-anchor="start" x="721.02" y="-243" font-family="Nunito" font-size="10.00">action_by</text>
<text text-anchor="start" x="765.02" y="-243" font-family="Nunito" font-size="10.00" fill="#c0392b">*</text>
<text text-anchor="start" x="770.02" y="-243" font-family="Nunito" font-size="10.00"> </text>
<text text-anchor="start" x="773.02" y="-243" font-family="Nunito" font-size="8.00" fill="#5b6776">→ users</text>
<text text-anchor="start" x="701.02" y="-225" font-family="Nunito" font-size="10.00" fill="#0065b3">FK</text>
<text text-anchor="start" x="721.02" y="-226" font-family="Nunito" font-size="10.00">delegated_to</text>
<text text-anchor="start" x="781.02" y="-226" font-family="Nunito" font-size="10.00" fill="#c0392b">*</text>
<text text-anchor="start" x="786.02" y="-226" font-family="Nunito" font-size="10.00"> </text>
<text text-anchor="start" x="789.02" y="-226" font-family="Nunito" font-size="8.00" fill="#5b6776">→ users</text>
<text text-anchor="start" x="701.02" y="-208" font-family="Nunito" font-size="10.00" fill="#0065b3">FK</text>
<text text-anchor="start" x="721.02" y="-209" font-family="Nunito" font-size="10.00">initiator_id</text>
<text text-anchor="start" x="769.02" y="-209" font-family="Nunito" font-size="10.00" fill="#c0392b">*</text>
<text text-anchor="start" x="774.02" y="-209" font-family="Nunito" font-size="10.00"> </text>
<text text-anchor="start" x="777.02" y="-209" font-family="Nunito" font-size="8.00" fill="#5b6776">→ users</text>
<text text-anchor="start" x="701.02" y="-191" font-family="Nunito" font-size="10.00" fill="#5b6776">{ }</text>
<text text-anchor="start" x="721.02" y="-191" font-family="Nunito" font-size="10.00" fill="#5b6776">history</text>
<polygon fill="none" stroke="#0065b3" points="696.52,-184 696.52,-288 821.52,-288 821.52,-184 696.52,-184"/>
</g>
<!-- remittance_delegations -->
<g id="node5" class="node">
<title>remittance_delegations</title>
<polygon fill="#0065b3" stroke="transparent" points="830.02,-260.5 830.02,-277.5 950.02,-277.5 950.02,-260.5 830.02,-260.5"/>
<text text-anchor="start" x="836.02" y="-267.5" font-family="Nunito" font-weight="bold" font-size="10.00" fill="white">remittance_delegations</text>
<text text-anchor="start" x="833.02" y="-250.5" font-family="Nunito" font-weight="bold" font-size="10.00">PK</text>
<text text-anchor="start" x="853.02" y="-249.5" font-family="Nunito" font-size="10.00">id</text>
<text text-anchor="start" x="833.02" y="-232.5" font-family="Nunito" font-size="10.00" fill="#0065b3">FK</text>
<text text-anchor="start" x="853.02" y="-233.5" font-family="Nunito" font-size="10.00">delegate_id</text>
<text text-anchor="start" x="907.02" y="-233.5" font-family="Nunito" font-size="10.00" fill="#c0392b">*</text>
<text text-anchor="start" x="912.02" y="-233.5" font-family="Nunito" font-size="10.00"> </text>
<text text-anchor="start" x="915.02" y="-233.5" font-family="Nunito" font-size="8.00" fill="#5b6776">→ users</text>
<text text-anchor="start" x="833.02" y="-215.5" font-family="Nunito" font-size="10.00" fill="#0065b3">FK</text>
<text text-anchor="start" x="853.02" y="-216.5" font-family="Nunito" font-size="10.00">delegator_id</text>
<text text-anchor="start" x="910.02" y="-216.5" font-family="Nunito" font-size="10.00" fill="#c0392b">*</text>
<text text-anchor="start" x="915.02" y="-216.5" font-family="Nunito" font-size="10.00"> </text>
<text text-anchor="start" x="918.02" y="-216.5" font-family="Nunito" font-size="8.00" fill="#5b6776">→ users</text>
<text text-anchor="start" x="833.02" y="-198.5" font-family="Nunito" font-size="10.00" fill="#5b6776">{ }</text>
<text text-anchor="start" x="853.02" y="-198.5" font-family="Nunito" font-size="10.00" fill="#5b6776">trans_types</text>
<polygon fill="none" stroke="#0065b3" points="829.02,-192 829.02,-279 951.02,-279 951.02,-192 829.02,-192"/>
</g>
<!-- commission_debit_notes -->
<g id="node6" class="node">
<title>commission_debit_notes</title>
<polygon fill="#0065b3" stroke="transparent" points="528.02,-366 528.02,-383 655.02,-383 655.02,-366 528.02,-366"/>
<text text-anchor="start" x="534.02" y="-373" font-family="Nunito" font-weight="bold" font-size="10.00" fill="white">commission_debit_notes</text>
<text text-anchor="start" x="531.02" y="-356" font-family="Nunito" font-weight="bold" font-size="10.00">PK</text>
<text text-anchor="start" x="551.02" y="-355" font-family="Nunito" font-size="10.00">id</text>
<text text-anchor="start" x="531.02" y="-338" font-family="Nunito" font-size="10.00" fill="#5b6776">UK</text>
<text text-anchor="start" x="551.02" y="-338" font-family="Nunito" font-size="10.00">dn_number</text>
<text text-anchor="start" x="531.02" y="-321" font-family="Nunito" font-size="10.00" fill="#0065b3">FK</text>
<text text-anchor="start" x="551.02" y="-321" font-family="Nunito" font-size="10.00">insurance_company_id</text>
<polygon fill="none" stroke="#0065b3" points="526.52,-314 526.52,-384 655.52,-384 655.52,-314 526.52,-314"/>
</g>
<!-- commission_debit_note_lines -->
<g id="node7" class="node">
<title>commission_debit_note_lines</title>
<polygon fill="#0065b3" stroke="transparent" points="317.02,-68.5 317.02,-85.5 460.02,-85.5 460.02,-68.5 317.02,-68.5"/>
<text text-anchor="start" x="320.02" y="-75.5" font-family="Nunito" font-weight="bold" font-size="10.00" fill="white">commission_debit_note_lines</text>
<text text-anchor="start" x="320.02" y="-58.5" font-family="Nunito" font-weight="bold" font-size="10.00">PK</text>
<text text-anchor="start" x="367.02" y="-57.5" font-family="Nunito" font-size="10.00">id</text>
<text text-anchor="start" x="320.02" y="-40.5" font-family="Nunito" font-size="10.00" fill="#0065b3">FK</text>
<text text-anchor="start" x="367.02" y="-40.5" font-family="Nunito" font-size="10.00">debit_note_id</text>
<text text-anchor="start" x="320.02" y="-23.5" font-family="Nunito" font-size="10.00" fill="#0065b3">FK</text>
<text text-anchor="start" x="367.02" y="-24.5" font-family="Nunito" font-size="10.00">item_id</text>
<text text-anchor="start" x="401.02" y="-24.5" font-family="Nunito" font-size="10.00" fill="#c0392b">*</text>
<text text-anchor="start" x="320.02" y="-6.5" font-family="Nunito" font-size="10.00" fill="#0065b3">FK</text>
<text text-anchor="start" x="367.02" y="-7.5" font-family="Nunito" font-size="10.00">policy_id</text>
<text text-anchor="start" x="407.02" y="-7.5" font-family="Nunito" font-size="10.00" fill="#c0392b">*</text>
<polygon fill="none" stroke="#0065b3" points="315.52,0 315.52,-87 460.52,-87 460.52,0 315.52,0"/>
</g>
<!-- commission_debit_notes&#45;&gt;commission_debit_note_lines -->
<g id="edge2" class="edge">
<title>commission_debit_notes&#45;&gt;commission_debit_note_lines</title>
<path fill="none" stroke="#9fb3c8" stroke-width="1.1" d="M622.28,-313.85C634.01,-298.79 645.97,-280.17 652.02,-261 670.48,-202.51 688.69,-172.16 652.02,-123 629.77,-93.17 536.98,-70.59 467.65,-57.48"/>
<polygon fill="#9fb3c8" stroke="#9fb3c8" stroke-width="1.1" points="467.48,-57.45 461.18,-53.06 464.04,-56.8 460.6,-56.16 460.6,-56.16 460.6,-56.16 464.04,-56.8 460.02,-59.26 467.48,-57.45 467.48,-57.45"/>
</g>
<!-- commission_debit_note_collections -->
<g id="node8" class="node">
<title>commission_debit_note_collections</title>
<polygon fill="#0065b3" stroke="transparent" points="472.02,-217 472.02,-234 642.02,-234 642.02,-217 472.02,-217"/>
<text text-anchor="start" x="475.02" y="-224" font-family="Nunito" font-weight="bold" font-size="10.00" fill="white">commission_debit_note_collections</text>
<text text-anchor="start" x="475.02" y="-207" font-family="Nunito" font-weight="bold" font-size="10.00">PK</text>
<text text-anchor="start" x="525.02" y="-206" font-family="Nunito" font-size="10.00">id</text>
<text text-anchor="start" x="475.02" y="-189" font-family="Nunito" font-size="10.00" fill="#5b6776">UK</text>
<text text-anchor="start" x="525.02" y="-189" font-family="Nunito" font-size="10.00">collection_number</text>
<text text-anchor="start" x="475.02" y="-172" font-family="Nunito" font-size="10.00" fill="#0065b3">FK</text>
<text text-anchor="start" x="525.02" y="-172" font-family="Nunito" font-size="10.00">debit_note_id</text>
<text text-anchor="start" x="475.02" y="-155" font-family="Nunito" font-size="10.00" fill="#0065b3">FK</text>
<text text-anchor="start" x="525.02" y="-156" font-family="Nunito" font-size="10.00">journal_id</text>
<text text-anchor="start" x="570.02" y="-156" font-family="Nunito" font-size="10.00" fill="#c0392b">*</text>
<polygon fill="none" stroke="#0065b3" points="471.02,-148.5 471.02,-235.5 643.02,-235.5 643.02,-148.5 471.02,-148.5"/>
</g>
<!-- commission_debit_notes&#45;&gt;commission_debit_note_collections -->
<g id="edge1" class="edge">
<title>commission_debit_notes&#45;&gt;commission_debit_note_collections</title>
<path fill="none" stroke="#9fb3c8" stroke-width="1.1" d="M583.56,-313.98C578.97,-293.07 573.01,-265.9 567.9,-242.61"/>
<polygon fill="#9fb3c8" stroke="#9fb3c8" stroke-width="1.1" points="567.85,-242.36 569.43,-234.85 567.1,-238.94 566.35,-235.52 566.35,-235.52 566.35,-235.52 567.1,-238.94 563.27,-236.2 567.85,-242.36 567.85,-242.36"/>
</g>
<!-- direct_bill_items -->
<g id="node9" class="node">
<title>direct_bill_items</title>
<polygon fill="#0065b3" stroke="transparent" points="325.02,-243 325.02,-260 452.02,-260 452.02,-243 325.02,-243"/>
<text text-anchor="start" x="350.52" y="-250" font-family="Nunito" font-weight="bold" font-size="10.00" fill="white">direct_bill_items</text>
<text text-anchor="start" x="328.02" y="-233" font-family="Nunito" font-weight="bold" font-size="10.00">PK</text>
<text text-anchor="start" x="348.02" y="-232" font-family="Nunito" font-size="10.00">id</text>
<text text-anchor="start" x="328.02" y="-215" font-family="Nunito" font-size="10.00" fill="#0065b3">FK</text>
<text text-anchor="start" x="348.02" y="-216" font-family="Nunito" font-size="10.00">booking_jv_id</text>
<text text-anchor="start" x="410.02" y="-216" font-family="Nunito" font-size="10.00" fill="#c0392b">*</text>
<text text-anchor="start" x="328.02" y="-198" font-family="Nunito" font-size="10.00" fill="#0065b3">FK</text>
<text text-anchor="start" x="348.02" y="-199" font-family="Nunito" font-size="10.00">debit_note_id</text>
<text text-anchor="start" x="411.02" y="-199" font-family="Nunito" font-size="10.00" fill="#c0392b">*</text>
<text text-anchor="start" x="328.02" y="-181" font-family="Nunito" font-size="10.00" fill="#0065b3">FK</text>
<text text-anchor="start" x="348.02" y="-182" font-family="Nunito" font-size="10.00">endorsement_id</text>
<text text-anchor="start" x="421.02" y="-182" font-family="Nunito" font-size="10.00" fill="#c0392b">*</text>
<text text-anchor="start" x="328.02" y="-164" font-family="Nunito" font-size="10.00" fill="#0065b3">FK</text>
<text text-anchor="start" x="348.02" y="-164" font-family="Nunito" font-size="10.00">insurance_company_id</text>
<text text-anchor="start" x="328.02" y="-147" font-family="Nunito" font-size="10.00" fill="#0065b3">FK</text>
<text text-anchor="start" x="348.02" y="-147" font-family="Nunito" font-size="10.00">policy_id</text>
<text text-anchor="start" x="328.02" y="-130" font-family="Nunito" font-size="10.00" fill="#0065b3">FK</text>
<text text-anchor="start" x="348.02" y="-131" font-family="Nunito" font-size="10.00">reversal_jv_id</text>
<text text-anchor="start" x="410.02" y="-131" font-family="Nunito" font-size="10.00" fill="#c0392b">*</text>
<polygon fill="none" stroke="#0065b3" points="323.52,-123 323.52,-261 452.52,-261 452.52,-123 323.52,-123"/>
</g>
<!-- commission_debit_notes&#45;&gt;direct_bill_items -->
<g id="edge3" class="edge">
<title>commission_debit_notes&#45;&gt;direct_bill_items</title>
<path fill="none" stroke="#9fb3c8" stroke-width="1.1" d="M541.78,-313.82C533.53,-308.17 525.05,-302.39 517.02,-297 492.77,-280.71 485.08,-278.94 462.02,-261 460.89,-260.12 459.75,-259.22 458.6,-258.31"/>
<polygon fill="#9fb3c8" stroke="#9fb3c8" stroke-width="1.1" points="458.32,-258.08 454.87,-251.22 455.6,-255.87 452.88,-253.67 452.88,-253.67 452.88,-253.67 455.6,-255.87 450.9,-256.12 458.32,-258.08 458.32,-258.08"/>
</g>
<!-- direct_bill_items&#45;&gt;commission_debit_note_lines -->
<g id="edge4" class="edge">
<title>direct_bill_items&#45;&gt;commission_debit_note_lines</title>
<path fill="none" stroke="#9fb3c8" stroke-width="1.1" d="M388.02,-122.9C388.02,-113.35 388.02,-103.68 388.02,-94.54"/>
<polygon fill="#9fb3c8" stroke="#9fb3c8" stroke-width="1.1" points="388.02,-94.35 391.17,-87.35 388.02,-90.85 388.02,-87.35 388.02,-87.35 388.02,-87.35 388.02,-90.85 384.87,-87.35 388.02,-94.35 388.02,-94.35"/>
</g>
<!-- endorsements -->
<g id="node10" class="node">
<title>endorsements</title>
<path fill="none" stroke="#5b6776" stroke-dasharray="5,2" d="M348.02,-367C348.02,-367 292.02,-367 292.02,-367 286.02,-367 280.02,-361 280.02,-355 280.02,-355 280.02,-343 280.02,-343 280.02,-337 286.02,-331 292.02,-331 292.02,-331 348.02,-331 348.02,-331 354.02,-331 360.02,-337 360.02,-343 360.02,-343 360.02,-355 360.02,-355 360.02,-361 354.02,-367 348.02,-367"/>
<text text-anchor="middle" x="320.02" y="-346.5" font-family="Nunito" font-size="10.00" fill="#5b6776">endorsements</text>
</g>
<!-- endorsements&#45;&gt;direct_bill_items -->
<g id="edge5" class="edge">
<title>endorsements&#45;&gt;direct_bill_items</title>
<path fill="none" stroke="#9fb3c8" stroke-width="1.1" d="M327.56,-330.82C334.35,-315.33 344.84,-291.43 355.18,-267.85"/>
<polygon fill="#9fb3c8" stroke="#9fb3c8" stroke-width="1.1" points="355.28,-267.63 360.98,-262.48 356.69,-264.42 358.09,-261.22 358.09,-261.22 358.09,-261.22 356.69,-264.42 355.21,-259.95 355.28,-267.63 355.28,-267.63"/>
</g>
<!-- insurance_companies -->
<g id="node11" class="node">
<title>insurance_companies</title>
<path fill="none" stroke="#5b6776" stroke-dasharray="5,2" d="M363.52,-473C363.52,-473 276.52,-473 276.52,-473 270.52,-473 264.52,-467 264.52,-461 264.52,-461 264.52,-449 264.52,-449 264.52,-443 270.52,-437 276.52,-437 276.52,-437 363.52,-437 363.52,-437 369.52,-437 375.52,-443 375.52,-449 375.52,-449 375.52,-461 375.52,-461 375.52,-467 369.52,-473 363.52,-473"/>
<text text-anchor="middle" x="320.02" y="-452.5" font-family="Nunito" font-size="10.00" fill="#5b6776">insurance_companies</text>
</g>
<!-- insurance_companies&#45;&gt;remittances -->
<g id="edge9" class="edge">
<title>insurance_companies&#45;&gt;remittances</title>
<path fill="none" stroke="#9fb3c8" stroke-width="1.1" d="M293.11,-436.83C275.84,-425.81 252.53,-410.94 230.08,-396.61"/>
<polygon fill="#9fb3c8" stroke="#9fb3c8" stroke-width="1.1" points="229.99,-396.55 225.78,-390.13 227.04,-394.67 224.08,-392.79 224.08,-392.79 224.08,-392.79 227.04,-394.67 222.39,-395.44 229.99,-396.55 229.99,-396.55"/>
</g>
<!-- insurance_companies&#45;&gt;remittance_items -->
<g id="edge8" class="edge">
<title>insurance_companies&#45;&gt;remittance_items</title>
<path fill="none" stroke="#9fb3c8" stroke-width="1.1" d="M299.29,-436.94C289.14,-427.44 277.7,-414.75 271.02,-401 249.67,-357 241.62,-302.19 238.8,-259.89"/>
<polygon fill="#9fb3c8" stroke="#9fb3c8" stroke-width="1.1" points="238.79,-259.66 241.51,-252.48 238.58,-256.17 238.37,-252.67 238.37,-252.67 238.37,-252.67 238.58,-256.17 235.22,-252.86 238.79,-259.66 238.79,-259.66"/>
</g>
<!-- insurance_companies&#45;&gt;commission_debit_notes -->
<g id="edge6" class="edge">
<title>insurance_companies&#45;&gt;commission_debit_notes</title>
<path fill="none" stroke="#9fb3c8" stroke-width="1.1" d="M375.7,-444.3C416.14,-436.01 471.53,-422.03 517.02,-401 524.88,-397.37 532.8,-392.91 540.4,-388.17"/>
<polygon fill="#9fb3c8" stroke="#9fb3c8" stroke-width="1.1" points="540.8,-387.91 548.4,-386.77 543.75,-386.02 546.69,-384.12 546.69,-384.12 546.69,-384.12 543.75,-386.02 544.99,-381.47 540.8,-387.91 540.8,-387.91"/>
</g>
<!-- insurance_companies&#45;&gt;direct_bill_items -->
<g id="edge7" class="edge">
<title>insurance_companies&#45;&gt;direct_bill_items</title>
<path fill="none" stroke="#9fb3c8" stroke-width="1.1" d="M341.39,-436.89C351.57,-427.45 362.86,-414.85 369.02,-401 387.38,-359.75 392.37,-309.41 392.66,-268.59"/>
<polygon fill="#9fb3c8" stroke="#9fb3c8" stroke-width="1.1" points="392.66,-268.35 395.81,-261.35 392.66,-264.85 392.66,-261.35 392.66,-261.35 392.66,-261.35 392.66,-264.85 389.51,-261.34 392.66,-268.35 392.66,-268.35"/>
</g>
<!-- journal_vouchers -->
<g id="node12" class="node">
<title>journal_vouchers</title>
<path fill="none" stroke="#5b6776" stroke-dasharray="5,2" d="M496.02,-367C496.02,-367 428.02,-367 428.02,-367 422.02,-367 416.02,-361 416.02,-355 416.02,-355 416.02,-343 416.02,-343 416.02,-337 422.02,-331 428.02,-331 428.02,-331 496.02,-331 496.02,-331 502.02,-331 508.02,-337 508.02,-343 508.02,-343 508.02,-355 508.02,-355 508.02,-361 502.02,-367 496.02,-367"/>
<text text-anchor="middle" x="462.02" y="-346.5" font-family="Nunito" font-size="10.00" fill="#5b6776">journal_vouchers</text>
</g>
<!-- journal_vouchers&#45;&gt;commission_debit_note_collections -->
<g id="edge10" class="edge">
<title>journal_vouchers&#45;&gt;commission_debit_note_collections</title>
<path fill="none" stroke="#9fb3c8" stroke-width="1.1" d="M472.55,-330.82C485.64,-309.46 508.53,-272.12 527.18,-241.68"/>
<polygon fill="#9fb3c8" stroke="#9fb3c8" stroke-width="1.1" points="527.2,-241.66 533.54,-237.34 529.02,-238.68 530.85,-235.7 530.85,-235.7 530.85,-235.7 529.02,-238.68 528.17,-234.05 527.2,-241.66 527.2,-241.66"/>
</g>
<!-- journal_vouchers&#45;&gt;direct_bill_items -->
<g id="edge11" class="edge">
<title>journal_vouchers&#45;&gt;direct_bill_items</title>
<path fill="none" stroke="#9fb3c8" stroke-width="1.1" d="M453.82,-330.82C446.39,-315.26 434.91,-291.22 423.61,-267.55"/>
<polygon fill="#9fb3c8" stroke="#9fb3c8" stroke-width="1.1" points="423.61,-267.53 423.43,-259.86 422.1,-264.37 420.59,-261.22 420.59,-261.22 420.59,-261.22 422.1,-264.37 417.75,-262.57 423.61,-267.53 423.61,-267.53"/>
</g>
<!-- policies -->
<g id="node13" class="node">
<title>policies</title>
<path fill="none" stroke="#5b6776" stroke-dasharray="5,2" d="M60.02,-367C60.02,-367 30.02,-367 30.02,-367 24.02,-367 18.02,-361 18.02,-355 18.02,-355 18.02,-343 18.02,-343 18.02,-337 24.02,-331 30.02,-331 30.02,-331 60.02,-331 60.02,-331 66.02,-331 72.02,-337 72.02,-343 72.02,-343 72.02,-355 72.02,-355 72.02,-361 66.02,-367 60.02,-367"/>
<text text-anchor="middle" x="45.02" y="-346.5" font-family="Nunito" font-size="10.00" fill="#5b6776">policies</text>
</g>
<!-- policies&#45;&gt;remittance_lines -->
<g id="edge14" class="edge">
<title>policies&#45;&gt;remittance_lines</title>
<path fill="none" stroke="#9fb3c8" stroke-width="1.1" d="M51.78,-330.82C60.93,-307.57 77.55,-265.35 89.98,-233.75"/>
<polygon fill="#9fb3c8" stroke="#9fb3c8" stroke-width="1.1" points="90.01,-233.69 95.5,-228.33 91.29,-230.43 92.57,-227.18 92.57,-227.18 92.57,-227.18 91.29,-230.43 89.64,-226.02 90.01,-233.69 90.01,-233.69"/>
</g>
<!-- policies&#45;&gt;commission_debit_note_lines -->
<g id="edge12" class="edge">
<title>policies&#45;&gt;commission_debit_note_lines</title>
<path fill="none" stroke="#9fb3c8" stroke-width="1.1" d="M39.14,-330.98C26.17,-289.97 0,-184.55 50.02,-123 82.07,-83.57 218.63,-62.02 308.06,-51.91"/>
<polygon fill="#9fb3c8" stroke="#9fb3c8" stroke-width="1.1" points="308.26,-51.88 315.57,-54.24 311.74,-51.5 315.22,-51.11 315.22,-51.11 315.22,-51.11 311.74,-51.5 314.87,-47.98 308.26,-51.88 308.26,-51.88"/>
</g>
<!-- policies&#45;&gt;direct_bill_items -->
<g id="edge13" class="edge">
<title>policies&#45;&gt;direct_bill_items</title>
<path fill="none" stroke="#9fb3c8" stroke-width="1.1" d="M52.55,-331C58.57,-319.5 68.12,-304.99 81.02,-297 170.09,-241.81 219.59,-306.41 314.02,-261 315,-260.53 315.98,-260.04 316.96,-259.53"/>
<polygon fill="#9fb3c8" stroke="#9fb3c8" stroke-width="1.1" points="317.22,-259.39 324.86,-258.71 320.27,-257.67 323.32,-255.96 323.32,-255.96 323.32,-255.96 320.27,-257.67 321.78,-253.22 317.22,-259.39 317.22,-259.39"/>
</g>
</g>
</svg>
