<?xml version="1.0" encoding="UTF-8" standalone="no"?>
<!DOCTYPE svg PUBLIC "-//W3C//DTD SVG 1.1//EN"
 "http://www.w3.org/Graphics/SVG/1.1/DTD/svg11.dtd">
<!-- Generated by graphviz version 2.43.0 (0)
 -->
<!-- Title: ER Pages: 1 -->
<svg width="810pt" height="519pt"
 viewBox="0.00 0.00 809.74 518.80" xmlns="http://www.w3.org/2000/svg" xmlns:xlink="http://www.w3.org/1999/xlink">
<g id="graph0" class="graph" transform="scale(1 1) rotate(0) translate(14.4 504.4)">
<title>ER</title>
<polygon fill="white" stroke="transparent" points="-14.4,14.4 -14.4,-504.4 795.34,-504.4 795.34,14.4 -14.4,14.4"/>
<!-- reinsurers -->
<g id="node1" class="node">
<title>reinsurers</title>
<polygon fill="#0065b3" stroke="transparent" points="279.94,-471.5 279.94,-488.5 339.94,-488.5 339.94,-471.5 279.94,-471.5"/>
<text text-anchor="start" x="286.44" y="-478.5" font-family="Nunito" font-weight="bold" font-size="10.00" fill="white">reinsurers</text>
<text text-anchor="start" x="282.94" y="-461.5" font-family="Nunito" font-weight="bold" font-size="10.00">PK</text>
<text text-anchor="start" x="302.94" y="-460.5" font-family="Nunito" font-size="10.00">id</text>
<text text-anchor="start" x="282.94" y="-443.5" font-family="Nunito" font-size="10.00" fill="#5b6776">{ }</text>
<text text-anchor="start" x="302.94" y="-443.5" font-family="Nunito" font-size="10.00" fill="#5b6776">contact</text>
<polygon fill="none" stroke="#0065b3" points="278.94,-437 278.94,-490 340.94,-490 340.94,-437 278.94,-437"/>
</g>
<!-- cessions -->
<g id="node3" class="node">
<title>cessions</title>
<polygon fill="#0065b3" stroke="transparent" points="394.94,-365.5 394.94,-382.5 525.94,-382.5 525.94,-365.5 394.94,-365.5"/>
<text text-anchor="start" x="440.44" y="-372.5" font-family="Nunito" font-weight="bold" font-size="10.00" fill="white">cessions</text>
<text text-anchor="start" x="397.94" y="-355.5" font-family="Nunito" font-weight="bold" font-size="10.00">PK</text>
<text text-anchor="start" x="417.94" y="-354.5" font-family="Nunito" font-size="10.00">id</text>
<text text-anchor="start" x="397.94" y="-337.5" font-family="Nunito" font-size="10.00" fill="#0065b3">FK</text>
<text text-anchor="start" x="417.94" y="-337.5" font-family="Nunito" font-size="10.00">facultative_reinsurer_id</text>
<text text-anchor="start" x="397.94" y="-320.5" font-family="Nunito" font-size="10.00" fill="#0065b3">FK</text>
<text text-anchor="start" x="417.94" y="-320.5" font-family="Nunito" font-size="10.00">policy_id</text>
<text text-anchor="start" x="397.94" y="-303.5" font-family="Nunito" font-size="10.00" fill="#0065b3">FK</text>
<text text-anchor="start" x="417.94" y="-303.5" font-family="Nunito" font-size="10.00">treaty_id</text>
<polygon fill="none" stroke="#0065b3" points="393.44,-297 393.44,-384 526.44,-384 526.44,-297 393.44,-297"/>
</g>
<!-- reinsurers&#45;&gt;cessions -->
<g id="edge15" class="edge">
<title>reinsurers&#45;&gt;cessions</title>
<path fill="none" stroke="#9fb3c8" stroke-width="1.1" d="M341.02,-437.43C358.51,-423.32 380.92,-405.25 401.56,-388.6"/>
<polygon fill="#9fb3c8" stroke="#9fb3c8" stroke-width="1.1" points="401.6,-388.57 409.02,-386.63 404.32,-386.37 407.04,-384.17 407.04,-384.17 407.04,-384.17 404.32,-386.37 405.07,-381.72 401.6,-388.57 401.6,-388.57"/>
</g>
<!-- reinsurance_bordereaux -->
<g id="node5" class="node">
<title>reinsurance_bordereaux</title>
<polygon fill="#0065b3" stroke="transparent" points="31.94,-374.5 31.94,-391.5 149.94,-391.5 149.94,-374.5 31.94,-374.5"/>
<text text-anchor="start" x="34.94" y="-381.5" font-family="Nunito" font-weight="bold" font-size="10.00" fill="white">reinsurance_bordereaux</text>
<text text-anchor="start" x="34.94" y="-364.5" font-family="Nunito" font-weight="bold" font-size="10.00">PK</text>
<text text-anchor="start" x="73.94" y="-363.5" font-family="Nunito" font-size="10.00">id</text>
<text text-anchor="start" x="34.94" y="-346.5" font-family="Nunito" font-size="10.00" fill="#5b6776">UK</text>
<text text-anchor="start" x="73.94" y="-346.5" font-family="Nunito" font-size="10.00">reference</text>
<text text-anchor="start" x="34.94" y="-329.5" font-family="Nunito" font-size="10.00" fill="#0065b3">FK</text>
<text text-anchor="start" x="73.94" y="-329.5" font-family="Nunito" font-size="10.00">reinsurer_id</text>
<text text-anchor="start" x="34.94" y="-312.5" font-family="Nunito" font-size="10.00" fill="#0065b3">FK</text>
<text text-anchor="start" x="73.94" y="-312.5" font-family="Nunito" font-size="10.00">treaty_id</text>
<text text-anchor="start" x="34.94" y="-295.5" font-family="Nunito" font-size="10.00" fill="#5b6776">{ }</text>
<text text-anchor="start" x="73.94" y="-295.5" font-family="Nunito" font-size="10.00" fill="#5b6776">totals</text>
<polygon fill="none" stroke="#0065b3" points="30.94,-288.5 30.94,-392.5 150.94,-392.5 150.94,-288.5 30.94,-288.5"/>
</g>
<!-- reinsurers&#45;&gt;reinsurance_bordereaux -->
<g id="edge17" class="edge">
<title>reinsurers&#45;&gt;reinsurance_bordereaux</title>
<path fill="none" stroke="#9fb3c8" stroke-width="1.1" d="M278.68,-452.98C247.33,-442.69 198.33,-424.55 159.94,-401 157.72,-399.64 155.5,-398.2 153.29,-396.71"/>
<polygon fill="#9fb3c8" stroke="#9fb3c8" stroke-width="1.1" points="153.21,-396.66 149.27,-390.07 150.34,-394.65 147.47,-392.65 147.47,-392.65 147.47,-392.65 150.34,-394.65 145.67,-395.23 153.21,-396.66 153.21,-396.66"/>
</g>
<!-- reinsurance_reconciliations -->
<g id="node6" class="node">
<title>reinsurance_reconciliations</title>
<polygon fill="#0065b3" stroke="transparent" points="170.94,-357.5 170.94,-374.5 301.94,-374.5 301.94,-357.5 170.94,-357.5"/>
<text text-anchor="start" x="173.94" y="-364.5" font-family="Nunito" font-weight="bold" font-size="10.00" fill="white">reinsurance_reconciliations</text>
<text text-anchor="start" x="173.94" y="-347.5" font-family="Nunito" font-weight="bold" font-size="10.00">PK</text>
<text text-anchor="start" x="219.94" y="-346.5" font-family="Nunito" font-size="10.00">id</text>
<text text-anchor="start" x="173.94" y="-329.5" font-family="Nunito" font-size="10.00" fill="#5b6776">UK</text>
<text text-anchor="start" x="219.94" y="-329.5" font-family="Nunito" font-size="10.00">reference</text>
<text text-anchor="start" x="173.94" y="-312.5" font-family="Nunito" font-size="10.00" fill="#0065b3">FK</text>
<text text-anchor="start" x="219.94" y="-312.5" font-family="Nunito" font-size="10.00">reinsurer_id</text>
<polygon fill="none" stroke="#0065b3" points="169.44,-305.5 169.44,-375.5 302.44,-375.5 302.44,-305.5 169.44,-305.5"/>
</g>
<!-- reinsurers&#45;&gt;reinsurance_reconciliations -->
<g id="edge18" class="edge">
<title>reinsurers&#45;&gt;reinsurance_reconciliations</title>
<path fill="none" stroke="#9fb3c8" stroke-width="1.1" d="M294.25,-436.84C284.49,-420.88 271.74,-400.02 260.64,-381.89"/>
<polygon fill="#9fb3c8" stroke="#9fb3c8" stroke-width="1.1" points="260.6,-381.82 259.64,-374.21 258.78,-378.84 256.95,-375.85 256.95,-375.85 256.95,-375.85 258.78,-378.84 254.27,-377.49 260.6,-381.82 260.6,-381.82"/>
</g>
<!-- fac_placement_shares -->
<g id="node9" class="node">
<title>fac_placement_shares</title>
<polygon fill="#0065b3" stroke="transparent" points="532.94,-200.5 532.94,-217.5 641.94,-217.5 641.94,-200.5 532.94,-200.5"/>
<text text-anchor="start" x="535.94" y="-207.5" font-family="Nunito" font-weight="bold" font-size="10.00" fill="white">fac_placement_shares</text>
<text text-anchor="start" x="535.94" y="-190.5" font-family="Nunito" font-weight="bold" font-size="10.00">PK</text>
<text text-anchor="start" x="566.94" y="-189.5" font-family="Nunito" font-size="10.00">id</text>
<text text-anchor="start" x="535.94" y="-172.5" font-family="Nunito" font-size="10.00" fill="#0065b3">FK</text>
<text text-anchor="start" x="566.94" y="-172.5" font-family="Nunito" font-size="10.00">placement_id</text>
<text text-anchor="start" x="535.94" y="-155.5" font-family="Nunito" font-size="10.00" fill="#0065b3">FK</text>
<text text-anchor="start" x="566.94" y="-155.5" font-family="Nunito" font-size="10.00">reinsurer_id</text>
<polygon fill="none" stroke="#0065b3" points="531.44,-148.5 531.44,-218.5 642.44,-218.5 642.44,-148.5 531.44,-148.5"/>
</g>
<!-- reinsurers&#45;&gt;fac_placement_shares -->
<g id="edge16" class="edge">
<title>reinsurers&#45;&gt;fac_placement_shares</title>
<path fill="none" stroke="#9fb3c8" stroke-width="1.1" d="M341.32,-457.92C396.61,-449.23 508.1,-428.7 534.94,-401 558.83,-376.36 574.59,-281.78 582.01,-226.11"/>
<polygon fill="#9fb3c8" stroke="#9fb3c8" stroke-width="1.1" points="582.06,-225.8 586.09,-219.27 582.51,-222.33 582.96,-218.86 582.96,-218.86 582.96,-218.86 582.51,-222.33 579.84,-218.45 582.06,-225.8 582.06,-225.8"/>
</g>
<!-- reinsurance_treaties -->
<g id="node2" class="node">
<title>reinsurance_treaties</title>
<polygon fill="#0065b3" stroke="transparent" points="33.94,-471.5 33.94,-488.5 147.94,-488.5 147.94,-471.5 33.94,-471.5"/>
<text text-anchor="start" x="44.44" y="-478.5" font-family="Nunito" font-weight="bold" font-size="10.00" fill="white">reinsurance_treaties</text>
<text text-anchor="start" x="36.94" y="-461.5" font-family="Nunito" font-weight="bold" font-size="10.00">PK</text>
<text text-anchor="start" x="56.94" y="-460.5" font-family="Nunito" font-size="10.00">id</text>
<text text-anchor="start" x="36.94" y="-443.5" font-family="Nunito" font-size="10.00" fill="#5b6776">{ }</text>
<text text-anchor="start" x="56.94" y="-443.5" font-family="Nunito" font-size="10.00" fill="#5b6776">reinsurer_ids, terms</text>
<polygon fill="none" stroke="#0065b3" points="32.94,-437 32.94,-490 148.94,-490 148.94,-437 32.94,-437"/>
</g>
<!-- reinsurance_treaties&#45;&gt;cessions -->
<g id="edge12" class="edge">
<title>reinsurance_treaties&#45;&gt;cessions</title>
<path fill="none" stroke="#9fb3c8" stroke-width="1.1" d="M149.25,-453.49C222.32,-441.63 342.95,-420.08 383.94,-401 391.54,-397.46 399.07,-393.04 406.27,-388.21"/>
<polygon fill="#9fb3c8" stroke="#9fb3c8" stroke-width="1.1" points="406.48,-388.06 414.03,-386.65 409.35,-386.06 412.23,-384.07 412.23,-384.07 412.23,-384.07 409.35,-386.06 410.43,-381.48 406.48,-388.06 406.48,-388.06"/>
</g>
<!-- reinsurance_recoveries -->
<g id="node4" class="node">
<title>reinsurance_recoveries</title>
<polygon fill="#0065b3" stroke="transparent" points="299.94,-225.5 299.94,-242.5 419.94,-242.5 419.94,-225.5 299.94,-225.5"/>
<text text-anchor="start" x="306.94" y="-232.5" font-family="Nunito" font-weight="bold" font-size="10.00" fill="white">reinsurance_recoveries</text>
<text text-anchor="start" x="302.94" y="-215.5" font-family="Nunito" font-weight="bold" font-size="10.00">PK</text>
<text text-anchor="start" x="322.94" y="-214.5" font-family="Nunito" font-size="10.00">id</text>
<text text-anchor="start" x="302.94" y="-197.5" font-family="Nunito" font-size="10.00" fill="#5b6776">UK</text>
<text text-anchor="start" x="322.94" y="-197.5" font-family="Nunito" font-size="10.00">recovery_number</text>
<text text-anchor="start" x="302.94" y="-180.5" font-family="Nunito" font-size="10.00" fill="#0065b3">FK</text>
<text text-anchor="start" x="322.94" y="-180.5" font-family="Nunito" font-size="10.00">cession_id</text>
<text text-anchor="start" x="302.94" y="-163.5" font-family="Nunito" font-size="10.00" fill="#0065b3">FK</text>
<text text-anchor="start" x="322.94" y="-163.5" font-family="Nunito" font-size="10.00">claim_id</text>
<text text-anchor="start" x="302.94" y="-146.5" font-family="Nunito" font-size="10.00" fill="#0065b3">FK</text>
<text text-anchor="start" x="322.94" y="-146.5" font-family="Nunito" font-size="10.00">treaty_id</text>
<text text-anchor="start" x="302.94" y="-129.5" font-family="Nunito" font-size="10.00" fill="#5b6776">{ }</text>
<text text-anchor="start" x="322.94" y="-129.5" font-family="Nunito" font-size="10.00" fill="#5b6776">cash_call, documents</text>
<polygon fill="none" stroke="#0065b3" points="298.94,-123 298.94,-244 420.94,-244 420.94,-123 298.94,-123"/>
</g>
<!-- reinsurance_treaties&#45;&gt;reinsurance_recoveries -->
<g id="edge14" class="edge">
<title>reinsurance_treaties&#45;&gt;reinsurance_recoveries</title>
<path fill="none" stroke="#9fb3c8" stroke-width="1.1" d="M51.16,-436.93C39.52,-427.22 28.25,-415.06 21.94,-401 -0.05,-351.93 -13.46,-320.48 21.94,-280 61.51,-234.77 235.05,-268.45 289.94,-244 290.67,-243.68 291.4,-243.34 292.12,-243"/>
<polygon fill="#9fb3c8" stroke="#9fb3c8" stroke-width="1.1" points="292.37,-242.87 300.03,-242.46 295.48,-241.26 298.59,-239.66 298.59,-239.66 298.59,-239.66 295.48,-241.26 297.14,-236.86 292.37,-242.87 292.37,-242.87"/>
</g>
<!-- reinsurance_treaties&#45;&gt;reinsurance_bordereaux -->
<g id="edge13" class="edge">
<title>reinsurance_treaties&#45;&gt;reinsurance_bordereaux</title>
<path fill="none" stroke="#9fb3c8" stroke-width="1.1" d="M90.94,-436.84C90.94,-425.95 90.94,-412.78 90.94,-399.75"/>
<polygon fill="#9fb3c8" stroke="#9fb3c8" stroke-width="1.1" points="90.94,-399.54 94.09,-392.54 90.94,-396.04 90.94,-392.54 90.94,-392.54 90.94,-392.54 90.94,-396.04 87.79,-392.54 90.94,-399.54 90.94,-399.54"/>
</g>
<!-- cessions&#45;&gt;reinsurance_recoveries -->
<g id="edge1" class="edge">
<title>cessions&#45;&gt;reinsurance_recoveries</title>
<path fill="none" stroke="#9fb3c8" stroke-width="1.1" d="M432.35,-296.74C423.12,-282.42 412.59,-266.1 402.48,-250.44"/>
<polygon fill="#9fb3c8" stroke="#9fb3c8" stroke-width="1.1" points="402.28,-250.12 401.13,-242.53 400.38,-247.18 398.49,-244.24 398.49,-244.24 398.49,-244.24 400.38,-247.18 395.84,-245.95 402.28,-250.12 402.28,-250.12"/>
</g>
<!-- reinsurance_exceptions -->
<g id="node7" class="node">
<title>reinsurance_exceptions</title>
<polygon fill="#0065b3" stroke="transparent" points="165.94,-191.5 165.94,-208.5 279.94,-208.5 279.94,-191.5 165.94,-191.5"/>
<text text-anchor="start" x="168.94" y="-198.5" font-family="Nunito" font-weight="bold" font-size="10.00" fill="white">reinsurance_exceptions</text>
<text text-anchor="start" x="168.94" y="-181.5" font-family="Nunito" font-weight="bold" font-size="10.00">PK</text>
<text text-anchor="start" x="195.94" y="-180.5" font-family="Nunito" font-size="10.00">id</text>
<text text-anchor="start" x="168.94" y="-163.5" font-family="Nunito" font-size="10.00" fill="#0065b3">FK</text>
<text text-anchor="start" x="195.94" y="-163.5" font-family="Nunito" font-size="10.00">reconciliation_id</text>
<polygon fill="none" stroke="#0065b3" points="164.94,-157 164.94,-210 280.94,-210 280.94,-157 164.94,-157"/>
</g>
<!-- reinsurance_reconciliations&#45;&gt;reinsurance_exceptions -->
<g id="edge11" class="edge">
<title>reinsurance_reconciliations&#45;&gt;reinsurance_exceptions</title>
<path fill="none" stroke="#9fb3c8" stroke-width="1.1" d="M233.09,-305.48C230.89,-279.26 227.87,-243.2 225.69,-217.29"/>
<polygon fill="#9fb3c8" stroke="#9fb3c8" stroke-width="1.1" points="225.69,-217.24 228.24,-210 225.4,-213.75 225.11,-210.26 225.11,-210.26 225.11,-210.26 225.4,-213.75 221.97,-210.53 225.69,-217.24 225.69,-217.24"/>
</g>
<!-- fac_placements -->
<g id="node8" class="node">
<title>fac_placements</title>
<polygon fill="#0065b3" stroke="transparent" points="583.94,-382.5 583.94,-399.5 705.94,-399.5 705.94,-382.5 583.94,-382.5"/>
<text text-anchor="start" x="608.44" y="-389.5" font-family="Nunito" font-weight="bold" font-size="10.00" fill="white">fac_placements</text>
<text text-anchor="start" x="586.94" y="-372.5" font-family="Nunito" font-weight="bold" font-size="10.00">PK</text>
<text text-anchor="start" x="606.94" y="-371.5" font-family="Nunito" font-size="10.00">id</text>
<text text-anchor="start" x="586.94" y="-354.5" font-family="Nunito" font-size="10.00" fill="#5b6776">UK</text>
<text text-anchor="start" x="606.94" y="-354.5" font-family="Nunito" font-size="10.00">slip_number</text>
<text text-anchor="start" x="586.94" y="-337.5" font-family="Nunito" font-size="10.00" fill="#0065b3">FK</text>
<text text-anchor="start" x="606.94" y="-337.5" font-family="Nunito" font-size="10.00">cedant_id</text>
<text text-anchor="start" x="586.94" y="-320.5" font-family="Nunito" font-size="10.00" fill="#0065b3">FK</text>
<text text-anchor="start" x="606.94" y="-320.5" font-family="Nunito" font-size="10.00">journal_id</text>
<text text-anchor="start" x="586.94" y="-303.5" font-family="Nunito" font-size="10.00" fill="#0065b3">FK</text>
<text text-anchor="start" x="606.94" y="-304.5" font-family="Nunito" font-size="10.00">owner_user_id </text>
<text text-anchor="start" x="673.94" y="-304.5" font-family="Nunito" font-size="8.00" fill="#5b6776">→ users</text>
<text text-anchor="start" x="586.94" y="-286.5" font-family="Nunito" font-size="10.00" fill="#0065b3">FK</text>
<text text-anchor="start" x="606.94" y="-286.5" font-family="Nunito" font-size="10.00">policy_id</text>
<polygon fill="none" stroke="#0065b3" points="582.94,-280 582.94,-401 706.94,-401 706.94,-280 582.94,-280"/>
</g>
<!-- fac_placements&#45;&gt;fac_placement_shares -->
<g id="edge4" class="edge">
<title>fac_placements&#45;&gt;fac_placement_shares</title>
<path fill="none" stroke="#9fb3c8" stroke-width="1.1" d="M622.52,-279.57C615.77,-261.53 608.52,-242.15 602.33,-225.63"/>
<polygon fill="#9fb3c8" stroke="#9fb3c8" stroke-width="1.1" points="602.21,-225.29 602.7,-217.63 600.98,-222.01 599.75,-218.73 599.75,-218.73 599.75,-218.73 600.98,-222.01 596.8,-219.84 602.21,-225.29 602.21,-225.29"/>
</g>
<!-- fac_settlements -->
<g id="node10" class="node">
<title>fac_settlements</title>
<polygon fill="#0065b3" stroke="transparent" points="627.94,-68.5 627.94,-85.5 714.94,-85.5 714.94,-68.5 627.94,-68.5"/>
<text text-anchor="start" x="633.94" y="-75.5" font-family="Nunito" font-weight="bold" font-size="10.00" fill="white">fac_settlements</text>
<text text-anchor="start" x="630.94" y="-58.5" font-family="Nunito" font-weight="bold" font-size="10.00">PK</text>
<text text-anchor="start" x="650.94" y="-57.5" font-family="Nunito" font-size="10.00">id</text>
<text text-anchor="start" x="630.94" y="-40.5" font-family="Nunito" font-size="10.00" fill="#0065b3">FK</text>
<text text-anchor="start" x="650.94" y="-40.5" font-family="Nunito" font-size="10.00">journal_id</text>
<text text-anchor="start" x="630.94" y="-23.5" font-family="Nunito" font-size="10.00" fill="#0065b3">FK</text>
<text text-anchor="start" x="650.94" y="-23.5" font-family="Nunito" font-size="10.00">placement_id</text>
<text text-anchor="start" x="630.94" y="-6.5" font-family="Nunito" font-size="10.00" fill="#0065b3">FK</text>
<text text-anchor="start" x="650.94" y="-6.5" font-family="Nunito" font-size="10.00">share_id</text>
<polygon fill="none" stroke="#0065b3" points="626.44,0 626.44,-87 715.44,-87 715.44,0 626.44,0"/>
</g>
<!-- fac_placements&#45;&gt;fac_settlements -->
<g id="edge5" class="edge">
<title>fac_placements&#45;&gt;fac_settlements</title>
<path fill="none" stroke="#9fb3c8" stroke-width="1.1" d="M650.21,-279.8C655.01,-225.29 662.03,-145.63 666.54,-94.42"/>
<polygon fill="#9fb3c8" stroke="#9fb3c8" stroke-width="1.1" points="666.55,-94.36 670.3,-87.67 666.86,-90.88 667.16,-87.39 667.16,-87.39 667.16,-87.39 666.86,-90.88 664.03,-87.11 666.55,-94.36 666.55,-94.36"/>
</g>
<!-- fac_placement_shares&#45;&gt;fac_settlements -->
<g id="edge3" class="edge">
<title>fac_placement_shares&#45;&gt;fac_settlements</title>
<path fill="none" stroke="#9fb3c8" stroke-width="1.1" d="M607.71,-148.39C617.84,-131.75 630.2,-111.44 641.3,-93.21"/>
<polygon fill="#9fb3c8" stroke="#9fb3c8" stroke-width="1.1" points="641.37,-93.09 647.7,-88.75 643.19,-90.1 645.01,-87.11 645.01,-87.11 645.01,-87.11 643.19,-90.1 642.32,-85.48 641.37,-93.09 641.37,-93.09"/>
</g>
<!-- claims -->
<g id="node11" class="node">
<title>claims</title>
<path fill="none" stroke="#5b6776" stroke-dasharray="5,2" d="M362.94,-358.5C362.94,-358.5 332.94,-358.5 332.94,-358.5 326.94,-358.5 320.94,-352.5 320.94,-346.5 320.94,-346.5 320.94,-334.5 320.94,-334.5 320.94,-328.5 326.94,-322.5 332.94,-322.5 332.94,-322.5 362.94,-322.5 362.94,-322.5 368.94,-322.5 374.94,-328.5 374.94,-334.5 374.94,-334.5 374.94,-346.5 374.94,-346.5 374.94,-352.5 368.94,-358.5 362.94,-358.5"/>
<text text-anchor="middle" x="347.94" y="-338" font-family="Nunito" font-size="10.00" fill="#5b6776">claims</text>
</g>
<!-- claims&#45;&gt;reinsurance_recoveries -->
<g id="edge2" class="edge">
<title>claims&#45;&gt;reinsurance_recoveries</title>
<path fill="none" stroke="#9fb3c8" stroke-width="1.1" d="M349.27,-322.32C350.61,-305.1 352.75,-277.48 354.76,-251.48"/>
<polygon fill="#9fb3c8" stroke="#9fb3c8" stroke-width="1.1" points="354.78,-251.18 358.46,-244.44 355.05,-247.69 355.32,-244.2 355.32,-244.2 355.32,-244.2 355.05,-247.69 352.18,-243.95 354.78,-251.18 354.78,-251.18"/>
</g>
<!-- insurance_companies -->
<g id="node12" class="node">
<title>insurance_companies</title>
<path fill="none" stroke="#5b6776" stroke-dasharray="5,2" d="M658.44,-481.5C658.44,-481.5 571.44,-481.5 571.44,-481.5 565.44,-481.5 559.44,-475.5 559.44,-469.5 559.44,-469.5 559.44,-457.5 559.44,-457.5 559.44,-451.5 565.44,-445.5 571.44,-445.5 571.44,-445.5 658.44,-445.5 658.44,-445.5 664.44,-445.5 670.44,-451.5 670.44,-457.5 670.44,-457.5 670.44,-469.5 670.44,-469.5 670.44,-475.5 664.44,-481.5 658.44,-481.5"/>
<text text-anchor="middle" x="614.94" y="-461" font-family="Nunito" font-size="10.00" fill="#5b6776">insurance_companies</text>
</g>
<!-- insurance_companies&#45;&gt;fac_placements -->
<g id="edge6" class="edge">
<title>insurance_companies&#45;&gt;fac_placements</title>
<path fill="none" stroke="#9fb3c8" stroke-width="1.1" d="M619.18,-445.42C621.68,-435.34 625.02,-421.87 628.46,-407.97"/>
<polygon fill="#9fb3c8" stroke="#9fb3c8" stroke-width="1.1" points="628.48,-407.92 633.22,-401.89 629.32,-404.52 630.16,-401.13 630.16,-401.13 630.16,-401.13 629.32,-404.52 627.1,-400.37 628.48,-407.92 628.48,-407.92"/>
</g>
<!-- journal_vouchers -->
<g id="node13" class="node">
<title>journal_vouchers</title>
<path fill="none" stroke="#5b6776" stroke-dasharray="5,2" d="M768.94,-481.5C768.94,-481.5 700.94,-481.5 700.94,-481.5 694.94,-481.5 688.94,-475.5 688.94,-469.5 688.94,-469.5 688.94,-457.5 688.94,-457.5 688.94,-451.5 694.94,-445.5 700.94,-445.5 700.94,-445.5 768.94,-445.5 768.94,-445.5 774.94,-445.5 780.94,-451.5 780.94,-457.5 780.94,-457.5 780.94,-469.5 780.94,-469.5 780.94,-475.5 774.94,-481.5 768.94,-481.5"/>
<text text-anchor="middle" x="734.94" y="-461" font-family="Nunito" font-size="10.00" fill="#5b6776">journal_vouchers</text>
</g>
<!-- journal_vouchers&#45;&gt;fac_placements -->
<g id="edge7" class="edge">
<title>journal_vouchers&#45;&gt;fac_placements</title>
<path fill="none" stroke="#9fb3c8" stroke-width="1.1" d="M722.24,-445.42C714.54,-435.07 704.18,-421.13 693.54,-406.83"/>
<polygon fill="#9fb3c8" stroke="#9fb3c8" stroke-width="1.1" points="693.47,-406.74 691.82,-399.25 691.38,-403.94 689.3,-401.13 689.3,-401.13 689.3,-401.13 691.38,-403.94 686.77,-403.01 693.47,-406.74 693.47,-406.74"/>
</g>
<!-- journal_vouchers&#45;&gt;fac_settlements -->
<g id="edge8" class="edge">
<title>journal_vouchers&#45;&gt;fac_settlements</title>
<path fill="none" stroke="#9fb3c8" stroke-width="1.1" d="M733.65,-445.33C731.09,-412.91 724.86,-340.51 715.94,-280 706.45,-215.57 691.75,-141.92 681.76,-94.4"/>
<polygon fill="#9fb3c8" stroke="#9fb3c8" stroke-width="1.1" points="681.7,-94.14 683.34,-86.64 680.98,-90.71 680.26,-87.29 680.26,-87.29 680.26,-87.29 680.98,-90.71 677.17,-87.94 681.7,-94.14 681.7,-94.14"/>
</g>
<!-- policies -->
<g id="node14" class="node">
<title>policies</title>
<path fill="none" stroke="#5b6776" stroke-dasharray="5,2" d="M501.94,-481.5C501.94,-481.5 471.94,-481.5 471.94,-481.5 465.94,-481.5 459.94,-475.5 459.94,-469.5 459.94,-469.5 459.94,-457.5 459.94,-457.5 459.94,-451.5 465.94,-445.5 471.94,-445.5 471.94,-445.5 501.94,-445.5 501.94,-445.5 507.94,-445.5 513.94,-451.5 513.94,-457.5 513.94,-457.5 513.94,-469.5 513.94,-469.5 513.94,-475.5 507.94,-481.5 501.94,-481.5"/>
<text text-anchor="middle" x="486.94" y="-461" font-family="Nunito" font-size="10.00" fill="#5b6776">policies</text>
</g>
<!-- policies&#45;&gt;cessions -->
<g id="edge9" class="edge">
<title>policies&#45;&gt;cessions</title>
<path fill="none" stroke="#9fb3c8" stroke-width="1.1" d="M483.13,-445.42C479.97,-431.26 475.32,-410.4 471.01,-391.08"/>
<polygon fill="#9fb3c8" stroke="#9fb3c8" stroke-width="1.1" points="470.96,-390.88 472.51,-383.36 470.2,-387.46 469.44,-384.05 469.44,-384.05 469.44,-384.05 470.2,-387.46 466.36,-384.73 470.96,-390.88 470.96,-390.88"/>
</g>
<!-- policies&#45;&gt;fac_placements -->
<g id="edge10" class="edge">
<title>policies&#45;&gt;fac_placements</title>
<path fill="none" stroke="#9fb3c8" stroke-width="1.1" d="M510.02,-445.4C526.5,-433.13 549.17,-416.15 568.94,-401 571.63,-398.94 574.36,-396.84 577.12,-394.71"/>
<polygon fill="#9fb3c8" stroke="#9fb3c8" stroke-width="1.1" points="577.27,-394.59 584.74,-392.8 580.04,-392.45 582.81,-390.31 582.81,-390.31 582.81,-390.31 580.04,-392.45 580.89,-387.82 577.27,-394.59 577.27,-394.59"/>
</g>
</g>
</svg>
