<?xml version="1.0" encoding="UTF-8" standalone="no"?>
<!DOCTYPE svg PUBLIC "-//W3C//DTD SVG 1.1//EN"
 "http://www.w3.org/Graphics/SVG/1.1/DTD/svg11.dtd">
<!-- Generated by graphviz version 2.43.0 (0)
 -->
<!-- Title: ER Pages: 1 -->
<svg width="594pt" height="1020pt"
 viewBox="0.00 0.00 594.09 1019.80" xmlns="http://www.w3.org/2000/svg" xmlns:xlink="http://www.w3.org/1999/xlink">
<g id="graph0" class="graph" transform="scale(1 1) rotate(0) translate(14.4 1005.4)">
<title>ER</title>
<polygon fill="white" stroke="transparent" points="-14.4,14.4 -14.4,-1005.4 579.69,-1005.4 579.69,14.4 -14.4,14.4"/>
<!-- leads -->
<g id="node1" class="node">
<title>leads</title>
<polygon fill="#0065b3" stroke="transparent" points="18.97,-900.5 18.97,-917.5 146.97,-917.5 146.97,-900.5 18.97,-900.5"/>
<text text-anchor="start" x="70.47" y="-907.5" font-family="Nunito" font-weight="bold" font-size="10.00" fill="white">leads</text>
<text text-anchor="start" x="21.97" y="-890.5" font-family="Nunito" font-weight="bold" font-size="10.00">PK</text>
<text text-anchor="start" x="41.97" y="-889.5" font-family="Nunito" font-size="10.00">id</text>
<text text-anchor="start" x="21.97" y="-872.5" font-family="Nunito" font-size="10.00" fill="#5b6776">UK</text>
<text text-anchor="start" x="41.97" y="-872.5" font-family="Nunito" font-size="10.00">lead_number</text>
<text text-anchor="start" x="21.97" y="-855.5" font-family="Nunito" font-size="10.00" fill="#0065b3">FK</text>
<text text-anchor="start" x="41.97" y="-856.5" font-family="Nunito" font-size="10.00">client_id</text>
<text text-anchor="start" x="80.97" y="-856.5" font-family="Nunito" font-size="10.00" fill="#c0392b">*</text>
<text text-anchor="start" x="21.97" y="-838.5" font-family="Nunito" font-size="10.00" fill="#0065b3">FK</text>
<text text-anchor="start" x="41.97" y="-839.5" font-family="Nunito" font-size="10.00">owner_user_id</text>
<text text-anchor="start" x="106.97" y="-839.5" font-family="Nunito" font-size="10.00" fill="#c0392b">*</text>
<text text-anchor="start" x="111.97" y="-839.5" font-family="Nunito" font-size="10.00"> </text>
<text text-anchor="start" x="114.97" y="-839.5" font-family="Nunito" font-size="8.00" fill="#5b6776">→ users</text>
<text text-anchor="start" x="21.97" y="-821.5" font-family="Nunito" font-size="10.00" fill="#0065b3">FK</text>
<text text-anchor="start" x="41.97" y="-822.5" font-family="Nunito" font-size="10.00">product_id</text>
<text text-anchor="start" x="90.97" y="-822.5" font-family="Nunito" font-size="10.00" fill="#c0392b">*</text>
<text text-anchor="start" x="21.97" y="-804.5" font-family="Nunito" font-size="10.00" fill="#5b6776">{ }</text>
<text text-anchor="start" x="41.97" y="-804.5" font-family="Nunito" font-size="10.00" fill="#5b6776">extra</text>
<polygon fill="none" stroke="#0065b3" points="17.97,-798 17.97,-919 147.97,-919 147.97,-798 17.97,-798"/>
</g>
<!-- clients -->
<g id="node2" class="node">
<title>clients</title>
<polygon fill="#0065b3" stroke="transparent" points="18.97,-744 18.97,-761 146.97,-761 146.97,-744 18.97,-744"/>
<text text-anchor="start" x="67.47" y="-751" font-family="Nunito" font-weight="bold" font-size="10.00" fill="white">clients</text>
<text text-anchor="start" x="21.97" y="-734" font-family="Nunito" font-weight="bold" font-size="10.00">PK</text>
<text text-anchor="start" x="41.97" y="-733" font-family="Nunito" font-size="10.00">id</text>
<text text-anchor="start" x="21.97" y="-716" font-family="Nunito" font-size="10.00" fill="#5b6776">UK</text>
<text text-anchor="start" x="41.97" y="-716" font-family="Nunito" font-size="10.00">client_code</text>
<text text-anchor="start" x="21.97" y="-699" font-family="Nunito" font-size="10.00" fill="#0065b3">FK</text>
<text text-anchor="start" x="41.97" y="-699" font-family="Nunito" font-size="10.00">lead_id</text>
<text text-anchor="start" x="21.97" y="-682" font-family="Nunito" font-size="10.00" fill="#0065b3">FK</text>
<text text-anchor="start" x="41.97" y="-683" font-family="Nunito" font-size="10.00">owner_user_id</text>
<text text-anchor="start" x="106.97" y="-683" font-family="Nunito" font-size="10.00" fill="#c0392b">*</text>
<text text-anchor="start" x="111.97" y="-683" font-family="Nunito" font-size="10.00"> </text>
<text text-anchor="start" x="114.97" y="-683" font-family="Nunito" font-size="8.00" fill="#5b6776">→ users</text>
<text text-anchor="start" x="21.97" y="-665" font-family="Nunito" font-size="10.00" fill="#5b6776">{ }</text>
<text text-anchor="start" x="41.97" y="-665" font-family="Nunito" font-size="10.00" fill="#5b6776">extra</text>
<polygon fill="none" stroke="#0065b3" points="17.97,-658 17.97,-762 147.97,-762 147.97,-658 17.97,-658"/>
</g>
<!-- leads&#45;&gt;clients -->
<g id="edge7" class="edge">
<title>leads&#45;&gt;clients</title>
<path fill="none" stroke="#9fb3c8" stroke-width="1.1" d="M76.33,-797.91C76.18,-788.44 76.19,-778.66 76.35,-769.22"/>
<polygon fill="#9fb3c8" stroke="#9fb3c8" stroke-width="1.1" points="76.35,-769.08 79.66,-762.15 76.43,-765.58 76.51,-762.08 76.51,-762.08 76.51,-762.08 76.43,-765.58 73.36,-762.02 76.35,-769.08 76.35,-769.08"/>
</g>
<!-- quotes -->
<g id="node3" class="node">
<title>quotes</title>
<polygon fill="#0065b3" stroke="transparent" points="160.97,-604 160.97,-621 292.97,-621 292.97,-604 160.97,-604"/>
<text text-anchor="start" x="210.47" y="-611" font-family="Nunito" font-weight="bold" font-size="10.00" fill="white">quotes</text>
<text text-anchor="start" x="163.97" y="-594" font-family="Nunito" font-weight="bold" font-size="10.00">PK</text>
<text text-anchor="start" x="183.97" y="-593" font-family="Nunito" font-size="10.00">id</text>
<text text-anchor="start" x="163.97" y="-576" font-family="Nunito" font-size="10.00" fill="#5b6776">UK</text>
<text text-anchor="start" x="183.97" y="-576" font-family="Nunito" font-size="10.00">quote_number</text>
<text text-anchor="start" x="163.97" y="-559" font-family="Nunito" font-size="10.00" fill="#0065b3">FK</text>
<text text-anchor="start" x="183.97" y="-560" font-family="Nunito" font-size="10.00">agent_user_id</text>
<text text-anchor="start" x="247.97" y="-560" font-family="Nunito" font-size="10.00" fill="#c0392b">*</text>
<text text-anchor="start" x="252.97" y="-560" font-family="Nunito" font-size="10.00"> </text>
<text text-anchor="start" x="255.97" y="-560" font-family="Nunito" font-size="8.00" fill="#5b6776">→ users</text>
<text text-anchor="start" x="163.97" y="-542" font-family="Nunito" font-size="10.00" fill="#0065b3">FK</text>
<text text-anchor="start" x="183.97" y="-543" font-family="Nunito" font-size="10.00">client_id</text>
<text text-anchor="start" x="222.97" y="-543" font-family="Nunito" font-size="10.00" fill="#c0392b">*</text>
<text text-anchor="start" x="163.97" y="-525" font-family="Nunito" font-size="10.00" fill="#0065b3">FK</text>
<text text-anchor="start" x="183.97" y="-526" font-family="Nunito" font-size="10.00">insurance_company_id</text>
<text text-anchor="start" x="284.97" y="-526" font-family="Nunito" font-size="10.00" fill="#c0392b">*</text>
<text text-anchor="start" x="163.97" y="-508" font-family="Nunito" font-size="10.00" fill="#0065b3">FK</text>
<text text-anchor="start" x="183.97" y="-508" font-family="Nunito" font-size="10.00">lead_id</text>
<text text-anchor="start" x="163.97" y="-491" font-family="Nunito" font-size="10.00" fill="#0065b3">FK</text>
<text text-anchor="start" x="183.97" y="-492" font-family="Nunito" font-size="10.00">policy_id</text>
<text text-anchor="start" x="223.97" y="-492" font-family="Nunito" font-size="10.00" fill="#c0392b">*</text>
<text text-anchor="start" x="163.97" y="-474" font-family="Nunito" font-size="10.00" fill="#0065b3">FK</text>
<text text-anchor="start" x="183.97" y="-475" font-family="Nunito" font-size="10.00">policy_type_id</text>
<text text-anchor="start" x="247.97" y="-475" font-family="Nunito" font-size="10.00" fill="#c0392b">*</text>
<text text-anchor="start" x="163.97" y="-457" font-family="Nunito" font-size="10.00" fill="#0065b3">FK</text>
<text text-anchor="start" x="183.97" y="-458" font-family="Nunito" font-size="10.00">product_id</text>
<text text-anchor="start" x="232.97" y="-458" font-family="Nunito" font-size="10.00" fill="#c0392b">*</text>
<text text-anchor="start" x="163.97" y="-440" font-family="Nunito" font-size="10.00" fill="#0065b3">FK</text>
<text text-anchor="start" x="183.97" y="-441" font-family="Nunito" font-size="10.00">signatory_id</text>
<text text-anchor="start" x="238.97" y="-441" font-family="Nunito" font-size="10.00" fill="#c0392b">*</text>
<text text-anchor="start" x="163.97" y="-423" font-family="Nunito" font-size="10.00" fill="#5b6776">{ }</text>
<text text-anchor="start" x="183.97" y="-423" font-family="Nunito" font-size="10.00" fill="#5b6776">vehicle, coverage, doc</text>
<polygon fill="none" stroke="#0065b3" points="159.97,-416 159.97,-622 293.97,-622 293.97,-416 159.97,-416"/>
</g>
<!-- leads&#45;&gt;quotes -->
<g id="edge9" class="edge">
<title>leads&#45;&gt;quotes</title>
<path fill="none" stroke="#9fb3c8" stroke-width="1.1" d="M134.58,-797.9C142.86,-786.48 150.75,-774.25 156.97,-762 178.05,-720.55 193.69,-671.8 204.78,-628.95"/>
<polygon fill="#9fb3c8" stroke="#9fb3c8" stroke-width="1.1" points="204.79,-628.91 209.57,-622.9 205.65,-625.51 206.52,-622.12 206.52,-622.12 206.52,-622.12 205.65,-625.51 203.47,-621.34 204.79,-628.91 204.79,-628.91"/>
</g>
<!-- policies -->
<g id="node4" class="node">
<title>policies</title>
<polygon fill="#0065b3" stroke="transparent" points="159.97,-362 159.97,-379 294.97,-379 294.97,-362 159.97,-362"/>
<text text-anchor="start" x="209.97" y="-369" font-family="Nunito" font-weight="bold" font-size="10.00" fill="white">policies</text>
<text text-anchor="start" x="162.97" y="-352" font-family="Nunito" font-weight="bold" font-size="10.00">PK</text>
<text text-anchor="start" x="182.97" y="-351" font-family="Nunito" font-size="10.00">id</text>
<text text-anchor="start" x="162.97" y="-334" font-family="Nunito" font-size="10.00" fill="#5b6776">UK</text>
<text text-anchor="start" x="182.97" y="-334" font-family="Nunito" font-size="10.00">policy_number</text>
<text text-anchor="start" x="162.97" y="-317" font-family="Nunito" font-size="10.00" fill="#0065b3">FK</text>
<text text-anchor="start" x="182.97" y="-317" font-family="Nunito" font-size="10.00">client_id</text>
<text text-anchor="start" x="162.97" y="-300" font-family="Nunito" font-size="10.00" fill="#0065b3">FK</text>
<text text-anchor="start" x="182.97" y="-301" font-family="Nunito" font-size="10.00">insurance_company_id</text>
<text text-anchor="start" x="283.97" y="-301" font-family="Nunito" font-size="10.00" fill="#c0392b">*</text>
<text text-anchor="start" x="162.97" y="-283" font-family="Nunito" font-size="10.00" fill="#0065b3">FK</text>
<text text-anchor="start" x="182.97" y="-284" font-family="Nunito" font-size="10.00">lead_id</text>
<text text-anchor="start" x="216.97" y="-284" font-family="Nunito" font-size="10.00" fill="#c0392b">*</text>
<text text-anchor="start" x="162.97" y="-266" font-family="Nunito" font-size="10.00" fill="#0065b3">FK</text>
<text text-anchor="start" x="182.97" y="-267" font-family="Nunito" font-size="10.00">owner_user_id</text>
<text text-anchor="start" x="247.97" y="-267" font-family="Nunito" font-size="10.00" fill="#c0392b">*</text>
<text text-anchor="start" x="252.97" y="-267" font-family="Nunito" font-size="10.00"> </text>
<text text-anchor="start" x="255.97" y="-267" font-family="Nunito" font-size="8.00" fill="#5b6776">→ users</text>
<text text-anchor="start" x="162.97" y="-249" font-family="Nunito" font-size="10.00" fill="#0065b3">FK</text>
<text text-anchor="start" x="182.97" y="-250" font-family="Nunito" font-size="10.00">policy_type_id</text>
<text text-anchor="start" x="246.97" y="-250" font-family="Nunito" font-size="10.00" fill="#c0392b">*</text>
<text text-anchor="start" x="162.97" y="-232" font-family="Nunito" font-size="10.00" fill="#0065b3">FK</text>
<text text-anchor="start" x="182.97" y="-233" font-family="Nunito" font-size="10.00">product_id</text>
<text text-anchor="start" x="231.97" y="-233" font-family="Nunito" font-size="10.00" fill="#c0392b">*</text>
<text text-anchor="start" x="162.97" y="-215" font-family="Nunito" font-size="10.00" fill="#0065b3">FK</text>
<text text-anchor="start" x="182.97" y="-215" font-family="Nunito" font-size="10.00">quote_id</text>
<text text-anchor="start" x="162.97" y="-198" font-family="Nunito" font-size="10.00" fill="#0065b3">FK</text>
<text text-anchor="start" x="182.97" y="-199" font-family="Nunito" font-size="10.00">renewed_from</text>
<text text-anchor="start" x="247.97" y="-199" font-family="Nunito" font-size="10.00" fill="#c0392b">*</text>
<text text-anchor="start" x="252.97" y="-199" font-family="Nunito" font-size="10.00"> </text>
<text text-anchor="start" x="255.97" y="-199" font-family="Nunito" font-size="8.00" fill="#5b6776">→ policies</text>
<text text-anchor="start" x="162.97" y="-181" font-family="Nunito" font-size="10.00" fill="#5b6776">{ }</text>
<text text-anchor="start" x="182.97" y="-181" font-family="Nunito" font-size="10.00" fill="#5b6776">details, doc</text>
<polygon fill="none" stroke="#0065b3" points="158.47,-174 158.47,-380 295.47,-380 295.47,-174 158.47,-174"/>
</g>
<!-- leads&#45;&gt;policies -->
<g id="edge8" class="edge">
<title>leads&#45;&gt;policies</title>
<path fill="none" stroke="#9fb3c8" stroke-width="1.1" d="M27.51,-797.82C19.9,-786.64 13.25,-774.5 8.97,-762 -5.99,-718.27 1.2,-703.56 8.97,-658 28.13,-545.62 34.16,-513.04 93.97,-416 110.14,-389.78 132,-364.47 153.33,-342.85"/>
<polygon fill="#9fb3c8" stroke="#9fb3c8" stroke-width="1.1" points="153.51,-342.68 160.68,-339.95 155.98,-340.2 158.45,-337.72 158.45,-337.72 158.45,-337.72 155.98,-340.2 156.22,-335.5 153.51,-342.68 153.51,-342.68"/>
</g>
<!-- clients&#45;&gt;leads -->
<g id="edge2" class="edge">
<title>clients&#45;&gt;leads</title>
<path fill="none" stroke="#9fb3c8" stroke-width="1.1" d="M89.44,-762.08C89.69,-771.39 89.77,-781.23 89.7,-790.9"/>
<polygon fill="#9fb3c8" stroke="#9fb3c8" stroke-width="1.1" points="89.7,-790.91 86.47,-797.88 89.66,-794.41 89.62,-797.91 89.62,-797.91 89.62,-797.91 89.66,-794.41 92.77,-797.95 89.7,-790.91 89.7,-790.91"/>
</g>
<!-- clients&#45;&gt;quotes -->
<g id="edge4" class="edge">
<title>clients&#45;&gt;quotes</title>
<path fill="none" stroke="#9fb3c8" stroke-width="1.1" d="M121.94,-657.85C132.4,-644.13 144.05,-628.84 155.67,-613.58"/>
<polygon fill="#9fb3c8" stroke="#9fb3c8" stroke-width="1.1" points="155.71,-613.54 162.46,-609.88 157.83,-610.75 159.95,-607.97 159.95,-607.97 159.95,-607.97 157.83,-610.75 157.45,-606.06 155.71,-613.54 155.71,-613.54"/>
</g>
<!-- clients&#45;&gt;policies -->
<g id="edge3" class="edge">
<title>clients&#45;&gt;policies</title>
<path fill="none" stroke="#9fb3c8" stroke-width="1.1" d="M90.43,-657.98C100.12,-598.51 119.6,-497.93 150.97,-416 154.7,-406.26 159.01,-396.35 163.64,-386.55"/>
<polygon fill="#9fb3c8" stroke="#9fb3c8" stroke-width="1.1" points="163.69,-386.44 169.56,-381.5 165.21,-383.29 166.72,-380.13 166.72,-380.13 166.72,-380.13 165.21,-383.29 163.88,-378.77 163.69,-386.44 163.69,-386.44"/>
</g>
<!-- endorsements -->
<g id="node5" class="node">
<title>endorsements</title>
<polygon fill="#0065b3" stroke="transparent" points="76.97,-111 76.97,-128 301.97,-128 301.97,-111 76.97,-111"/>
<text text-anchor="start" x="155.97" y="-118" font-family="Nunito" font-weight="bold" font-size="10.00" fill="white">endorsements</text>
<text text-anchor="start" x="79.97" y="-101" font-family="Nunito" font-weight="bold" font-size="10.00">PK</text>
<text text-anchor="start" x="99.97" y="-100" font-family="Nunito" font-size="10.00">id</text>
<text text-anchor="start" x="79.97" y="-83" font-family="Nunito" font-size="10.00" fill="#5b6776">UK</text>
<text text-anchor="start" x="99.97" y="-83" font-family="Nunito" font-size="10.00">endorsement_number</text>
<text text-anchor="start" x="79.97" y="-66" font-family="Nunito" font-size="10.00" fill="#0065b3">FK</text>
<text text-anchor="start" x="99.97" y="-67" font-family="Nunito" font-size="10.00">client_id</text>
<text text-anchor="start" x="138.97" y="-67" font-family="Nunito" font-size="10.00" fill="#c0392b">*</text>
<text text-anchor="start" x="79.97" y="-49" font-family="Nunito" font-size="10.00" fill="#0065b3">FK</text>
<text text-anchor="start" x="99.97" y="-49" font-family="Nunito" font-size="10.00">policy_id</text>
<text text-anchor="start" x="79.97" y="-32" font-family="Nunito" font-size="10.00" fill="#0065b3">FK</text>
<text text-anchor="start" x="99.97" y="-33" font-family="Nunito" font-size="10.00">receivable_id</text>
<text text-anchor="start" x="159.97" y="-33" font-family="Nunito" font-size="10.00" fill="#c0392b">*</text>
<text text-anchor="start" x="79.97" y="-15" font-family="Nunito" font-size="10.00" fill="#5b6776">{ }</text>
<text text-anchor="start" x="99.97" y="-15" font-family="Nunito" font-size="10.00" fill="#5b6776">changes, endorsement_type_ids, completion</text>
<polygon fill="none" stroke="#0065b3" points="75.47,-8.5 75.47,-129.5 302.47,-129.5 302.47,-8.5 75.47,-8.5"/>
</g>
<!-- clients&#45;&gt;endorsements -->
<g id="edge1" class="edge">
<title>clients&#45;&gt;endorsements</title>
<path fill="none" stroke="#9fb3c8" stroke-width="1.1" d="M82.03,-657.95C81.6,-599.29 82.91,-500.29 93.97,-416 108.33,-306.64 116.87,-279.52 148.97,-174 152.7,-161.74 157.18,-148.86 161.77,-136.51"/>
<polygon fill="#9fb3c8" stroke="#9fb3c8" stroke-width="1.1" points="161.86,-136.26 167.27,-130.82 163.09,-132.98 164.32,-129.71 164.32,-129.71 164.32,-129.71 163.09,-132.98 161.38,-128.6 161.86,-136.26 161.86,-136.26"/>
</g>
<!-- quotes&#45;&gt;policies -->
<g id="edge18" class="edge">
<title>quotes&#45;&gt;policies</title>
<path fill="none" stroke="#9fb3c8" stroke-width="1.1" d="M220.29,-415.87C220.22,-406.42 220.2,-396.81 220.25,-387.29"/>
<polygon fill="#9fb3c8" stroke="#9fb3c8" stroke-width="1.1" points="220.25,-387.04 223.44,-380.06 220.27,-383.54 220.29,-380.04 220.29,-380.04 220.29,-380.04 220.27,-383.54 217.14,-380.02 220.25,-387.04 220.25,-387.04"/>
</g>
<!-- policies&#45;&gt;quotes -->
<g id="edge12" class="edge">
<title>policies&#45;&gt;quotes</title>
<path fill="none" stroke="#9fb3c8" stroke-width="1.1" d="M233.66,-380.04C233.73,-389.49 233.74,-399.1 233.7,-408.61"/>
<polygon fill="#9fb3c8" stroke="#9fb3c8" stroke-width="1.1" points="233.7,-408.87 230.51,-415.85 233.68,-412.37 233.66,-415.87 233.66,-415.87 233.66,-415.87 233.68,-412.37 236.81,-415.89 233.7,-408.87 233.7,-408.87"/>
</g>
<!-- policies&#45;&gt;endorsements -->
<g id="edge10" class="edge">
<title>policies&#45;&gt;endorsements</title>
<path fill="none" stroke="#9fb3c8" stroke-width="1.1" d="M208.14,-173.91C205.8,-161.22 203.46,-148.51 201.25,-136.56"/>
<polygon fill="#9fb3c8" stroke="#9fb3c8" stroke-width="1.1" points="201.24,-136.5 203.07,-129.05 200.61,-133.06 199.97,-129.62 199.97,-129.62 199.97,-129.62 200.61,-133.06 196.87,-130.19 201.24,-136.5 201.24,-136.5"/>
</g>
<!-- policy_payments -->
<g id="node6" class="node">
<title>policy_payments</title>
<polygon fill="#0065b3" stroke="transparent" points="321.97,-120 321.97,-137 445.97,-137 445.97,-120 321.97,-120"/>
<text text-anchor="start" x="344.97" y="-127" font-family="Nunito" font-weight="bold" font-size="10.00" fill="white">policy_payments</text>
<text text-anchor="start" x="324.97" y="-110" font-family="Nunito" font-weight="bold" font-size="10.00">PK</text>
<text text-anchor="start" x="344.97" y="-109" font-family="Nunito" font-size="10.00">id</text>
<text text-anchor="start" x="324.97" y="-92" font-family="Nunito" font-size="10.00" fill="#0065b3">FK</text>
<text text-anchor="start" x="344.97" y="-93" font-family="Nunito" font-size="10.00">confirmed_by</text>
<text text-anchor="start" x="405.97" y="-93" font-family="Nunito" font-size="10.00" fill="#c0392b">*</text>
<text text-anchor="start" x="410.97" y="-93" font-family="Nunito" font-size="10.00"> </text>
<text text-anchor="start" x="413.97" y="-93" font-family="Nunito" font-size="8.00" fill="#5b6776">→ users</text>
<text text-anchor="start" x="324.97" y="-75" font-family="Nunito" font-size="10.00" fill="#0065b3">FK</text>
<text text-anchor="start" x="344.97" y="-75" font-family="Nunito" font-size="10.00">policy_id</text>
<text text-anchor="start" x="324.97" y="-58" font-family="Nunito" font-size="10.00" fill="#0065b3">FK</text>
<text text-anchor="start" x="344.97" y="-59" font-family="Nunito" font-size="10.00">receipt_id</text>
<text text-anchor="start" x="389.97" y="-59" font-family="Nunito" font-size="10.00" fill="#c0392b">*</text>
<text text-anchor="start" x="324.97" y="-41" font-family="Nunito" font-size="10.00" fill="#0065b3">FK</text>
<text text-anchor="start" x="344.97" y="-42" font-family="Nunito" font-size="10.00">receivable_id</text>
<text text-anchor="start" x="404.97" y="-42" font-family="Nunito" font-size="10.00" fill="#c0392b">*</text>
<text text-anchor="start" x="324.97" y="-24" font-family="Nunito" font-size="10.00" fill="#0065b3">FK</text>
<text text-anchor="start" x="344.97" y="-25" font-family="Nunito" font-size="10.00">rejected_by</text>
<text text-anchor="start" x="397.97" y="-25" font-family="Nunito" font-size="10.00" fill="#c0392b">*</text>
<text text-anchor="start" x="402.97" y="-25" font-family="Nunito" font-size="10.00"> </text>
<text text-anchor="start" x="405.97" y="-25" font-family="Nunito" font-size="8.00" fill="#5b6776">→ users</text>
<text text-anchor="start" x="324.97" y="-7" font-family="Nunito" font-size="10.00" fill="#0065b3">FK</text>
<text text-anchor="start" x="344.97" y="-8" font-family="Nunito" font-size="10.00">submitted_by</text>
<text text-anchor="start" x="405.97" y="-8" font-family="Nunito" font-size="10.00" fill="#c0392b">*</text>
<text text-anchor="start" x="410.97" y="-8" font-family="Nunito" font-size="10.00"> </text>
<text text-anchor="start" x="413.97" y="-8" font-family="Nunito" font-size="8.00" fill="#5b6776">→ users</text>
<polygon fill="none" stroke="#0065b3" points="320.97,0 320.97,-138 446.97,-138 446.97,0 320.97,0"/>
</g>
<!-- policies&#45;&gt;policy_payments -->
<g id="edge11" class="edge">
<title>policies&#45;&gt;policy_payments</title>
<path fill="none" stroke="#9fb3c8" stroke-width="1.1" d="M295.61,-185.95C306.29,-171.92 317.23,-157.58 327.6,-143.97"/>
<polygon fill="#9fb3c8" stroke="#9fb3c8" stroke-width="1.1" points="327.76,-143.75 334.51,-140.1 329.88,-140.97 332.01,-138.19 332.01,-138.19 332.01,-138.19 329.88,-140.97 329.5,-136.28 327.76,-143.75 327.76,-143.75"/>
</g>
<!-- insurance_companies -->
<g id="node7" class="node">
<title>insurance_companies</title>
<path fill="none" stroke="#5b6776" stroke-dasharray="5,2" d="M513.47,-728C513.47,-728 426.47,-728 426.47,-728 420.47,-728 414.47,-722 414.47,-716 414.47,-716 414.47,-704 414.47,-704 414.47,-698 420.47,-692 426.47,-692 426.47,-692 513.47,-692 513.47,-692 519.47,-692 525.47,-698 525.47,-704 525.47,-704 525.47,-716 525.47,-716 525.47,-722 519.47,-728 513.47,-728"/>
<text text-anchor="middle" x="469.97" y="-707.5" font-family="Nunito" font-size="10.00" fill="#5b6776">insurance_companies</text>
</g>
<!-- insurance_companies&#45;&gt;quotes -->
<g id="edge6" class="edge">
<title>insurance_companies&#45;&gt;quotes</title>
<path fill="none" stroke="#9fb3c8" stroke-width="1.1" d="M448.71,-691.91C436.29,-681.97 420.29,-669.22 405.97,-658 371.23,-630.77 332.46,-600.82 299.91,-575.81"/>
<polygon fill="#9fb3c8" stroke="#9fb3c8" stroke-width="1.1" points="299.87,-575.78 296.24,-569.02 297.1,-573.65 294.32,-571.52 294.32,-571.52 294.32,-571.52 297.1,-573.65 292.4,-574.01 299.87,-575.78 299.87,-575.78"/>
</g>
<!-- insurance_companies&#45;&gt;policies -->
<g id="edge5" class="edge">
<title>insurance_companies&#45;&gt;policies</title>
<path fill="none" stroke="#9fb3c8" stroke-width="1.1" d="M464.71,-691.74C449.89,-644.75 404.65,-511.67 339.97,-416 327.48,-397.51 319.55,-396.89 304.97,-380 303.41,-378.19 301.84,-376.34 300.26,-374.48"/>
<polygon fill="#9fb3c8" stroke="#9fb3c8" stroke-width="1.1" points="300.02,-374.2 297.95,-366.81 297.78,-371.51 295.53,-368.83 295.53,-368.83 295.53,-368.83 297.78,-371.51 293.12,-370.85 300.02,-374.2 300.02,-374.2"/>
</g>
<!-- policy_types -->
<g id="node8" class="node">
<title>policy_types</title>
<path fill="none" stroke="#5b6776" stroke-dasharray="5,2" d="M384.47,-728C384.47,-728 337.47,-728 337.47,-728 331.47,-728 325.47,-722 325.47,-716 325.47,-716 325.47,-704 325.47,-704 325.47,-698 331.47,-692 337.47,-692 337.47,-692 384.47,-692 384.47,-692 390.47,-692 396.47,-698 396.47,-704 396.47,-704 396.47,-716 396.47,-716 396.47,-722 390.47,-728 384.47,-728"/>
<text text-anchor="middle" x="360.97" y="-707.5" font-family="Nunito" font-size="10.00" fill="#5b6776">policy_types</text>
</g>
<!-- policy_types&#45;&gt;quotes -->
<g id="edge14" class="edge">
<title>policy_types&#45;&gt;quotes</title>
<path fill="none" stroke="#9fb3c8" stroke-width="1.1" d="M348.85,-691.89C337,-675.18 317.93,-648.3 298.37,-620.7"/>
<polygon fill="#9fb3c8" stroke="#9fb3c8" stroke-width="1.1" points="298.24,-620.52 296.76,-612.98 296.21,-617.66 294.19,-614.81 294.19,-614.81 294.19,-614.81 296.21,-617.66 291.62,-616.63 298.24,-620.52 298.24,-620.52"/>
</g>
<!-- policy_types&#45;&gt;policies -->
<g id="edge13" class="edge">
<title>policy_types&#45;&gt;policies</title>
<path fill="none" stroke="#9fb3c8" stroke-width="1.1" d="M359.45,-691.99C354.96,-646.18 339.72,-516.85 302.97,-416 299.44,-406.3 295.3,-396.47 290.8,-386.74"/>
<polygon fill="#9fb3c8" stroke="#9fb3c8" stroke-width="1.1" points="290.78,-386.7 290.65,-379.03 289.29,-383.54 287.8,-380.37 287.8,-380.37 287.8,-380.37 289.29,-383.54 284.95,-381.71 290.78,-386.7 290.78,-386.7"/>
</g>
<!-- products -->
<g id="node9" class="node">
<title>products</title>
<path fill="none" stroke="#5b6776" stroke-dasharray="5,2" d="M229.97,-991C229.97,-991 197.97,-991 197.97,-991 191.97,-991 185.97,-985 185.97,-979 185.97,-979 185.97,-967 185.97,-967 185.97,-961 191.97,-955 197.97,-955 197.97,-955 229.97,-955 229.97,-955 235.97,-955 241.97,-961 241.97,-967 241.97,-967 241.97,-979 241.97,-979 241.97,-985 235.97,-991 229.97,-991"/>
<text text-anchor="middle" x="213.97" y="-970.5" font-family="Nunito" font-size="10.00" fill="#5b6776">products</text>
</g>
<!-- products&#45;&gt;leads -->
<g id="edge15" class="edge">
<title>products&#45;&gt;leads</title>
<path fill="none" stroke="#9fb3c8" stroke-width="1.1" d="M194.08,-954.91C182.99,-945.39 168.43,-932.89 153.52,-920.09"/>
<polygon fill="#9fb3c8" stroke="#9fb3c8" stroke-width="1.1" points="153.33,-919.92 150.07,-912.97 150.68,-917.64 148.02,-915.36 148.02,-915.36 148.02,-915.36 150.68,-917.64 145.97,-917.75 153.33,-919.92 153.33,-919.92"/>
</g>
<!-- products&#45;&gt;quotes -->
<g id="edge17" class="edge">
<title>products&#45;&gt;quotes</title>
<path fill="none" stroke="#9fb3c8" stroke-width="1.1" d="M214.47,-954.83C215.98,-902.21 220.65,-740.02 223.83,-629.31"/>
<polygon fill="#9fb3c8" stroke="#9fb3c8" stroke-width="1.1" points="223.84,-629.09 227.19,-622.18 223.94,-625.59 224.04,-622.09 224.04,-622.09 224.04,-622.09 223.94,-625.59 220.89,-622 223.84,-629.09 223.84,-629.09"/>
</g>
<!-- products&#45;&gt;policies -->
<g id="edge16" class="edge">
<title>products&#45;&gt;policies</title>
<path fill="none" stroke="#9fb3c8" stroke-width="1.1" d="M242.25,-963.71C308.12,-942.67 470.98,-880.33 534.97,-762 613.19,-617.36 528.49,-523.39 403.97,-416 368.52,-385.42 342.71,-407.71 304.97,-380 303.66,-379.04 302.36,-378.04 301.07,-377.02"/>
<polygon fill="#9fb3c8" stroke="#9fb3c8" stroke-width="1.1" points="300.88,-376.87 297.49,-369.97 298.18,-374.63 295.48,-372.4 295.48,-372.4 295.48,-372.4 298.18,-374.63 293.47,-374.83 300.88,-376.87 300.88,-376.87"/>
</g>
<!-- receipts -->
<g id="node10" class="node">
<title>receipts</title>
<path fill="none" stroke="#5b6776" stroke-dasharray="5,2" d="M440.97,-295C440.97,-295 410.97,-295 410.97,-295 404.97,-295 398.97,-289 398.97,-283 398.97,-283 398.97,-271 398.97,-271 398.97,-265 404.97,-259 410.97,-259 410.97,-259 440.97,-259 440.97,-259 446.97,-259 452.97,-265 452.97,-271 452.97,-271 452.97,-283 452.97,-283 452.97,-289 446.97,-295 440.97,-295"/>
<text text-anchor="middle" x="425.97" y="-274.5" font-family="Nunito" font-size="10.00" fill="#5b6776">receipts</text>
</g>
<!-- receipts&#45;&gt;policy_payments -->
<g id="edge19" class="edge">
<title>receipts&#45;&gt;policy_payments</title>
<path fill="none" stroke="#9fb3c8" stroke-width="1.1" d="M422.46,-258.79C417.4,-233.93 407.71,-186.42 399.32,-145.29"/>
<polygon fill="#9fb3c8" stroke="#9fb3c8" stroke-width="1.1" points="399.28,-145.08 400.97,-137.59 398.58,-141.65 397.88,-138.22 397.88,-138.22 397.88,-138.22 398.58,-141.65 394.8,-138.85 399.28,-145.08 399.28,-145.08"/>
</g>
<!-- receivables -->
<g id="node11" class="node">
<title>receivables</title>
<path fill="none" stroke="#5b6776" stroke-dasharray="5,2" d="M368.47,-295C368.47,-295 325.47,-295 325.47,-295 319.47,-295 313.47,-289 313.47,-283 313.47,-283 313.47,-271 313.47,-271 313.47,-265 319.47,-259 325.47,-259 325.47,-259 368.47,-259 368.47,-259 374.47,-259 380.47,-265 380.47,-271 380.47,-271 380.47,-283 380.47,-283 380.47,-289 374.47,-295 368.47,-295"/>
<text text-anchor="middle" x="346.97" y="-274.5" font-family="Nunito" font-size="10.00" fill="#5b6776">receivables</text>
</g>
<!-- receivables&#45;&gt;endorsements -->
<g id="edge20" class="edge">
<title>receivables&#45;&gt;endorsements</title>
<path fill="none" stroke="#9fb3c8" stroke-width="1.1" d="M342.52,-258.95C336.41,-237.7 323.98,-200.9 304.97,-174 295.21,-160.18 283.29,-146.91 270.85,-134.73"/>
<polygon fill="#9fb3c8" stroke="#9fb3c8" stroke-width="1.1" points="270.54,-134.43 267.67,-127.31 268.01,-132.01 265.49,-129.58 265.49,-129.58 265.49,-129.58 268.01,-132.01 263.31,-131.86 270.54,-134.43 270.54,-134.43"/>
</g>
<!-- receivables&#45;&gt;policy_payments -->
<g id="edge21" class="edge">
<title>receivables&#45;&gt;policy_payments</title>
<path fill="none" stroke="#9fb3c8" stroke-width="1.1" d="M350.06,-258.79C354.53,-233.93 363.06,-186.42 370.45,-145.29"/>
<polygon fill="#9fb3c8" stroke="#9fb3c8" stroke-width="1.1" points="370.48,-145.11 374.82,-138.78 371.1,-141.66 371.72,-138.22 371.72,-138.22 371.72,-138.22 371.1,-141.66 368.62,-137.66 370.48,-145.11 370.48,-145.11"/>
</g>
<!-- signatories -->
<g id="node12" class="node">
<title>signatories</title>
<path fill="none" stroke="#5b6776" stroke-dasharray="5,2" d="M295.47,-728C295.47,-728 254.47,-728 254.47,-728 248.47,-728 242.47,-722 242.47,-716 242.47,-716 242.47,-704 242.47,-704 242.47,-698 248.47,-692 254.47,-692 254.47,-692 295.47,-692 295.47,-692 301.47,-692 307.47,-698 307.47,-704 307.47,-704 307.47,-716 307.47,-716 307.47,-722 301.47,-728 295.47,-728"/>
<text text-anchor="middle" x="274.97" y="-707.5" font-family="Nunito" font-size="10.00" fill="#5b6776">signatories</text>
</g>
<!-- signatories&#45;&gt;quotes -->
<g id="edge22" class="edge">
<title>signatories&#45;&gt;quotes</title>
<path fill="none" stroke="#9fb3c8" stroke-width="1.1" d="M270.63,-691.89C266.81,-676.86 260.9,-653.59 254.65,-628.99"/>
<polygon fill="#9fb3c8" stroke="#9fb3c8" stroke-width="1.1" points="254.61,-628.8 255.93,-621.24 253.74,-625.41 252.88,-622.01 252.88,-622.01 252.88,-622.01 253.74,-625.41 249.83,-622.79 254.61,-628.8 254.61,-628.8"/>
</g>
</g>
</svg>
